<svg version="1.1" id="Layer_1" xmlns="http://www.w3.org/2000/svg" xmlns:xlink="http://www.w3.org/1999/xlink" x="0px" y="0px" viewBox="0 0 783 768" style="enable-background:new 0 0 783 768;" xml:space="preserve">
  <g>
    <path d="M768.7,387.53c-24.76-2.32-49.59-3.68-74.45-4.77c3.93-0.47,7.85-0.91,11.79-1.12c16-0.85,32-1.63,48-2.43
		c0.53-0.03,1.15,0.12,1.57-0.1c0.73-0.38,1.34-0.99,2.01-1.5c-0.49-0.56-0.89-1.47-1.47-1.61c-1.91-0.48-3.88-0.88-5.84-0.95
		c-10.34-0.34-20.69-0.56-31.03-0.86c-0.97-0.03-1.92-0.33-2.88-0.51c0.02-0.25,0.04-0.49,0.06-0.74
		c15.57-0.67,31.13-1.35,46.7-2.02c0.06-0.35,0.13-0.69,0.19-1.04c-2.96-0.41-5.92-1.2-8.88-1.18c-9.28,0.08-18.56,0.51-27.84,0.72
		c-13.26,0.31-26.52,0.59-39.77,0.74c-1.58,0.02-4.44-0.63-4.57-1.33c-0.91-5.28-4.69-3.03-7.46-3.1c-2.22-0.06-4.45,0.3-6.68,0.47
		c-0.04-0.54-0.08-1.07-0.12-1.61c10.54-1.12,21.07-2.25,31.61-3.37c-0.01-0.25-0.02-0.49-0.02-0.74c-1.02-0.45-2.03-0.89-3.85-1.69
		c3.37-1.62,6.04-2.9,8.72-4.19c-0.11-0.44-0.23-0.89-0.34-1.33c-8.89,0.59-17.78,1.17-26.68,1.76c6.66-1.81,13.43-2.73,20.17-3.77
		c5.48-0.85,10.98-1.65,16.39-2.84c5.54-1.22,10.95-3.05,16.49-4.3c4.26-0.96,8.63-1.45,12.95-2.15c-0.04-0.48-0.08-0.95-0.12-1.43
		c-5.06,0.28-10.13,0.41-15.18,0.87c-5,0.46-9.98,1.28-14.97,1.89c-4.92,0.6-9.86,1.15-14.79,1.71c-0.04-0.41-0.09-0.83-0.13-1.24
		c14.81-2.6,29.28-7.31,44.6-6.88c3.02,0.08,6.09-0.32,9.08-0.82c0.98-0.16,1.79-1.34,2.67-2.06c-0.99-0.68-1.95-1.87-2.98-1.93
		c-2.9-0.19-5.83,0.15-8.74,0.17c-5.49,0.04-10.98,0.01-15.41,0.01c1.57-0.22,4.21-0.49,6.8-0.95c5.86-1.03,11.72-2.07,17.53-3.32
		c1.03-0.22,1.84-1.5,2.75-2.29c-1.17-0.5-2.31-1.18-3.54-1.46c-0.84-0.19-1.96,0.51-2.7,0.21c-7.2-2.94-14.4-0.2-21.54,0.12
		c-5.48,0.25-10.88,1.97-16.32,3.04c-0.02-0.17-0.03-0.33-0.05-0.5c17.04-5.16,34.08-10.33,51.12-15.49
		c-1.42-0.85-2.83-1.26-4.2-1.15c-5,0.42-10.02,0.82-14.97,1.58c-14.9,2.27-29.8,4.59-44.66,7.11c-9.78,1.65-19.46,4.08-30.26,2.94
		c2.52-2.76-0.9-2.52-2.63-4.92c32.89-6.66,63.58-18.35,96.07-23.48c-0.67-0.86-1.32-1.48-1.96-1.48c-3.54,0.03-7.16-0.2-10.62,0.43
		c-10.42,1.9-20.8,4.01-31.14,6.31c-8.4,1.87-16.71,4.18-25.08,6.19c-1.3,0.31-2.75,0.04-4.13,0.04c-0.1-0.56-0.2-1.13-0.3-1.69
		c3.58-1.52,7.15-3.09,10.76-4.55c8.82-3.55,17.73-6.89,26.48-10.62c6.54-2.79,12.9-6,19.28-9.16c1.03-0.51,1.7-1.75,3.02-3.18
		c-1.59-0.2-2.38-0.52-3.04-0.34c-9.46,2.57-18.91,5.19-28.36,7.82c-16.58,4.62-33.14,9.29-49.75,13.8c-1.45,0.39-3.19-0.3-4.8-0.48
		c-0.06-0.5-0.11-1-0.17-1.5c25.11-13.68,50.22-27.37,75.34-41.05c-0.3-0.64-0.59-1.28-0.89-1.92
		c-18.27,7.24-36.54,14.48-55.65,22.06c1.3-0.9,2.06-1.44,2.83-1.95c11.75-7.82,23.5-15.65,35.26-23.45
		c2.37-1.57,4.83-3.03,7.24-4.54c-17.82,2.36-32.72,11.82-48.96,17.8c5.29-3.57,10.76-6.71,16.32-9.7
		c5.49-2.95,11.17-5.57,16.56-8.68c5.31-3.07,10.37-6.57,15.54-9.88c-0.23-0.4-0.45-0.79-0.68-1.19
		c-22.49,10.67-44.99,21.34-67.48,32c-0.08-0.18-0.17-0.35-0.25-0.53c18.3-10.67,36.61-21.35,54.91-32.02
		c-0.23-0.42-0.46-0.85-0.68-1.27c-22.82,10.73-45.64,21.45-68.46,32.18c9.19-6.05,18.68-11.52,28.16-17.01
		c11.35-6.58,22.75-13.07,33.98-19.83c2.84-1.71,5.14-4.33,7.68-6.53c-0.24-0.27-0.49-0.53-0.73-0.8
		c-3.68,1.42-7.37,2.83-11.05,4.25c-0.14-0.3-0.28-0.6-0.43-0.9c1.73-1.4,3.46-2.8,5.19-4.2c-0.24-0.36-0.49-0.72-0.73-1.08
		c-13.85,7.65-27.71,15.29-41.56,22.94c-0.2-0.32-0.39-0.65-0.59-0.97c10.04-6.51,20.09-13.03,30.13-19.54
		c-0.18-0.29-0.36-0.57-0.54-0.86c-9.31,5.19-18.63,10.38-27.94,15.56c-0.27-0.43-0.53-0.86-0.8-1.29
		c13.23-10.61,26.47-21.23,39.7-31.84c-0.19-0.26-0.39-0.53-0.58-0.79c-16.78,9.56-33.55,19.12-50.33,28.67
		c0.52-1.49,1.48-2.33,2.52-3.06c15.35-10.87,30.77-21.64,46-32.68c2.79-2.02,4.8-5.12,7.17-7.72c-0.36-0.39-0.72-0.79-1.08-1.18
		c-26.77,17.37-53.53,34.74-80.3,52.1c-0.12-0.17-0.24-0.34-0.36-0.51c6.73-5.36,13.47-10.73,20.2-16.09
		c-0.17-0.24-0.34-0.47-0.51-0.71c-3.68,2.31-7.37,4.62-11.05,6.92c-0.22-0.3-0.44-0.59-0.66-0.89c3.2-2.89,6.4-5.79,9.6-8.68
		c-0.17-0.19-0.35-0.38-0.52-0.58c-8.64,5.99-17.28,11.98-25.92,17.98c-0.3-0.35-0.59-0.7-0.89-1.05
		c14.35-14.61,31.52-26.11,46.01-40.63c-6.27,4.54-12.54,9.08-18.81,13.62c-0.21-0.28-0.41-0.55-0.62-0.83
		c7.09-6.14,13.79-12.81,21.36-18.28c7.54-5.45,12.66-12.63,17.59-20.14c0.44-0.67,0.07-1.87,0.07-2.83
		c-0.82,0.21-1.85,0.18-2.4,0.68c-1.37,1.23-2.81,2.54-3.71,4.11c-2.65,4.62-5.76,8.65-10.3,11.71c-4.6,3.1-8.72,6.89-13.09,10.33
		c-5.84,4.61-11.71,9.18-17.57,13.76c-0.24-0.29-0.48-0.59-0.72-0.88c4.23-3.77,8.46-7.55,12.7-11.31
		c4.26-3.79,8.59-7.51,12.8-11.36c4.02-3.68,7.92-7.48,11.87-11.23c-0.19-0.19-0.38-0.38-0.56-0.56
		c-16.03,13.45-32.05,26.9-48.08,40.35c-0.18-0.22-0.36-0.43-0.54-0.65c5.05-5.29,10.1-10.59,15.15-15.88
		c-0.15-0.22-0.3-0.43-0.45-0.65c-8.1,5.66-16.2,11.33-24.3,16.99c-0.35-0.39-0.71-0.78-1.06-1.17c2.86-3.16,5.59-6.44,8.59-9.46
		c14.41-14.5,28.87-28.94,43.35-43.37c0.83-0.83,1.97-1.36,2.97-2.03c-0.45-0.45-0.9-0.89-1.35-1.34c-4.32,3.99-8.81,7.81-12.92,12
		c-4.19,4.27-7.69,9.23-12.04,13.3c-10.37,9.68-21.02,19.07-31.68,28.45c-2.87,2.52-6.15,4.57-9.25,6.83
		c-0.4-0.36-0.8-0.72-1.21-1.08c0.83-1.5,1.41-3.23,2.54-4.45c9.41-10.08,18.89-20.09,28.4-30.08c9.49-9.98,19.04-19.91,28.53-29.89
		c0.17-0.18-0.04-0.71-0.13-1.8c-2.07,1.49-3.8,2.7-5.49,3.96c-3.27,2.44-6.89,4.56-9.71,7.45c-7.77,7.95-15.13,16.29-22.79,24.34
		c-2.98,3.13-6.31,5.92-9.49,8.86c2.59-4.14,5.67-7.78,9-11.17c2.35-2.4,2.92-4.67,0.58-7.71c-7.18,8.25-14.32,16.29-23.9,21.61
		c4.57-6.33,8.53-13.49,14.41-18.3c10.42-8.54,18.61-18.72,26.15-29.62c1.08-1.56,1.74-3.4,2.59-5.12c-0.43-0.3-0.85-0.61-1.28-0.91
		c-10.38,11.43-16.88,26.45-31.87,35.24c3.02-8.02,9.55-12.46,12.96-19.03c-3.37,2.83-6.39,5.98-9.49,9.06
		c-2.45,2.43-4.9,4.68-5.05,8.62c-0.06,1.64-1.33,3.44-2.49,4.79c-3.13,3.6-6.48,7.01-9.8,10.45c-0.35,0.36-1.02,0.42-1.54,0.62
		c-0.22-0.22-0.45-0.44-0.67-0.66c4.34-6.03,8.69-12.05,13.03-18.08c-0.39-0.29-0.79-0.58-1.18-0.86
		c-7.88,8.8-15.77,17.6-23.65,26.4c-0.5-0.39-1-0.77-1.5-1.16c3.71-5.4,7.41-10.81,11.12-16.21c-0.21-0.12-0.41-0.23-0.62-0.35
		c-4.51,4.16-9.03,8.32-13.54,12.47c-0.19-0.24-0.37-0.48-0.56-0.71c2.22-5.42,4.45-10.85,6.67-16.27
		c-0.68-0.47-1.36-0.94-2.03-1.41c-2.63,2.71-5.27,5.42-6.84,7.03c12.91-19.98,26.68-41.28,40.46-62.58
		c-0.46-0.32-0.91-0.64-1.37-0.95c-11.24,18.28-26.44,33.17-41.06,48.76c1.84-6.88,4.06-13.5,7.17-19.66
		c3.05-6.04,7.02-11.63,10.58-17.41c-4.1,3.82-8.06,7.79-11.11,12.36c-3.06,4.57-5.77,9.54-7.6,14.7
		c-1.79,5.04-3.51,10.03-5.29,15.02c-0.49-0.15-0.98-0.3-1.47-0.45c0.68-8.92,1.36-17.84,2.04-26.76
		c-5.73,10.74-9.11,22.36-12.12,35.29c-1.9-2.07-3.16-2.94-3.69-4.14c-1.54-3.48-2.94-7.03-4.11-10.65
		c-4.18-12.95-2.35-25.71,2.27-38.03c5.17-13.76,11.16-27.21,16.71-40.83c1.33-3.26,2.34-6.65,3.49-9.98
		c-1.27,0.17-1.74,0.62-2.02,1.16c-5.5,10.69-10.88,21.45-16.5,32.07c-5.76,10.89-11.89,21.59-17.59,32.52
		c-2.18,4.19-3.59,8.78-5.39,13.17c-0.79,1.94-1.35,4.31-4.29,3.67c-2.57-0.56-3.9-2.08-3.37-4.89c0.37-1.95,0.66-3.92,0.89-5.89
		c0.3-2.6,0.49-5.21,0.73-7.81c-0.42-0.07-0.84-0.14-1.26-0.21c-1.23,3.58-2.34,7.21-3.8,10.7c-0.37,0.88-2.03,1.93-2.83,1.75
		c-1.17-0.27-2.45-1.4-3.02-2.51c-0.5-0.96-0.1-2.4-0.1-3.63c-0.29-0.19-0.58-0.37-0.87-0.56c-0.88,1.14-1.52,2.74-2.68,3.32
		c-1.83,0.92-4.05,1.63-6.01,1.43c-0.7-0.07-1.51-3-1.58-4.65c-0.11-2.62,0.36-5.26,0.58-7.89c0.98-11.86,1.83-23.74,2.96-35.59
		c1.31-13.79,2.9-27.55,4.28-41.33c0.63-6.32,1.08-12.65,1.56-18.98c0.25-3.26,0.37-6.53,0.56-9.8c-0.46-0.04-0.91-0.08-1.36-0.12
		c-5.76,9.02-9.06,18.68-7.74,29.37c-1,0.42-1.85,1.06-2,1.83c-2.95,15.27-5.81,30.55-8.71,45.83c-1.46,7.71-2.97,15.42-4.45,23.13
		c-0.71-1.78-0.75-3.54-0.44-5.24c1.9-10.3,2.63-20.58,1.35-31.07c-0.87-7.2-1.86-14.72-0.72-21.77c2.49-15.44,1.3-30.91,1.93-46.35
		c0.03-0.78-0.48-1.58-0.73-2.37c-1.59,14.05-2.14,28.04-3.44,41.95c-1.28,13.76-3.3,27.45-5,41.17c-0.33,0-0.66,0-0.99,0
		c0.38-6.21-0.72-11.98-4.84-17.86c-1.5,11.16-5.22,21.16-1.61,32.41c-2.29-1.07-3.29-1.53-4.45-2.08
		c-0.63,2.13-1.17,3.95-1.81,6.11c-2.36-19.5-1.18-38.91-6-57.76c-0.62,7.8-0.11,15.67-2.45,23.86c-2.52-3.58-1.3-8.03-5.38-10.66
		c0,4.81,0,8.96,0,13.11c0,4.11,0.02,8.22,0.02,12.33c0,4.25,0.16,8.51-0.05,12.75c-0.19,3.95,0.93,8.11-1.35,11.85
		c-0.74-3.93-0.59-7.9-1.23-11.73c-1.81-10.85-1.72-21.99-6.23-32.45c-1.91-4.43-1.61-9.85-2.14-14.84
		c-0.69-6.58-1.21-13.18-1.81-19.77c-0.86,6.74-0.98,13.44-0.82,20.14c0.12,5.03,0.77,10.06,0.78,15.09c0,1.76-1.19,3.52-1.84,5.28
		c-0.63-0.06-1.25-0.12-1.88-0.18c-1.06-6.06-2.8-12.09-3.05-18.18c-0.88-21.19-1.25-42.41-1.81-63.62c-0.8,0-1.59,0-2.39,0
		c0.18,7.82,0.36,15.64,0.55,23.46c0.23,9.93,0.76,19.87,0.64,29.8c-0.19,15.76-0.96,31.51-1.12,47.27
		c-0.03,3.07-0.54,4.75-4.22,5.37c-1.59-9.01-3.19-18.06-4.78-27.11c-0.37,0.02-0.74,0.04-1.11,0.06c0,9.28,0,18.55,0,27.83
		c-0.66,0.01-1.32,0.01-1.98,0.02c1.52-32.39-2.36-64.41-5.14-96.54c-0.84,3.69-0.72,7.36-0.87,11.02
		c-0.2,4.84-0.62,9.68-0.92,14.52c-0.08,1.31-0.23,2.66-0.05,3.94c2.78,19.65,1.89,39.38,1.23,59.1c-0.11,3.23-0.02,6.46-0.02,9.7
		c-1.25-2.42-2.06-4.94-1.98-7.43c0.62-19.55-2.23-38.83-4.21-58.18c-0.26-2.53-1.56-4.94-2.38-7.41c-0.37,0.13-0.74,0.26-1.12,0.38
		c0.95,20.4,1.89,40.8,2.84,61.2c-2.32-26.22-10.51-51.14-16.11-76.56c3.69,30.63,7.37,61.26,10.95,91.01
		c-1.81-3.87-4.45-8.26-5.94-13.01c-3.06-9.71-5.51-19.61-8.19-29.44c-2.37-8.68-4.63-17.38-7.07-26.04
		c-1.82-6.48-3.85-12.9-5.79-19.34c-0.35,0.08-0.69,0.17-1.04,0.25c0.87,3.66,1.8,7.3,2.58,10.98c0.72,3.37,1.38,6.77,1.83,10.19
		c0.19,1.45-0.49,3.01-0.36,4.48c0.22,2.63,0.75,5.24,1.15,7.86c0,0.01,0.01,0.02,0.01,0.04c-0.38,1.42-1.15,2.87-1.03,4.24
		c0.68,8.04,1.6,16.05,2.41,24.08c0.3,3.01-1.06,5.7-3.13,6.31c1.08-3.99-4.93-40.26-7.6-43.76c1.02,11.22,3.51,22.44,0.6,34.51
		c-1.18-2.02-1.89-3.25-2.6-4.48c-0.3,0.11-0.6,0.23-0.9,0.34c2.86,17.11,5.71,34.22,8.57,51.33c-2.54-6.36-4.96-12.76-6.47-19.37
		c-1.55-6.82-2.32-13.82-3.23-20.77c-0.87-6.61-1.49-13.26-2.21-19.89c-0.49,0.06-0.99,0.11-1.48,0.17
		c1.59,13.76,3.19,27.51,4.78,41.27c-0.34,0.06-0.68,0.11-1.03,0.17c-5.96-11.02-11.98-22.03-11.93-35.28
		c-3.58,4.03,1.25,7.96-0.05,12.08c-11.25-15.1-18.91-31.74-26.07-49.39c-0.73,1.86-0.86,3.37-1.5,3.64
		c-4.22,1.78-2.4,4.6-1.32,7.15c0.86,2.03,2.15,3.87,3.17,5.83c1.56,3.03,3.05,6.09,4.57,9.14c-0.19,0.07-0.38,0.13-0.58,0.2
		c-1.86-1.58-3.71-3.15-5.57-4.73c-0.62,1.43-0.63,2.23-0.38,2.94c2.28,6.46,4.7,12.87,6.87,19.37c1.47,4.39,2.57,8.9,3.9,13.34
		c2.5,8.33,5.42,16.55,7.45,24.99c1.19,4.95,0.99,10.24,1.42,15.38c-0.68,0.1-1.36,0.2-2.04,0.3c-0.4-1.71-1.24-3.46-1.13-5.14
		c0.38-5.68-1.53-10.67-4.21-15.44c-4.08-7.28-8.6-14.34-12.33-21.8c-5.69-11.37-10.85-23-16.28-34.5c-0.56-1.18-1.45-2.2-2.18-3.3
		c-0.29,0.17-0.57,0.34-0.86,0.51c2.36,6.13,4.58,12.32,7.13,18.38c2.61,6.22,5.6,12.28,8.32,18.45c2.45,5.56,4.71,11.21,7.18,16.76
		c4.66,10.47,9.36,20.92,10.33,33.5c-11.76-21.74-23.09-42.66-34.41-63.59c-0.61,0.33-1.23,0.67-1.84,1
		c5.37,9.98,10.77,19.94,16.07,29.96c0.73,1.38,0.94,3.03,1.39,4.55c-0.59,0.24-1.18,0.49-1.78,0.73
		c-8.87-14.05-17.95-27.98-26.49-42.24c-2.44-4.08-5.87-5.17-10.24-6c8.15,15.58,20.35,28.77,26.72,45.33
		c-7.48-10.01-13.67-20.97-23.16-29.4c3.46,7.41,6.92,14.82,10.38,22.23c-0.18,0.12-0.36,0.24-0.54,0.36
		c-1.81-2.31-3.61-4.62-5.42-6.93c-0.13,1.02-0.03,1.96,0.46,2.62c6.81,9.2,8.59,20.3,11.77,30.87c0.33,1.08,1.48,2.02,2.44,2.79
		c6.5,5.15,8.92,12.37,10.85,19.87c-0.69,0.35-0.92,0.56-1.15,0.57c-0.38,0-0.93,0.01-1.12-0.22c-5.09-6.27-12.38-11.05-13.46-20.07
		c-0.18-1.47-1.19-2.94-2.09-4.21c-2.44-3.46-5.39-6.62-7.44-10.29c-1.67-2.99-3.4-4-5.66-2.68c-3.51-4.15-6.73-7.96-9.95-11.77
		c-0.26,0.2-0.52,0.39-0.78,0.59c8.75,17.45,17.5,34.91,26.25,52.36c-2.55-0.95-5.06-2.26-6.51-4.33
		c-4.1-5.85-7.13-12.55-11.74-17.92c-6.85-7.97-10.24-17.54-14.52-26.75c-1.44-3.1-2.68-6.3-4.02-9.46
		c-0.5,0.19-1.01,0.38-1.51,0.56c2.81,8.84,4.96,17.96,8.6,26.44c3.63,8.45,8.74,16.27,13.2,24.36c-0.39,0.29-0.78,0.57-1.17,0.86
		c-5.13-5.48-10.6-10.68-15.3-16.49c-8.4-10.38-15.37-21.94-25.82-30.6c-1.56-1.3-2.82-2.97-4.21-4.47
		c1.07,3.61,2.61,6.73,4.65,9.47c11.47,15.38,23.12,30.63,34.54,46.04c0.97,1.31,0.77,3.49,1.11,5.26c-1.68-0.55-3.4-1.04-5.04-1.7
		c-0.56-0.23-0.92-0.93-1.41-1.39c-8.51-7.97-17.04-15.92-25.52-23.92c-3.35-3.16-6.43-6.61-9.87-9.67
		c-4.64-4.12-9.47-8.03-14.31-11.91c-0.79-0.63-2.06-0.66-3.43-1.07c0.05,1.13-0.08,1.72,0.13,2.15
		c7.27,15.25,16.32,29.32,27.66,41.19c-1.32,1.17-3.14,2.03-3.34,3.18c-0.19,1.08,1.25,2.52,2.14,3.67
		c0.63,0.82,1.66,1.35,2.29,2.17c5.59,7.18,11.14,14.38,16.67,21.61c0.23,0.3,0.03,0.92,0.03,2.05c-1.56-1-2.7-1.61-3.69-2.39
		c-6.75-5.34-13.2-11.09-20.25-15.99c-14.13-9.83-28.36-19.45-38.09-34.16c-0.18-0.27-0.63-0.35-0.96-0.52
		c2.79,6,5.8,11.86,9.68,17.08c9.79,13.18,22.55,23.42,34.75,34.2c3.77,3.33,7.55,6.65,11.32,9.98c-6.17-1.6-11.26-4.49-14.92-9.51
		c-0.56-0.77-2.08-0.88-3.19-1.19c-2.52-0.7-5.34-0.82-7.53-2.08c-4.57-2.63-8.83-5.81-13.17-8.84
		c-10.1-7.02-20.2-14.03-30.22-21.17c-2.45-1.74-4.55-3.97-6.81-5.97c-0.32,0.27-0.64,0.55-0.96,0.82c0.79,1.4,1.3,3.08,2.41,4.14
		c5.14,4.91,10.19,9.97,15.76,14.37c6.68,5.27,14.34,9.01,20.57,15.22c5.15,5.13,9.94,12.18,18.84,11.96
		c0.23-0.01,0.53,0.18,0.69,0.37c5.22,6.18,14.36,9.37,14.57,19.38c-3.06-2.69-5.98-5.58-9.22-8.05c-4.41-3.37-8.96-6.56-13.62-9.58
		c-4.29-2.78-9.14-4.78-13.15-7.89c-7.32-5.68-14.15-11.98-21.31-17.87c-0.89-0.73-2.5-0.59-3.77-0.86
		c0.33,1.27,0.25,2.94,1.05,3.75c5.59,5.64,11.27,11.19,17.09,16.59c4.85,4.51,9.95,8.75,14.87,13.19c0.99,0.89,1.65,2.14,2.47,3.22
		c-0.29,0.42-0.59,0.84-0.88,1.26c-17.86-10.58-36.44-19.63-55.79-27.16c0.6,1.35,1.42,2.39,2.5,2.87
		c15.54,6.87,30.2,15.32,44.3,24.76c1.73,1.16,3.04,2.97,4.94,4.89c-3.18,1.47-5.5,2.53-8.25,3.8c3.32,2.14,6.54,4.21,9.76,6.29
		c-0.17,0.34-0.34,0.68-0.52,1.02c-25.07-9.28-47.94-23.67-73.3-32.5c0.95,1.55,2.1,2.79,3.49,3.63c7.13,4.3,14.36,8.44,21.48,12.75
		c9.94,6.02,19.84,12.12,29.71,18.26c0.98,0.61,1.68,1.67,2.52,2.51c-1.51,0.16-2.47-0.24-3.36-0.74c-6.5-3.69-13.13-6.9-20.96-5.86
		c-0.6,0.08-1.31,0.01-1.86-0.23c-7.75-3.41-15.48-6.85-23.21-10.29c-4.48-1.99-8.97-3.96-13.41-6.02c-2.2-1.02-4.5-1.24-5.35,1.23
		c-0.37,1.07,1.06,3.31,2.27,4.23c2.19,1.66,4.79,2.8,7.29,4.01c7.15,3.46,14.55,6.46,21.44,10.37
		c10.65,6.04,21.01,12.6,31.38,19.12c3.72,2.34,7.12,5.2,10.67,7.82c-0.18,0.35-0.36,0.7-0.55,1.05c-1.61-0.38-3.36-0.47-4.82-1.18
		c-7.5-3.62-14.93-7.38-22.38-11.11c-12.29-6.17-24.55-12.4-36.88-18.5c-1.4-0.69-3.12-0.72-4.69-1.05
		c-0.34,0.49-0.67,0.97-1.01,1.46c0.74,0.3,1.52,0.55,2.23,0.91c4.25,2.16,8.52,4.29,12.72,6.55c9.69,5.21,19.8,9.79,28.87,15.92
		c8.96,6.05,18.22,10.6,28.72,12.99c2.2,0.5,4.06,2.55,6.55,4.21c-4.81,0-8.55,0.17-12.26-0.09c-1.32-0.09-2.63-1.11-3.86-1.85
		c-5.63-3.43-11.15-7.04-16.87-10.3c-1.55-0.88-3.68-0.77-5.54-1.11c-0.12,0.43-0.24,0.86-0.36,1.29c4.47,2.94,8.83,6.07,13.46,8.73
		c2.51,1.44,4.88,2.46,4.77,5.97c-0.02,0.75,1.21,1.62,1.98,2.31c2.25,2.03,4.56,4,6.85,5.99c-0.32,0.52-0.65,1.05-0.97,1.57
		c-2.97-1.38-6.1-2.48-8.86-4.19c-4.03-2.51-7.48-6.12-11.72-8.1c-9.22-4.3-18.79-7.85-28.21-11.74c-2.2-0.91-4.41-1.82-6.54-2.88
		c-7.81-3.91-15.56-7.94-23.4-11.79c-1.04-0.51-2.47-0.25-3.71-0.35c-0.11,0.36-0.22,0.72-0.32,1.08c1.16,1.02,2.18,2.28,3.5,3
		c8.01,4.39,16,8.83,24.15,12.93c11.82,5.96,23.89,11.43,35.61,17.58c3.66,1.92,7.69,4.2,9.38,9.49c-1.51,0-2.77,0.37-3.63-0.06
		c-5.05-2.55-10.03-5.24-14.98-7.96c-4.52-2.49-8.84-5.41-13.52-7.51c-2.69-1.21-5.93-1.17-8.92-1.69c-0.1,0.37-0.19,0.74-0.29,1.11
		c12.22,3.63,23.37,9.17,33.17,18.44c-1.22-0.42-1.82-0.61-2.42-0.83c-12.79-4.66-25.59-9.3-38.37-13.99
		c-7.31-2.68-14.66-5.29-21.87-8.24c-4.39-1.8-8.53-4.21-12.79-6.35c-0.28,0.44-0.56,0.88-0.83,1.32c2.47,2.12,4.66,4.78,7.47,6.25
		c10.53,5.52,21.27,10.64,31.91,15.94c4.81,2.4,9.58,4.88,14.37,7.32c-0.17,0.36-0.34,0.71-0.51,1.07
		c-1.26-0.27-2.58-0.39-3.78-0.82c-13.55-4.92-27.06-9.94-40.64-14.79c-1.91-0.68-4.17-1.03-6.14-0.72
		c-2.24,0.35-3.4,2.16-0.99,3.81c2.08,1.43,4.55,2.41,6.97,3.19c3.99,1.29,8.26,1.83,12.08,3.46c8.15,3.49,16.04,7.58,24.12,11.23
		c7.11,3.21,14.36,6.11,21.51,9.23c3.87,1.69,7.69,3.49,11.47,5.37c2.43,1.21,4.74,2.64,7.1,3.98c-2.99-0.04-5.6-1.09-8.3-1.76
		c-20.45-5.04-38.92-14.36-56.52-25.68c-2.21-1.42-4.71-2.44-7.19-3.35c-0.75-0.28-1.87,0.46-2.82,0.73
		c0.38,1.01,0.46,2.41,1.19,2.95c2.23,1.64,5.11,2.54,7.01,4.46c7.4,7.43,16.72,11.55,25.96,15.87
		c10.46,4.88,20.94,9.72,31.41,14.58c-0.19,0.44-0.37,0.87-0.56,1.31c-4.75-1.99-9.5-3.99-14.25-5.98
		c-0.16,0.37-0.32,0.75-0.48,1.12c4.72,2.48,9.45,4.96,14.17,7.44c0.05,0.38,0.1,0.75,0.15,1.13c-2.01,0.52-4,1.47-6.02,1.51
		c-17.38,0.37-34.76,0.38-52.13,0.95c-6.04,0.2-11.77-0.13-17.53-2.07c-2.39-0.8-5.23-0.71-7.78-0.36
		c-1.27,0.18-2.33,1.86-3.48,2.86c1.12,0.94,2.1,2.33,3.38,2.72c2.38,0.73,4.96,0.73,7.4,1.28c5.93,1.35,11.83,2.81,17.73,4.31
		c3.18,0.81,6.31,1.82,10.04,2.9c-4.82,3.04-8.98,2.85-13.45,1.89c-6.59-1.42-13.29-2.42-19.97-3.36c-1.09-0.15-2.35,0.94-3.53,1.46
		c0.9,0.94,1.74,1.95,2.73,2.78c0.47,0.39,1.24,0.46,1.89,0.57c8.87,1.44,17.77,2.73,26.61,4.32c5.54,0.99,11.01,2.4,16.51,3.63
		c-6.93,0.41-13.67,0.28-20.4,0.47c-2.99,0.08-6.1,0.38-8.93,1.28c-8.39,2.7-16.68,5.72-24.98,8.69c-1.25,0.45-2.37,1.25-3.55,1.88
		c0.1,0.54,0.21,1.07,0.31,1.61c25.27-1.33,50.54-2.66,75.81-3.98c0.09,0.44,0.17,0.88,0.26,1.32c-1.11,0.4-2.2,0.98-3.35,1.16
		c-4.96,0.78-9.93,1.73-14.93,2.08c-16.64,1.17-33.31,2.1-49.96,3.16c-1.97,0.13-3.99,0.3-5.87,0.84c-0.93,0.27-1.62,1.41-2.41,2.16
		c0.94,0.79,1.82,2.17,2.83,2.27c3.79,0.39,7.61,0.45,11.42,0.47c9.56,0.05,19.13,0.18,28.69-0.04c10.86-0.25,21.71-0.97,32.57-1.19
		c2.71-0.05,5.44,1.03,8.16,1.6c-0.08,0.47-0.16,0.94-0.24,1.41c-0.74,0.14-1.47,0.37-2.21,0.39c-11.67,0.31-23.34,0.6-35.01,0.88
		c-10.73,0.26-21.46,0.46-32.19,0.83c-1.08,0.04-2.12,1.02-3.19,1.56c1,0.58,2,1.65,3.01,1.66c17.07,0.1,34.18-0.57,51.1,2.53
		c1.4,0.26,2.66,1.32,3.99,2.01c-1.21,1.34-2.26,2.91-3.69,3.96c-0.97,0.71-2.47,0.69-3.73,0.99c0.06,0.29,0.12,0.58,0.18,0.87
		c13.07,0,26.14,0,38.1,0c-28.15,12.02-58.65,19.8-90.6,23.56c1.95,4.59,5.32,4.41,8.15,4.3c9.52-0.38,19.03-1.07,28.53-1.76
		c3.08-0.22,5.66,0.08,7.11,3.77c-1.95,0.69-3.53,1.29-5.15,1.8c-11.22,3.55-22.46,7.02-33.64,10.69c-1.77,0.58-3.26,2.05-5.29,3.39
		c1.24,0.75,1.55,1.05,1.9,1.12c0.64,0.13,1.33,0.26,1.97,0.17c10.47-1.38,21.18,0,31.5-3.39c6.66-2.19,13.65-1.47,20.5-0.91
		c-6.56,2.16-13.13,4.03-19.66,6c-6.71,2.02-13.39,4.12-20.07,6.23c-4.41,1.39-8.85,2.71-13.12,4.43c-0.87,0.35-1.08,2.37-1.59,3.62
		c1.18,0.07,2.47,0.5,3.52,0.16c6.18-1.99,12.18-4.67,18.47-6.18c22.72-5.46,44.39-14.06,66.4-21.65c1.8-0.62,3.81-0.59,5.73-0.87
		c0.16,0.42,0.32,0.84,0.48,1.27c-0.8,0.94-1.42,2.15-2.42,2.77c-8.31,5.17-16.45,10.67-25.09,15.23
		c-17.35,9.17-34.91,17.95-53.89,23.43c-1.77,0.51-3.33,1.77-5.43,2.93c5.72,2.18,17.85,1.19,23.79-2.32
		c11.1-6.57,23.37-9.2,35.79-11.35c3.58-0.62,7.36-0.1,11.28-0.1c-4.84,1.59-9.37,3.08-13.89,4.56c0.17,0.56,0.34,1.12,0.5,1.68
		c2.36-0.7,4.7-1.44,7.07-2.09c7.96-2.18,15.34-6.71,23.99-5.99c1.1,0.09,2.34,0.83,3.09,1.66c0.33,0.36-0.12,2.12-0.71,2.53
		c-10.3,7.19-20.18,15.2-31.17,21.14c-13.74,7.43-27.72,14.36-40.64,23.2c-1.18,0.81-1.82,2.4-2.71,3.64
		c1.66,0.21,3.58,1.07,4.95,0.54c8.64-3.35,17.11-7.17,25.76-10.5c3.93-1.51,8.14-2.28,12.22-3.39c0.29,0.55,0.58,1.1,0.87,1.66
		c-1.65,1.46-3.09,3.33-4.99,4.32c-11.77,6.11-22.59,13.33-30.05,24.64c-0.94,1.42-1.32,3.2-1.96,4.81
		c0.41,0.18,0.83,0.37,1.24,0.55c0.86-0.95,1.67-1.94,2.59-2.83c3.23-3.13,6.42-6.29,9.79-9.26c0.69-0.61,2.58-0.95,3.09-0.5
		c4.31,3.87,7.77,1.59,11.26-1.22c7.49-6.04,14.4-12.86,23.62-16.49c5.44-2.14,10.69-4.78,16.03-7.19c0.14,0.29,0.27,0.59,0.41,0.88
		c-6.01,3.57-12.15,6.93-18,10.76c-5.75,3.76-11.7,7.49-15.05,15c7.45-1.48,12.6-5.76,18.21-9.03c5.84-3.4,11.51-7.09,17.18-10.77
		c5.34-3.46,10.58-7.07,15.86-10.61c0.31,0.43,0.63,0.85,0.94,1.28c-1.19,1.01-2.33,2.11-3.59,3.01c-11.2,8-22.18,16.37-33.74,23.82
		c-8.75,5.64-18.24,10.13-27.45,15.05c-2.82,1.5-4.24,3.42-2.93,7.15c9.11-2.64,17.18-7.24,24.94-12.13
		c7.86-4.95,15.04-10.96,23.31-17.09c-12.75,14.89-26.54,26.97-42.74,36.04c2.4,3.84,2.71,3.68,6.08,1.57
		c10.76-6.74,21.64-13.3,32.5-19.88c0.75-0.45,1.71-0.55,2.58-0.81c0.21,0.37,0.42,0.73,0.63,1.1c-4.32,3.63-8.68,7.22-12.95,10.91
		c-7.6,6.55-14.74,13.58-23.57,18.73c-3.9,2.27-6.47,6.81-9.65,10.31c0.32,0.36,0.65,0.72,0.97,1.08
		c25.24-16.29,52.67-28.08,80.45-39.53c-3.51,4.8-7.29,9.3-11.23,13.66c-6.83,7.57-14.26,14.65-20.48,22.68
		c-6.26,8.08-15.09,13.96-19.61,23.48c-1.07,2.26-2.95,4.13-4.45,6.19c0.29,0.28,0.59,0.56,0.88,0.84c1.12-0.96,2.25-1.89,3.35-2.87
		c7.37-6.6,13.97-13.99,22.84-18.93c15.91-8.85,30.6-19.53,44.4-31.42c1.3-1.12,3.07-1.71,4.63-2.55c0.22,0.38,0.44,0.76,0.66,1.13
		c-9.4,13-22.76,22.01-34,33.2c15.64-7.63,27.74-20.2,42.3-30.11c-0.16,0.95-0.08,1.59-0.36,1.9c-1.93,2.15-4.05,4.14-5.9,6.35
		c-9.39,11.21-20.14,21.01-31.68,29.89c-10.9,8.39-22.18,16.28-33.26,24.42c-0.49,0.36-0.76,1.02-1.54,2.11
		c28.88-13.67,52.62-33.81,78.56-50.75c-0.01,4.71-3.35,8.56-8.74,12.36c-9,6.35-18.43,12.36-24.46,22.9
		c1.09-0.61,1.74-0.91,2.32-1.31c7.23-4.88,14.43-9.83,21.7-14.66c6.7-4.45,14.03-8.11,18.41-15.36c1.46-2.42,3.23-4.66,4.83-6.93
		c1.37,2.07,2.58,3.89,3.59,5.41c-2.49,3.37-4.84,6.86-7.51,10.09c-1.74,2.11-1.51,3.52,0.76,4.74c3.09,1.66,2.78,3.79,1,6.21
		c-2.19,2.98-4.48,5.91-6.52,8.99c-9.48,14.34-18.92,28.72-28.29,43.13c-0.64,0.98-0.64,2.39-0.94,3.6c0.4,0.17,0.8,0.34,1.2,0.5
		c12.48-18.27,23.89-37.44,41.1-51.79c0.32,0.24,0.63,0.47,0.95,0.71c-9.77,15.46-19.54,30.93-29.32,46.39
		c0.31,0.2,0.62,0.4,0.92,0.6c4.74-6.13,9.42-12.31,14.25-18.37c7.41-9.3,14.07-19.24,23.71-26.62c4.48-3.43,8.43-7.56,12.09-10.89
		c-0.02,4.23-0.28,3.99-3.13,7.15c-5.13,5.68-10.31,11.4-14.74,17.61c-5.68,7.96-10.65,16.41-15.9,24.67
		c-1.7,2.67-3.31,5.4-4.96,8.1c0.09,0.03,0.19,0.07,0.28,0.1c14.37-17.54,28.74-35.07,43.38-52.93c0.38,0.9,0.72,1.34,0.74,1.8
		c0.74,15.99-0.2,31.76-5.29,47.15c-4.03,12.19-7.58,24.54-11.33,36.83c-1.1,3.59-2.16,7.19-3.24,10.78c0.27,0.1,0.54,0.2,0.81,0.29
		c1.07-2.16,2.14-4.32,3.63-7.32c0.38,1.74,0.55,2.5,0.74,3.36c5.02-11.21,9.66-22.32,14.93-33.13
		c5.95-12.2,11.86-24.47,20.02-35.43c1.01-1.36,1.89-2.81,3.12-4.65c1.37,2.06,2.03,2.75,2.34,3.56c1.21,3.19,2.16,5.75,6.77,3.72
		c3.54-1.56,5.19,0.28,5.13,4.24c-0.04,2.95-0.01,5.89-0.01,8.84c0.45,0.04,0.91,0.08,1.36,0.12c1.96-5.01,3.92-10.03,5.88-15.04
		c0.37,0.15,0.74,0.29,1.1,0.44c-1.71,11.78-6.99,22.85-7.78,34.82c0.33,0.09,0.66,0.19,0.99,0.28c1.63-4.93,3.26-9.86,4.88-14.79
		c0.51,0.7,0.6,1.24,0.5,1.74c-3.17,15.28-6.41,30.54-9.54,45.82c-1.99,9.72-3.86,19.47-5.71,29.22
		c-1.27,6.66,0.24,13.06,2.24,19.51c2.22-8.33,4.3-16.67,5.24-25.12c0.84-7.53-0.11-15.26,3.49-22.37c0.83-1.64,1.38-3.43,2.07-5.15
		c0.42,0.06,0.84,0.13,1.26,0.19c-3.37,9.62-2.16,18.84,1.48,28.37c4.68-21.55,9.23-42.51,13.78-63.47
		c0.33,0.07,0.66,0.14,0.99,0.21c-1.61,9.1-3.38,18.17-4.78,27.3c-1.52,9.92-2.9,19.88-3.89,29.86c-0.37,3.76,0.56,7.65,0.81,11.48
		c0.55,8.73,0.92,17.48,1.65,26.2c0.19,2.3,1.43,4.52,2.19,6.78c0.61-0.07,1.22-0.13,1.83-0.2c-1.59-23.7-2.69-47.35,5.62-70.14
		c-0.37,4.16-0.75,8.31-1.12,12.47c0.4,0.06,0.81,0.13,1.21,0.19c2.93-14.86,5.85-29.72,8.78-44.58c0.14,0.03,0.28,0.05,0.42,0.08
		c0,4.07,0,8.13,0,12.66c1.07-0.59,1.79-0.73,1.92-1.09c1.48-4.17,2.87-8.37,4.53-13.31c-0.99,11.65-1.91,22.55-2.84,33.44
		c0.41,0.19,0.82,0.38,1.23,0.57c0.22-0.84,0.45-1.67,0.67-2.51c0.39,0.25,0.78,0.5,1.17,0.74c-0.23,4.75-0.44,9.49-0.7,14.24
		c-0.37,7.01-0.82,14.03-1.12,21.04c-0.04,1.05,0.57,2.14,0.92,3.33c3.73-26.9,7.39-53.36,11.06-79.82
		c0.35,0.02,0.69,0.04,1.04,0.06c0,14.92,0,29.83,0,44.75c1.79-4.31,3.01-8.62,3.76-13.02c0.74-4.3,1.01-8.68,1.49-13.02
		c0.47-4.26,0.94-8.52,1.41-12.78c0.25,38.9-3.86,77.74,1.4,116.56c0.64-1.85,0.93-3.73,0.84-5.61c-0.43-9.75-1.13-19.48-1.39-29.23
		c-0.19-7.01,0.02-14.04,0.33-21.04c0.41-9.23,1.06-18.45,1.73-27.67c0.09-1.22,0.95-2.39,1.45-3.58c0.52,0.09,1.04,0.18,1.57,0.27
		c0,16.96,0,33.93,0,50.89c0.5,0,1-0.01,1.5-0.01c0.76-18.65,1.53-37.31,2.29-55.96c0.65,0,1.31-0.01,1.96-0.01
		c0.86,18.89,1.71,37.78,2.57,56.67c0.56,0,1.12,0,1.67-0.01c0.88-21.56,1.76-43.13,2.64-64.69c0.12,0.02,0.23,0.05,0.35,0.07
		c0.69,7.99,1.38,15.99,2.07,23.98c0.54-0.02,1.08-0.05,1.62-0.07c0-6.97,0-13.95,0-20.92c0.31-0.01,0.62-0.01,0.92-0.02
		c0.61,7.14,1.23,14.28,1.84,21.42c0.61-0.02,1.23-0.05,1.84-0.07c0-15.91,0-31.83,0-47.74c0.51-0.01,1.03-0.03,1.54-0.04
		c1.14,12.74,2.28,25.48,3.43,38.22c0.29-0.01,0.58-0.03,0.87-0.04c0-6.53,0-13.06,0-19.59c0.96,1.47,1.26,2.99,1.42,4.52
		c1.11,10.4,1.84,20.86,3.35,31.21c2.12,14.52,5.14,28.91,7.16,43.44c1.31,9.43,1.49,19.01,2.26,28.51c0.11,1.32,0.74,2.6,1.13,3.89
		c0.48-0.1,0.97-0.19,1.45-0.29c0-4.73-0.09-9.46,0.02-14.18c0.2-9.25,0.2-18.53,0.86-27.75c0.68-9.49,2.44-18.94-1.49-28.15
		c-0.2-0.47-0.13-1.05-0.17-1.58c-0.78-9.24-1.64-18.47-2.31-27.72c-0.24-3.36-0.04-6.75-0.04-10.13
		c1.54,10.14,2.68,20.27,3.98,30.37c0.54,4.2,1.36,8.37,2.26,12.51c0.17,0.78,1.33,1.33,2.04,1.99c0.64-0.73,1.5-1.38,1.84-2.23
		c0.32-0.81,0.2-1.84,0.1-2.76c-1.23-10.93-2.51-21.85-3.75-32.77c-0.7-6.16-1.34-12.33-2.01-18.5c2.76,9.28,4.98,18.62,7.36,27.92
		c2.37,9.25,4.89,18.46,7.35,27.69c0.4-0.09,0.8-0.19,1.2-0.28c-0.73-7.01-1.45-14.01-2.18-21.02c0.22-0.03,0.44-0.06,0.66-0.09
		c1.62,7.49,3.23,14.98,4.85,22.46c0.66-0.13,1.32-0.26,1.98-0.39c-3.1-19.78-6.19-39.57-9.29-59.35c1.95,4.76,3.23,9.61,4.3,14.52
		c3.39,15.52,9.44,30.5,8.6,46.87c-0.39,7.65,0.36,15.36,0.75,23.04c0.15,2.86,0.76,5.7,1.15,8.54c3.66-27.09,2.16-53.84-4.14-80.36
		c0.34-0.01,0.68-0.03,1.02-0.04c0.62,0.83,1.23,1.65,1.85,2.48c0.26-0.1,0.51-0.2,0.77-0.3c-0.53-4.81-1.06-9.63-1.59-14.44
		c0.2-0.02,0.39-0.03,0.59-0.05c3,11.39,6,22.78,8.99,34.17c0.45-0.1,0.9-0.2,1.35-0.31c-3.25-15.28-6.5-30.56-9.75-45.83
		c0.41-0.09,0.83-0.18,1.24-0.27c4.99,15.84,9.99,31.68,14.98,47.52c0.31-0.08,0.62-0.15,0.93-0.23c0.24-1.87,0.47-3.75,0.71-5.62
		c0.46-0.14,0.91-0.27,1.37-0.41c4.91,7.82,8.24,16.54,12.13,24.94c0.45-0.18,0.89-0.36,1.34-0.53
		c-3.72-13.81-7.44-27.62-11.17-41.42c0.32-0.1,0.64-0.19,0.95-0.29c1.05,3.08,2.11,6.16,3.13,9.25
		c3.61,10.82,7.18,21.65,10.81,32.46c1.76,5.24,3.54,10.47,5.43,15.66c1.16,3.18,3.85,3.87,7.2,4.15c-0.8-3.01-1.74-5.58-2.14-8.23
		c-0.79-5.29-0.67-10.79-2.03-15.91c-2.38-8.96-5.62-17.69-8.44-26.54c-1.16-3.64-2.17-7.33-3.25-11c0.27-0.08,0.54-0.16,0.82-0.24
		c3.33,8.25,6.67,16.5,10,24.75c0.35-0.15,0.7-0.29,1.05-0.44c-3.48-10.89-6.96-21.78-10.44-32.67c0.28-0.09,0.56-0.17,0.84-0.26
		c2.39,5.32,4.77,10.65,7.16,15.97c0.36-0.14,0.71-0.29,1.07-0.43c-4.03-11.78-8.06-23.56-12.09-35.34c0.25-0.08,0.5-0.17,0.75-0.25
		c2.75,5.97,5.5,11.93,8.26,17.9c0.51-0.17,1.02-0.34,1.53-0.5c-0.15-2.86-0.3-5.72-0.45-8.58c0.17-0.05,0.34-0.1,0.52-0.16
		c8.37,18.91,16.73,37.82,25.1,56.73c0.42-0.18,0.83-0.36,1.25-0.54c-8.33-20.58-16.66-41.16-25-61.74
		c0.34-0.14,0.68-0.28,1.01-0.43c5.59,11.94,11.17,23.89,16.76,35.83c0.37-0.15,0.73-0.29,1.1-0.44c-0.97-3.38-1.94-6.75-2.91-10.13
		c0.48-0.19,0.96-0.39,1.44-0.58c6.93,12.71,13.87,25.42,20.8,38.13c0.35-0.18,0.7-0.36,1.04-0.54
		c-7.19-16.57-14.38-33.14-21.57-49.7c2.56,2.07,4.62,4.44,6.11,7.12c5.3,9.5,10.64,18.98,15.49,28.72
		c2.4,4.82,5.46,7.81,11.56,7.83c-6.45-15.3-12.82-30.41-19.19-45.51c0.21-0.09,0.41-0.19,0.62-0.28c4,6.62,8,13.24,12.01,19.85
		c0.35-0.18,0.69-0.37,1.04-0.55c-9.9-19.46-19.81-38.93-29.71-58.39c0.4-0.22,0.81-0.44,1.21-0.65c1.05,1.48,2.17,2.91,3.12,4.45
		c4.84,7.77,9.56,15.62,14.51,23.32c1.07,1.67,2.89,2.85,4.37,4.26c0.42-0.32,0.84-0.64,1.27-0.96c-2.08-5.01-4.17-10.02-6.25-15.03
		c0.21-0.11,0.41-0.22,0.62-0.32c4.42,6.15,8.84,12.29,13.27,18.44c0.42-0.19,0.84-0.38,1.27-0.57c-0.72-1.92-1.18-3.99-2.19-5.75
		c-4.71-8.15-9.67-16.16-14.31-24.35c-1.47-2.59-2.25-5.57-3.34-8.38c7.03,8.53,13.45,17.26,19.79,26.04
		c6.29,8.72,12.51,17.5,18.76,26.26c0.21-0.13,0.42-0.26,0.64-0.39c-6.41-13.01-12.82-26.02-19.23-39.03
		c0.32-0.24,0.65-0.48,0.97-0.71c11.88,13.84,23.75,27.69,34.21,39.87c-10.64-18.49-22.36-38.85-34.08-59.21
		c0.65-0.44,1.3-0.88,1.96-1.32c5.41,7.16,10.53,14.57,16.31,21.42c5.97,7.09,12.51,13.71,18.93,20.41
		c6.13,6.4,11.06,14.03,18.87,18.82c-16.58-21.2-34.53-41.28-48.79-64.23c2.35,2.04,4.58,4.21,6.44,6.67
		c9.44,12.47,18.08,25.55,29.64,36.35c5.38,5.02,9.97,10.89,14.89,16.4c1.06,1.18,1.78,2.76,3.03,3.65
		c1.01,0.72,2.57,0.68,3.89,0.97c0.1-1.3,0.66-2.79,0.22-3.86c-0.91-2.18-2.22-4.24-3.61-6.17c-13.74-19.17-27.57-38.28-41.26-57.49
		c-1.28-1.8-1.75-4.19-2.97-7.24c7.4,2.55,8.31,10.92,15.83,11.17c-2.79-3.35-5.58-6.7-8.38-10.04
		c7.83,7.58,15.14,15.65,22.96,23.18c7.84,7.55,16.19,14.56,24.31,21.81c-6.08-7.56-12.49-14.87-19.18-21.92
		c-4.36-4.6-9.36-8.6-13.65-13.26c-3.42-3.71-6.2-8.01-9.26-12.05c0.31-0.26,0.61-0.52,0.92-0.77c5.28,4.99,10.66,9.89,15.82,14.99
		c9.88,9.77,19.63,19.68,29.48,29.48c0.93,0.93,2.17,1.56,3.27,2.33c0.26-0.34,0.52-0.68,0.78-1.02
		c-7.46-10.23-14.98-20.38-24.65-28.79c-4.1-3.56-7.85-7.52-11.69-11.37c-0.41-0.41-0.36-1.29-0.53-1.95
		c0.27-0.22,0.54-0.43,0.81-0.65c3.48,3.01,6.96,6.01,10.82,9.34c-9.25-9.76-18.12-19.12-27-28.48c0.14-0.15,0.28-0.3,0.42-0.44
		c12.75,10.35,25.5,20.7,38.25,31.05c0.4-0.44,0.81-0.89,1.21-1.33c-8.05-7.59-16.1-15.19-24.15-22.78
		c0.27-0.29,0.54-0.57,0.81-0.86c8.02,7.1,16.17,14.05,24.03,21.33c8.26,7.64,16.24,15.58,24.33,23.41c1.76,1.7,3.21,1.51,5.1-1.46
		c-16.03-16.33-32.2-32.8-48.36-49.27c2.3,0.55,4.42,1.4,6.13,2.76c11.3,8.97,22.44,18.12,33.78,27.04
		c4.29,3.38,8.95,6.29,13.44,9.41c0.31-0.41,0.62-0.83,0.93-1.24c-18.25-15.11-36.5-30.21-54.74-45.32
		c0.19-0.24,0.38-0.48,0.57-0.71c6.8,4.88,13.6,9.76,20.4,14.64c0.29-0.31,0.59-0.62,0.88-0.92c-2.49-2.22-4.98-4.45-7.47-6.67
		c0.25-0.25,0.5-0.5,0.75-0.75c11.28,7.9,22.57,15.79,33.85,23.69c0.24-0.33,0.48-0.67,0.72-1c-13.46-10.38-26.91-20.77-40.37-31.15
		c0.23-0.28,0.47-0.56,0.7-0.84c0.96,0.22,1.92,0.44,2.88,0.66c0.11-0.28,0.23-0.55,0.34-0.83c-4.63-3.8-9.26-7.6-13.88-11.4
		c0.16-0.22,0.32-0.44,0.48-0.65c6.02,3.85,12.04,7.7,18.05,11.55c0.19-0.23,0.38-0.46,0.58-0.69c-0.83-1.13-1.66-2.27-2.49-3.4
		c0.19-0.22,0.37-0.43,0.56-0.65c16.47,9.72,32.95,19.43,49.42,29.15c0.16-0.25,0.32-0.51,0.48-0.76
		c-11.26-7.97-22.52-15.94-33.78-23.91c0.22-0.32,0.44-0.65,0.65-0.97c9.98,6.04,19.96,12.07,29.94,18.11
		c0.18-0.29,0.36-0.58,0.53-0.87c-5.71-5.55-13.43-8.77-18.72-14.81c0.3-0.49,0.6-0.97,0.9-1.46c6.2,3.11,12.4,6.21,18.61,9.32
		c0.17-0.31,0.34-0.63,0.51-0.94c-10.2-6.84-20.4-13.67-30.59-20.51c0.18-0.28,0.37-0.56,0.55-0.84c3.62,1.53,7.36,2.85,10.85,4.63
		c13.5,6.89,26.92,13.94,40.4,20.87c1,0.52,2.27,0.49,3.38,0.85c1.81,0.58,3.75,0.99,5.34,1.95c3.38,2.05,6.57,4.41,9.84,6.65
		c0.4-0.47,0.79-0.95,1.18-1.42c-2.28-2.19-4.4-4.56-6.86-6.52c-5.96-4.76-13.35-6.97-19.66-11.5
		c-11.03-7.92-23.39-13.98-35.18-20.86c-7.5-4.37-14.96-8.8-22.44-13.2c0.22-0.42,0.45-0.85,0.67-1.27
		c27.79,13.91,55.59,27.81,83.38,41.72c0.26-0.36,0.51-0.71,0.77-1.07c-2.59-2.28-4.88-5.08-7.82-6.75
		c-15.67-8.88-31.74-17.07-47.2-26.29c-11.67-6.96-24.87-11.99-33.79-24.24c14.99,5.47,28.05,14.08,43.48,16.14
		c-5.55-3.93-11.23-7.54-16.96-11.07c-5.61-3.45-11.27-6.82-16.9-10.22c0.19-0.36,0.38-0.73,0.56-1.09
		c25.72,10.3,51.02,21.74,77.92,28.83c-9.56-4.86-19.29-9.26-29.05-13.62c-13.19-5.89-26.42-11.68-39.56-17.68
		c-1.94-0.89-3.45-2.7-5.16-4.08c0.23-0.38,0.45-0.75,0.68-1.13c1.38,0.19,2.83,0.19,4.13,0.61c19.31,6.17,38.6,12.41,57.91,18.57
		c1.23,0.39,2.59,0.36,3.88,0.53c0.2-0.42,0.39-0.85,0.59-1.27c-1.33-1.07-2.51-2.53-4.03-3.14c-9.58-3.88-19.24-7.59-28.87-11.33
		c-6.68-2.6-13.38-5.16-20.07-7.74c0.12-0.38,0.25-0.76,0.37-1.14c7.49,1.89,15,3.71,22.48,5.67c15.1,3.96,30.18,8.03,45.3,11.92
		c1.36,0.35,2.96-0.24,4.45-0.4c-0.27-1.62-0.17-3.44-0.92-4.8c-0.58-1.06-2.13-1.79-3.4-2.24c-5.61-1.98-11.37-3.58-16.89-5.78
		c-2.9-1.15-5.44-3.24-8.14-4.9c0.22-0.44,0.45-0.88,0.67-1.32c10.57,2.53,20.09,8.91,31.55,8.82c-1.14-1.56-2.52-2.74-4.11-3.43
		c-5.55-2.39-11.15-4.66-16.77-6.88c-1.71-0.68-3.53-1.07-5.31-1.56c-13.91-3.79-27.83-7.55-41.72-11.38
		c-1.03-0.28-1.93-1.07-2.89-1.62c1.17-0.75,2.17-0.9,3.1-0.72c8.32,1.58,16.61,3.24,24.93,4.82c8.97,1.7,17.94,3.48,26.96,4.88
		c3.02,0.47,6.51,1.36,9.21-2.12c-21.84-4.26-44.01-6.87-64.87-14.93c1.09-0.12,2.12,0.09,3.15,0.25
		c8.76,1.34,17.12,5.65,26.45,2.91c2.97-0.87,6.44-0.69,9.56-0.22c8.75,1.31,17.44,3.08,26.17,4.54c1.85,0.31,3.79,0.04,5.68,0.04
		c0.01-0.48,0.02-0.97,0.03-1.45c-25.14-7.48-51.86-7.35-76.76-16.09c4.65,0.62,9.3,1.25,13.95,1.87c0.06-0.38,0.13-0.75,0.19-1.13
		c-2.2-0.69-4.35-1.67-6.6-1.99c-3.51-0.49-4.18-2.11-2.87-5.11c28.59,2.68,57.02,5.34,86.43,8.1c-28.46-7.67-57.16-7.92-84.8-14.35
		c11.17,0.2,22.25,0.94,33.33,1.68c11.22,0.76,22.44,1.61,33.67,2.24c2.43,0.14,4.91-0.51,7.37-0.8c-0.03-0.39-0.06-0.77-0.09-1.16
		c-3.96-0.76-7.92-1.52-11.88-2.28c0.05-0.39,0.1-0.79,0.15-1.18c5.13,0,10.27,0.12,15.39-0.08c1.34-0.05,2.64-1.09,3.95-1.67
		c-0.17-0.45-0.34-0.89-0.52-1.34c-14.66-0.64-29.32-1.28-43.98-1.92c0.01-0.45,0.03-0.89,0.05-1.34
		c15.04,0.49,29.77-4.72,45.03-2.18c-11.95-4.57-24.89-2.23-37.49-5.6c9.85-1.34,19.15-2.6,28.46-3.86
		c-0.02-0.71-0.03-1.42-0.05-2.13c-17.91-2.56-36.2-1.74-54.35-5c1.51-0.45,3.11-0.42,3.68-1.18c2.25-2.99,5.35-2.38,8.31-2.38
		c15.67-0.02,31.35,0.05,47.02-0.05c3.7-0.02,7.41-0.41,11.08-0.93c1.17-0.17,2.21-1.3,3.3-1.98
		C768.9,388.5,768.8,388.02,768.7,387.53z M192.03,547.44c-6.36,2.17-12.51,4.97-18.76,7.49c-0.12-0.11-0.23-0.22-0.35-0.34
		c2.46-1.46,4.79-3.24,7.4-4.34c15.36-6.46,30.79-12.78,46.21-19.09c1.55-0.63,3.89-2.23,4.43,0.7c0.2,1.1-1.74,3.4-3.15,3.87
		C215.95,539.79,203.91,543.39,192.03,547.44z M197.18,580.23c-0.42-0.36-0.83-0.72-1.25-1.08c1.01-1.3,1.84-2.83,3.07-3.87
		c12.5-10.48,25.07-20.88,37.61-31.31C225.65,558.61,212.65,570.82,197.18,580.23z M255.43,175.55c-2.42-2-4.57-4.35-6.69-6.69
		c-5.55-6.13-11.02-12.33-16.2-18.81c10.97,10.88,21.34,22.4,35.16,30.89C262.09,182.04,258.87,178.4,255.43,175.55z M313.57,623.01
		c-2.65-5.55,0.12-11.12,5.06-12.3C316.89,614.94,315.23,618.97,313.57,623.01z M369.87,66.89c1.76,4.94,3.83,9.79,5.15,14.84
		c1.33,5.08,2.05,10.34,2.72,15.55c0.6,4.62,0.76,9.29,1.12,13.94c-0.43,0.05-0.86,0.1-1.3,0.16c-1.1-6.18-2.23-12.36-3.3-18.55
		C372.77,84.19,371.33,75.53,369.87,66.89z M325.18,71.75c4.05,2.34,12.14,23.38,11.5,30.51C329.93,92.48,328.05,82.13,325.18,71.75
		z M577.89,595.98c3.79,6.18,7.58,12.35,11.52,18.77C584.59,612.17,577.12,601.13,577.89,595.98z" />
    <path d="M128.88,492.35c0.05,0.23,0.1,0.47,0.15,0.7c1.53-0.27,3.16-0.31,4.58-0.87c4.44-1.75,8.79-3.73,13.19-5.56
		c13.46-5.58,26.94-11.08,40.36-16.75c1.2-0.51,2-1.99,2.99-3.02c-1.45-0.12-2.9-0.28-4.35-0.34c-0.37-0.02-0.75,0.24-1.12,0.38
		c-7.64,2.91-15.18,6.09-22.93,8.67c-8.91,2.97-18.11,5.09-26.98,8.17c-8.24,2.87-16.23,6.48-24.27,9.88
		c-0.74,0.31-1.11,1.5-1.65,2.28c0.93,0.26,1.92,0.85,2.78,0.7c2.61-0.44,5.17-1.13,7.74-1.77
		C122.54,494.03,125.71,493.18,128.88,492.35z" />
    <path d="M91.96,295.8c14.45,8.03,30.01,13.11,46.02,17.04C122.97,306.31,108.29,298.88,91.96,295.8z" />
    <path d="M693.31,282.32c0.18,0.39,0.35,0.77,0.53,1.16c14.2-6.55,28.39-13.1,42.59-19.64c-0.18-0.41-0.37-0.82-0.55-1.23
		C720.43,266.41,706.87,274.36,693.31,282.32z" />
    <path d="M204.12,622.95c0.3,0.52,0.6,1.04,0.91,1.56c2.03-1.11,4.26-1.96,6.04-3.38c3.19-2.54,6.18-5.34,9.12-8.17
		c2.25-2.17,4.3-4.56,6.44-6.85c-0.35-0.34-0.7-0.68-1.05-1.01C217.45,609.85,209.06,614.28,204.12,622.95z" />
    <path d="M117.98,332.08c-8.34-2.81-16.2-5.45-24.69-8.31C94.71,327.93,112.6,333.51,117.98,332.08z" />
    <path d="M748.67,430.27c5.07,1.04,10.09,2.65,15.22,1.01C758.95,427.92,753.87,427.68,748.67,430.27z" />
  </g>
</svg>
