<svg version="1.1" id="Layer_1" xmlns="http://www.w3.org/2000/svg" xmlns:xlink="http://www.w3.org/1999/xlink" x="0px" y="0px" viewBox="0 0 783 768" style="enable-background:new 0 0 783 768;" xml:space="preserve">
  <g>
    <path d="M420.81,238.63c-1.48-23.2-2.96-46.4-4.44-69.6c5.32,17.44,6.97,35.47,9.81,53.42c0-7.52,0-15.05,0-22.57
			c0.52-0.07,1.04-0.15,1.56-0.22c0.78,3.6,1.56,7.19,2.34,10.79c0.1,0.02,0.21,0.04,0.31,0.06c0.4-6.37,0.79-12.73,1.19-19.1
			c0.58-0.08,1.17-0.16,1.75-0.25c1.89,5.34,3.63,10.75,4.02,16.55c0.4,5.88,0.69,11.77,1.05,18.16c2.38-17.71,4.69-34.95,7-52.18
			c0.5,0.02,1,0.04,1.49,0.06c3.49,6.85,3.3,14.31,3.2,21.79c-0.09,7.42-0.02,14.85,0.32,22.39c3.9-14.69,4.99-30.02,8.36-44.86
			c0.55,0.07,1.1,0.14,1.65,0.2c-1.65,18.76-3.3,37.52-4.95,56.28c4.86-24.73,8.74-49.56,12.81-74.36c0.47,0.04,0.94,0.07,1.4,0.11
			c0.35,2.38,0.95,4.76,0.99,7.15c0.05,2.71,0.85,4.52,3.6,5.36c0.74,0.23,1.81,1.16,1.82,1.78c0.07,5.5,0.23,11.03-0.24,16.49
			c-0.43,4.93-1.65,9.8-2.49,14.7c-1.99,11.55-4.04,23.09-5.89,34.66c-0.5,3.12-0.39,6.34,0.02,9.66c4.95-18.7,9.89-37.4,14.84-56.1
			c0.68,0.17,1.37,0.33,2.05,0.5c-3.82,21.22-9.72,42.01-14.01,63.39c6.39,1.02,2.88,6.57,4.41,10.25c4.41-3.74,5.51-9,7.82-13.54
			c4.07-7.99,7.52-16.36,12.22-23.95c4.27-6.89,9.85-12.96,14.91-19.35c0.42-0.52,1.29-0.68,1.96-1.01
			c0.33,0.22,0.66,0.43,0.99,0.65c-5.4,12.94-10.79,25.89-16.19,38.83c4.79-4.86,5.48-13.07,12.99-15.46
			c0.43,0.21,0.86,0.42,1.29,0.63c-2.3,6.13-4.59,12.25-6.89,18.38c0.39,0.18,0.78,0.37,1.17,0.55
			c6.74-10.6,13.48-21.19,20.22-31.79c0.49,0.28,0.98,0.56,1.47,0.84c-2.39,8.09-7.71,14.89-10.53,22.9
			c1.35-1.7,2.97-3.25,4.01-5.12c2.7-4.82,6.71-8.11,11.29-11.01c2.14-1.35,3.71-3.58,5.58-5.36c1.37-1.31,2.81-2.54,4.21-3.8
			c0.42,0.3,0.85,0.6,1.27,0.9c-3.19,7.11-6.38,14.23-9.57,21.34c0.31,0.21,0.61,0.42,0.92,0.63c1.03-0.36,2.06-0.72,4-1.41
			c-0.46,6.37-5.74,9.55-7.53,14.51c11.17-11.45,20.39-24.7,31.85-35.87c0.48,0.39,0.96,0.79,1.44,1.18
			c-9.76,12.91-19.52,25.82-29.29,38.73c0.21,0.25,0.42,0.5,0.62,0.75c1.76-1.36,3.7-2.53,5.25-4.1
			c8.07-8.17,16.02-16.45,24.06-24.65c1.09-1.11,2.43-1.96,3.65-2.94c0.35,0.28,0.71,0.55,1.06,0.83c-0.76,1.29-1.36,2.71-2.3,3.85
			c-6.82,8.33-13.79,16.55-20.54,24.93c-2.88,3.58-5.37,7.48-7.64,11.75c4.43-3.84,8.86-7.68,13.3-11.52
			c0.39,0.4,0.78,0.81,1.17,1.21c-5.19,8.3-13.33,14.08-19.4,21.68c15.55-12.75,29.48-27.42,45.81-39.31
			c-9.19,14.73-21.61,26.46-33.77,38.59c5.43-3.89,10.77-7.92,16.33-11.63c5.48-3.66,11.18-6.99,16.79-10.47
			c0.42,0.47,0.84,0.94,1.26,1.42c-2.29,2.6-4.57,5.2-6.86,7.8c0.11,0.16,0.23,0.32,0.34,0.48c6.29-4.15,12.57-8.29,18.86-12.44
			c0.38,0.42,0.77,0.84,1.15,1.26c-1.16,1.37-2.15,2.94-3.51,4.08c-5.71,4.79-11.54,9.44-17.32,14.16
			c-0.89,0.72-1.73,1.51-2.32,2.72c2.9-1.33,5.79-2.67,8.69-4c0.32,0.55,0.64,1.1,0.97,1.65c-8,6.13-16,12.25-24,18.38
			c0.26,0.42,0.52,0.84,0.78,1.25c14.13-7.86,28.25-15.73,42.38-23.59c0.32,0.38,0.64,0.76,0.96,1.14
			c-1.01,1.06-1.88,2.31-3.05,3.15c-7.33,5.22-14.76,10.29-22.08,15.53c-5.83,4.17-11.55,8.49-17.05,13.23
			c5.45-2.92,10.89-5.86,16.36-8.74c7.54-3.97,15.07-7.96,22.7-11.75c1.73-0.86,3.84-1.15,5.8-1.25c0.94-0.05,1.94,0.93,2.92,1.44
			c-0.6,0.81-1.02,1.92-1.81,2.4c-6.6,3.96-13.26,7.8-19.91,11.67c-1.49,0.87-3,1.71-4.33,2.89c6.37-1.17,11.65-5.55,18.38-5.72
			c-9.19,8.69-20.07,14.9-30.43,21.93c15.5-4.59,30.24-11.14,45.9-15.06c-12.96,12.87-30.8,16.05-46.11,24.36
			c4.61-1.51,9.22-3.01,13.82-4.52c7.86-2.58,15.71-5.19,23.6-7.69c0.95-0.3,2.08-0.04,3.13-0.04c0.12,0.39,0.24,0.77,0.36,1.16
			c-2.62,1.55-5.24,3.1-8.4,4.98c2.1,0.39,3.6,0.67,6.15,1.15c-4.96,4.73-11.12,4.65-16.34,8.12c7.26-0.41,13.94-3.26,21.32,0.44
			c-5.94,4.09-12.63,4.39-18.35,7.37c12.33-2.24,24.73-2.3,37.11-2.78c0.08,0.62,0.16,1.25,0.24,1.87
			c-17.02,4.85-34.57,7.5-51.82,11.7c13.91,0.46,27.98-1.71,41.68,1.7c0.04,0.57,0.07,1.14,0.11,1.71
			c-16.55,3.06-33.09,6.13-49.64,9.19c0.02,0.23,0.03,0.46,0.05,0.69c7-0.41,14.01-0.86,21.01-1.23c9.68-0.52,19.37-1.01,29.06-1.42
			c0.6-0.03,1.24,0.75,1.86,1.15c-0.43,0.5-0.77,1.16-1.31,1.44c-0.71,0.37-1.59,0.44-2.39,0.62c-12.37,2.8-24.8,5.06-37.55,5.01
			c-0.62,0-1.25,0.29-1.87,0.45c0.01,0.3,0.03,0.6,0.04,0.9c2.39,0,4.79-0.07,7.18,0.02c3.9,0.15,7.79,0.36,11.68,0.65
			c0.91,0.07,2.17,0.23,2.62,0.83c2.79,3.77,6.97,2.98,10.71,3.41c5.75,0.66,11.54,1.02,17.31,1.56c0.62,0.06,1.21,0.48,2.63,1.08
			c-6.99,3.95-14.02,1.56-20.6,3.1c2.51,0.48,5.04,0.86,7.51,1.51c0.97,0.26,1.79,1.13,2.67,1.72c-0.91,0.56-1.83,1.63-2.73,1.61
			c-6.26-0.17-12.51-0.77-18.77-0.84c-9.81-0.12-19.62,0.06-29.43,0.15c-0.55,0-1.1,0.3-1.66,0.73c14.58,2.75,29.51,3.22,43.97,6.43
			c-0.04,0.51-0.09,1.02-0.13,1.54c-5.26,0-10.52,0-15.77,0c6.48,2.68,13.62,2.57,19.91,5.99c-12.75,0.74-25.25-1.93-37.99-1.85
			c8.98,4.35,19.22,4.79,28.42,9.63c-1.44,0.58-2.89,1.16-4.83,1.94c9.22,2.71,17.95,5.28,26.68,7.85
			c-0.02,0.47-0.04,0.94-0.06,1.41c-1.34,0.14-2.76,0.62-4.02,0.37c-12.38-2.52-24.69-5.43-37.11-7.69
			c-9.73-1.77-19.59-2.81-29.41-4.12c-0.99-0.13-2.03,0.19-3.25,1.03c2.88,1.4,5.66,3.08,8.67,4.14
			c16.07,5.67,32.2,11.16,48.3,16.74c4.14,1.43,8.26,2.9,12.35,4.46c1.13,0.43,2.11,1.26,2.94,2.48
			c-11.31-1.3-21.97-5.08-32.87-7.82c-11.11-2.79-22.18-5.78-33.54-8.75c0.14,3.17-2.27,2.55-4.99,2.29
			c4.8,3.31,10.32,4.08,13.81,7.94c-0.21,0.44-0.42,0.89-0.63,1.33c-2.61-0.81-5.23-1.63-7.84-2.44c-0.1,0.18-0.2,0.36-0.29,0.53
			c4.52,2.55,9.04,5.1,13.55,7.65c-0.18,0.51-0.35,1.02-0.53,1.52c-2.14-0.32-4.27-0.65-6.75-1.03c0.86,1.26,1.63,2.39,2.4,3.53
			c-0.21,0.38-0.41,0.77-0.62,1.15c-3.17-1.09-6.33-2.18-9.74-3.36c0.31,1.25,0.55,2.19,1.03,4.07c-2.77-1.01-4.87-1.78-6.96-2.55
			c13.69,10.12,28.83,18.06,42.76,27.82c-0.21,0.44-0.43,0.88-0.64,1.32c-1.21-0.39-2.54-0.57-3.62-1.19
			c-11.6-6.65-23.17-13.37-34.75-20.07c-2.94-1.7-5.88-3.42-8.82-5.13c-0.23,0.27-0.46,0.55-0.68,0.82c2.57,2.2,5.01,4.57,7.72,6.58
			c7.42,5.5,14.97,10.82,22.42,16.27c1,0.73,1.73,1.83,2.23,3.18c-5.27-0.56-8.68-4.37-12.84-6.76c-4.27-2.45-8.4-5.14-12.99-7.19
			c7.78,6.05,15.56,12.1,23.34,18.14c-0.28,0.48-0.57,0.96-0.85,1.43c-1.28-0.5-2.67-0.84-3.83-1.54
			c-4.06-2.44-8.09-4.93-12.02-7.56c-1.87-1.25-3.38-1.81-4.6,1.25c-4.04-2.74-7.82-5.3-11.6-7.86c9.32,9.6,20.03,17.76,29.46,27.24
			c-0.38,0.44-0.75,0.89-1.13,1.33c-9.99-6.64-18.86-14.82-28.78-21.68c5.56,5.53,11.11,11.06,16.67,16.59
			c-0.35,0.41-0.7,0.82-1.05,1.23c-9.35-3.9-19.15-7-26.07-15.22c9.77,12.23,19.54,24.47,29.31,36.7c-0.27,0.33-0.54,0.67-0.81,1
			c-0.72-0.04-1.62,0.18-2.14-0.17c-3.73-2.47-7.76-4.65-10.98-7.69c-9.19-8.69-18.03-17.75-27.38-26.36
			c13.14,18.79,29.31,35.48,39.01,56.56c-0.22,0.26-0.45,0.53-0.67,0.79c-0.89-0.5-2.01-0.79-2.63-1.52
			c-8.71-10.3-17.34-20.67-26-31c-1.19-1.42-1.89-3.55-4.73-2.03c-0.64,0.34-3.01-1.85-4.13-3.24c-5.43-6.72-10.7-13.57-16.04-20.36
			c-0.69-0.87-1.5-1.64-2.63-2.18c11.47,19.53,23.95,38.41,35.57,57.79c-0.55,0.38-1.1,0.75-1.66,1.13
			c-13.02-16.83-23.82-35.35-38.32-51.33c0.33,1.25,0.48,2.59,1.02,3.75c9.04,19.15,18.15,38.27,27.2,57.42
			c0.74,1.57,1.14,3.31,0.96,5.29c-12.72-19.05-22.61-39.64-34.43-59.1c-0.34,0.1-0.67,0.19-1.01,0.29c0.48,1.77,1,3.52,1.44,5.3
			c0.45,1.84,0.64,3.75,1.26,5.53c5.84,16.76,11.74,33.49,17.63,50.23c0.9,2.57,1.93,5.09,2.73,7.69c0.27,0.87,0.02,1.9,0,2.86
			c-0.87-0.59-2.11-0.98-2.56-1.81c-6.02-11.12-11.93-22.3-17.87-33.48c-0.55-1.04-1.05-2.1-1.95-3.06
			c4.75,14.31,8.96,28.74,10.49,43.75c-0.41,0.2-0.82,0.39-1.22,0.59c-0.71-1.15-1.64-2.22-2.1-3.46
			c-5.07-13.51-10.03-27.06-15.08-40.57c-2.09-5.59-4.32-11.14-6.49-16.7c-0.44,0.14-0.89,0.27-1.33,0.41
			c4.09,16.11,8.18,32.22,12.26,48.34c-0.47,0.16-0.93,0.32-1.4,0.48c-3.53-3.57-3.55-9.03-6.76-12.96
			c0.47,3.93,0.94,7.86,1.41,11.79c-0.44,0.13-0.87,0.26-1.31,0.39c-0.62-1.1-1.5-2.12-1.82-3.3c-3.21-11.89-6.33-23.8-9.48-35.71
			c-0.51-1.94-1-3.88-2.3-5.68c2.07,11.11,4.14,22.22,6.22,33.33c-0.6,0.14-1.19,0.28-1.79,0.41c-4.12-10.08-5.1-21.1-8.4-31.43
			c-1.38,2.51-1.22,6.36,0.45,17.8c0.89,6.08,1.5,12.2,2.26,18.3c0.74,6.01,1.51,12.02,2.27,18.03c-0.53,0.16-1.05,0.31-1.58,0.47
			c-0.49-1.1-1.21-2.16-1.42-3.32c-2.09-11.13-4.1-22.27-6.96-33.36c1.15,12.52,2.3,25.03,3.45,37.55
			c-0.65,0.07-1.31,0.15-1.96,0.22c-3.76-16.01-4.53-32.55-8.11-48.66c0.19,2.32,0.4,4.63,0.55,6.95c0.15,2.36,0.35,4.73,0.32,7.09
			c-0.09,7.9-0.25,15.8-0.43,23.7c-0.05,2.13-0.16,4.26-0.47,6.36c-0.14,0.95-0.62,2.32-1.3,2.58c-0.74,0.28-2.38-0.23-2.75-0.89
			c-1.01-1.76-1.92-3.73-2.21-5.72c-1.53-10.29-2.84-20.61-4.25-30.91c-0.09-0.66-0.36-1.3-1.16-1.95
			c-0.11,0.96-0.28,1.92-0.31,2.89c-0.26,10.06-0.46,20.11-0.77,30.17c-0.05,1.42-0.64,2.83-0.98,4.25
			c-0.53-0.07-1.05-0.14-1.58-0.2c-0.65-17.18-1.29-34.36-1.94-51.54c-0.42-0.02-0.85-0.04-1.27-0.06
			c-1.25,14.69-2.51,29.38-3.76,44.07c-0.59,0.03-1.18,0.07-1.76,0.1c-0.25-1.43-0.74-2.87-0.72-4.3
			c0.16-9.23,0.43-18.45,0.66-27.68c0.03-1.17,0-2.34-0.33-3.52c-0.86,6.79-1.62,13.6-2.62,20.37c-0.5,3.34-0.92,3.44-4.39,2.32
			c-1.11,5.92-2.07,11.84-3.39,17.67c-0.59,2.58-1.75,5.08-3.01,7.43c-0.4,0.74-1.97,0.86-3,1.26c-0.34-0.95-1.05-1.94-0.96-2.84
			c0.72-7.42,1.56-14.82,2.41-22.23c0.82-7.13,1.7-14.25,1.86-21.52c-1.16,4.39-2.33,8.78-3.49,13.17
			c-0.52-0.11-1.04-0.22-1.56-0.33c-1.28-3.33,0.35-6.66,0.61-9.98c0.28-3.53,0.77-7.04,1.18-10.74c-6.24-0.47-1.19-5.33-3.23-8.24
			c-1.47,5.48-2.83,10.56-4.21,15.63c-2.33,8.56-4.65,17.12-7.06,25.66c-0.3,1.07-0.95,2.31-1.82,2.88
			c-0.96,0.63-2.48,0.97-3.54,0.67c-0.55-0.15-0.78-1.96-0.87-3.04c-0.09-1.06,0.17-2.15-0.53-3.41
			c-2.84,7.21-5.69,14.42-8.53,21.63c-0.51-0.13-1.03-0.27-1.54-0.4c0.11-1.25,0.03-2.56,0.37-3.75
			c4.93-17.07,9.91-34.11,14.87-51.17c0.32-1.1,0.55-2.23,0.26-3.56c-0.44,0.86-0.9,1.72-1.32,2.6c-3.59,7.58-7.1,15.22-10.85,22.72
			c-0.59,1.18-2.33,1.78-3.54,2.65c-0.55-1.54-1.83-3.26-1.5-4.59c1.03-4.24,2.66-8.33,4.05-12.48c0.67-1.99,1.32-3.98,1.23-6.28
			c-4.54,10.19-9.07,20.39-13.88,31.19c-2.57-3.7-2.04-6.2-0.52-9.29c3.89-7.89,7.24-16.04,10.81-24.09
			c-0.41-0.21-0.83-0.41-1.24-0.62c-4.77,8.44-9.85,16.73-14.24,25.36c-4.39,8.62-8.1,17.58-12.1,26.39
			c-0.31-0.13-0.63-0.25-0.94-0.38c4.56-12.67,9.12-25.33,13.68-38c-0.45-0.26-0.91-0.52-1.36-0.78c-1.05,1.16-2.09,2.32-3.36,3.73
			c-0.08-12.49,6.82-22.14,11.77-32.49c-0.37-0.22-0.74-0.43-1.12-0.65c-4.05,6.13-8.2,12.2-12.13,18.4
			c-4.18,6.58-7.91,13.46-12.32,19.89c-2.53,3.69-6.01,6.74-9.06,10.07c-0.26-0.16-0.51-0.31-0.77-0.47
			c0.06-0.75-0.16-1.68,0.21-2.21c3.37-4.88,2.26-10.8,3.85-16.04c2.02-6.65,4.82-13.06,7.28-19.57c0.28-0.74,0.49-1.51,0.73-2.26
			c-0.29-0.21-0.58-0.42-0.87-0.62c-5.14,6.77-10.28,13.54-15.42,20.31c-0.3-0.2-0.6-0.4-0.9-0.59c0.89-2.8,1.77-5.6,2.66-8.4
			c-0.43-0.21-0.86-0.42-1.29-0.62c-4.83,7.78-9.66,15.57-14.48,23.35c-0.33-0.08-0.67-0.17-1-0.25c0-3.91-0.78-8.03,0.21-11.66
			c1.09-4,3.75-7.6,5.84-11.31c0.81-1.43,1.92-2.68,2.91-4.01c2.55-3.39,5.11-6.78,7.67-10.17c-0.37-0.28-0.74-0.56-1.11-0.84
			c-1.66,2.34-3.31,4.68-4.97,7.03c-0.36-0.22-0.72-0.44-1.08-0.66c4.29-8.51,8.57-17.02,12.86-25.52
			c-0.42-0.28-0.83-0.55-1.25-0.83c-4.27,5.58-8.54,11.16-13.09,17.11c-2.38,2.17-5.46,4.56-8.01,7.42
			c-4,4.48-7.63,9.29-11.97,13.77c0.27-7.16,2.15-13.83,6.56-19.78c-0.26-0.28-0.53-0.56-0.79-0.84c-3.9,2.33-7.79,4.67-11.69,7
			c-0.16-0.27-0.32-0.53-0.48-0.8c4.13-3.75,8.25-7.5,12.38-11.25c-0.22-0.26-0.43-0.52-0.65-0.78c-3.6,2.76-7.2,5.52-10.79,8.3
			c-1.5,1.16-2.86,2.52-4.47,3.47c-0.81,0.47-2.04,0.21-3.09,0.29c0.12-1.16-0.2-2.78,0.44-3.39c3.95-3.73,8.12-7.23,12.23-10.79
			c0.53-0.46,1.12-0.84,1.89-1.42c-1.65-2.44-0.1-3.57,1.74-4.99c4.89-3.79,9.57-7.85,13.86-12.42
			c-14.78,7.02-27.25,17.71-41.26,25.85c-0.35-0.45-0.7-0.91-1.05-1.36c2.44-2.41,4.48-5.77,7.42-7.05
			c7.05-3.08,11.25-9.21,16.77-13.89c4.13-3.5,8.3-6.95,12.44-10.45c0.52-0.44,0.92-1.03,1.76-1.98
			c-14.71,7.69-28.9,15.11-43.08,22.53c-0.3-0.36-0.59-0.72-0.89-1.08c1.41-2.18,2.81-4.36,4.56-7.07c-2.2,0-3.81,0-5.41,0
			c-0.08-0.29-0.16-0.57-0.24-0.86c8.48-3.91,16.96-7.82,25.77-11.88c-0.9-1.17-1.34-1.75-1.87-2.44c1.86-1.61,3.61-3.14,5.37-4.66
			c-0.16-0.36-0.32-0.72-0.48-1.08c-7.52,3.02-15.05,6.05-22.57,9.07c-0.21-0.42-0.41-0.83-0.62-1.25
			c3.99-2.39,7.99-4.78,11.98-7.17c-0.11-0.28-0.22-0.56-0.32-0.84c-10.52,1.9-19.59,9.02-30.51,9.46
			c-0.17-0.31-0.35-0.61-0.52-0.92c2.92-1.71,5.8-3.51,8.79-5.08c1.93-1.02,3.59-1.79,4.77-4.09c0.92-1.81,3.67-3.25,5.85-3.74
			c11.37-2.55,22.45-5.75,32.5-11.87c0.46-0.28,0.89-0.61,1.01-1.65c-14.81,5.1-29.61,10.19-44.42,15.29
			c-0.18-0.37-0.36-0.74-0.53-1.11c0.49-0.55,0.9-1.22,1.49-1.64c4.18-2.98,4.19-2.97,0.24-5.49c0-1.75,0-3.37,0-5.69
			c3.75-2.72,10.25-3.24,13.3-9.28c-4.86,1.5-9.72,2.99-14.59,4.49c-0.15-0.36-0.31-0.72-0.46-1.08c2.02-1.43,4.03-2.87,6.56-4.66
			c-2.97,0.32-5.3,0.56-7.62,0.81c-0.1-0.39-0.21-0.78-0.31-1.18c1.75-1.02,3.49-2.04,5.24-3.06c-0.05-0.37-0.1-0.74-0.15-1.1
			c-7.72,0.28-15.4,3.52-23.16,1.51c-0.08-0.37-0.16-0.73-0.24-1.1c10.41-2.58,20.82-5.17,31.22-7.75c-0.01-0.27-0.02-0.53-0.04-0.8
			c-2.71,0-5.43,0.15-8.13-0.06c-1.28-0.1-3.27-0.59-3.62-1.44c-0.83-2.05,0.09-4,2.34-4.84c1.55-0.58,3.21-0.83,4.79-1.32
			c4.58-1.4,9.12-2.91,13.72-4.22c1.33-0.38,2.81-0.28,4.22-0.32c1.59-0.05,3.19-0.01,4.78-0.65c-14.02-0.78-28.04,1.74-42.05,0.71
			c-0.1-0.49-0.2-0.97-0.31-1.46c3.59-1.18,7.12-2.57,10.77-3.48c2.5-0.62,5.18-0.46,7.74-0.91c0.96-0.17,1.79-1.06,2.68-1.62
			c-0.85-0.81-1.58-2.03-2.59-2.34c-2.07-0.64-4.28-0.8-6.44-1.16c0.03-0.39,0.06-0.79,0.09-1.18c1.27,0.06,2.61,0.4,3.8,0.12
			c1.38-0.32,2.64-1.19,3.84-2.53c-2.55-0.28-5.1-0.57-7.65-0.85c0-0.44,0-0.88,0.01-1.32c2.77-0.19,5.55-0.39,8.32-0.58
			c0.02-0.15,0.04-0.29,0.07-0.44c-4.32-0.55-8.64-1.09-12.96-1.64c-0.02-0.25-0.04-0.5-0.06-0.75c1.32-0.36,2.63-0.73,3.95-1.09
			c-0.02-0.33-0.05-0.65-0.07-0.98c-3.18,1.22-6.12-2.23-9.63,0.51c-1.19,0.93-3.73,0.15-5.76-0.52c1.33-0.42,2.65-0.84,3.98-1.26
			c0.03-0.26,0.06-0.53,0.08-0.79c-2.16-0.44-4.32-0.87-6.48-1.31c0.03-0.31,0.06-0.61,0.09-0.92c17.45-4.71,35.4-4.99,53.4-4.95
			c-0.01-0.52-0.02-1.04-0.03-1.55c-7.97-0.52-15.94-1.04-23.91-1.56c-0.01-0.23-0.01-0.46-0.02-0.69c3.5-0.44,7-0.89,10.73-1.36
			c-4.49-2.54-9.38-4.19-12.64-7.47c-3.36-3.38-7.37-5.25-11.23-7.48c-4.38-2.54-9.18-4.34-13.75-6.57
			c-1.16-0.56-2.13-1.51-3.19-2.28c0.2-0.39,0.4-0.78,0.6-1.17c18.77,7.15,37.53,14.29,56.3,21.44c0.26-0.54,0.52-1.09,0.78-1.63
			c-2.01-1.21-3.97-2.51-6.03-3.62c-11.32-6.14-22.76-12.06-33.92-18.47c-3.05-1.75-5.4-4.84-7.84-7.53c-2.3-2.53-4.33-5.3-6.4-8.02
			c-0.8-1.05-1.37-2.26-1.74-3.59c11.25,12.64,25.14,21.38,40.1,28.62c0.51,0.24,1.29-0.09,2.99-0.26
			c-7.79-6.47-14.79-12.51-22.03-18.25c-7.2-5.71-14.65-11.11-21.57-17.24c25.79,15.82,49.47,35.16,78.61,44.99
			c0.25-0.28,0.5-0.56,0.75-0.84c-2.27-2.02-4.54-4.05-7.14-6.36c1.3-0.3,2.25-0.51,4.26-0.97c-7.93-8.09-13.15-17.78-23.01-23.56
			c3.43-1.61,6.56-1.26,9.79,0.33c5.72,2.83,11.51,5.53,17.29,8.26c0.49,0.23,1.05,0.32,2.09-0.18c-1.74-1.62-3.34-3.43-5.23-4.84
			c-15.36-11.43-30.79-22.78-46.17-34.18c-0.99-0.74-1.84-1.68-2.46-2.91c17.9,8.05,32.2,21.94,49.94,30.24
			c-3.07-4.46-6.98-8.02-11.66-10.73c-2.59-1.5-5.19-2.89-4.96-6.63c0.04-0.72-1.21-1.63-2.01-2.28
			c-5.63-4.52-11.29-8.99-16.93-13.5c-0.52-0.41-0.9-0.99-0.98-2.1c0.84,0.42,1.71,0.79,2.51,1.27c8.83,5.29,17.62,10.64,26.5,15.84
			c1.14,0.67,2.74,0.55,4.13,0.8c0.2-0.45,0.41-0.91,0.61-1.36c-6.12-6.3-12.19-12.65-18.37-18.89c-2.75-2.77-5.74-5.29-8.58-7.96
			c-0.83-0.78-1.52-1.7-2.28-2.56c0.19-0.26,0.38-0.53,0.57-0.79c4.3,2.78,8.6,5.57,12.91,8.35c0.31-0.35,0.63-0.71,0.94-1.06
			c-1.38-0.58-2.76-1.17-4.15-1.75c0.36-0.44,0.72-0.88,1.08-1.31c4.03,2,8.07,4,12.1,6.01c0.19-0.29,0.38-0.57,0.58-0.86
			c-0.88-1.27-1.75-2.55-2.63-3.82c0.19-0.23,0.37-0.45,0.56-0.68c10.65,7.5,21.3,15.01,31.95,22.51c0.35-0.36,0.71-0.72,1.06-1.08
			c-0.72-1.02-1.29-2.2-2.18-3.04c-11.11-10.44-22.26-20.84-33.39-31.25c-0.49-0.46-0.87-1.03-0.95-2.07
			c3.04,1.51,6.09,3.02,9.13,4.53c0.27-0.35,0.53-0.71,0.8-1.06c-7.72-6.56-15.44-13.13-23.16-19.69c0.11-0.18,0.23-0.36,0.34-0.54
			c4.81,3.16,9.62,6.32,14.43,9.48c0.16-0.1,0.31-0.21,0.47-0.31c-2.32-2.94-4.65-5.88-6.97-8.82c0.36-0.37,0.71-0.74,1.07-1.11
			c10.13,8.3,20.27,16.59,30.4,24.89c0.2-0.15,0.4-0.29,0.59-0.44c-7.41-9.93-14.82-19.86-22.83-30.6
			c4.29,2.91,7.94,5.38,11.59,7.86c0.31-0.24,0.62-0.47,0.93-0.71c-1.02-1.83-1.68-4.04-3.13-5.43c-4.17-4.01-8.67-7.68-13.02-11.49
			c-1.2-1.05-2.35-2.15-3.15-3.69c21.37,6.93,35.97,23.01,51.22,38.22c0.23-0.18,0.45-0.36,0.68-0.54
			c-3.4-5.28-6.8-10.57-10.21-15.85c0.54-0.4,1.09-0.79,1.63-1.19c3.57,4.34,7.28,8.57,10.67,13.04c3.4,4.48,6.49,9.2,10.32,13.53
			c-6.63-14.6-14.07-28.83-18.63-44.22c0.38-0.21,0.77-0.42,1.15-0.64c2.37,3.8,4.73,7.6,7.1,11.4c0.37-0.1,0.73-0.2,1.1-0.3
			c-2.22-9.14-6.8-17.84-6.5-27.44c0.32-0.11,0.64-0.22,0.96-0.34c6.08,13.94,12.15,27.88,18.23,41.82c0.37-0.15,0.73-0.29,1.1-0.44
			c-2.16-7.95-6.82-15.13-7.6-23.58c8.53,14.5,14.32,30.28,22.25,45.04c-7.86-26.48-18.29-52.1-26.23-78.52
			c0.61-0.23,1.21-0.46,1.82-0.69c4,9.4,8,18.8,12,28.2c0.19-0.06,0.38-0.12,0.57-0.19c-1.75-6.87-3.5-13.73-5.24-20.6
			c0.46-0.2,0.92-0.39,1.38-0.59c0.89,1.7,2.02,3.33,2.64,5.12c3.48,9.95,6.83,19.94,10.25,29.91c1.26,3.67,2.58,7.31,4.65,10.75
			c-2.61-10.12-5.23-20.25-7.84-30.37c0.52-0.23,1.03-0.45,1.55-0.68c0.8,1.44,1.83,2.8,2.35,4.33c2.58,7.5,4.9,15.08,7.57,22.54
			c1.65,4.61,3.76,9.06,5.66,13.59c0.42-0.09,0.84-0.18,1.26-0.27c-2.2-14.07-4.4-28.14-6.6-42.22c0.52-0.11,1.03-0.22,1.55-0.33
			c3.13,4.92,3.22,10.95,5.06,15.75c0-12.38,0-25.25,0-38.4C414.14,198.9,416.13,219.01,420.81,238.63z M279.42,381.64
			c0.14,0.62,0.28,1.25,0.41,1.87c6.7-0.99,13.4-1.97,20.1-2.96c-0.07-0.5-0.15-1-0.22-1.5
			C292.89,379.47,285.76,377.79,279.42,381.64z M330.69,254.01c-0.29,0.33-0.58,0.65-0.87,0.98c3.6,5.19,8.92,8.44,13.85,12.12
			c0.24-0.27,0.49-0.55,0.73-0.82C339.83,262.2,335.26,258.11,330.69,254.01z" />
    <path class="st0" d="M277.39,270.21c5.57,3.83,11.15,7.66,16.72,11.49c-0.3,0.44-0.6,0.88-0.89,1.32
			c-5.59-3.81-11.18-7.62-16.77-11.42C276.76,271.13,277.07,270.67,277.39,270.21z" />
  </g>
</svg>
