<?xml version="1.0" encoding="utf-8"?>
<!-- Generator: Adobe Illustrator 25.2.1, SVG Export Plug-In . SVG Version: 6.00 Build 0)  -->
<svg version="1.1" id="Layer_1" xmlns="http://www.w3.org/2000/svg" xmlns:xlink="http://www.w3.org/1999/xlink" x="0px" y="0px"
	 viewBox="0 0 84.14 194.97" style="enable-background:new 0 0 84.14 194.97;" xml:space="preserve">
<style type="text/css">
	.st0{fill:#75658D;}
	.st1{fill:#EDA77E;}
	.st2{fill:#120B0B;}
</style>
<g>
	<path class="st0" d="M4.07,100.92c5.6,0,11.2,0,16.9,0c0-4.72,0-9.16,0-13.91c-6.86,0-13.74,0-20.76,0c0-1.09,0-1.87,0-2.87
		c9.13,0,18.33,0,27.86,0c0,2.22,0,4.5,0,6.78c0,1,0,2,0,3c-0.92,0-1.84,0-3,0c0,1.51,0,2.75,0,4c0,0.92,0,1.83,0,3
		c1.17,0,2.08,0,3,0c2.33,0,4.67,0,7,0c0,1.33,0,2.67,0,4c-1,0-2,0-3,0c-1.25,0-2.49,0-4,0c0,1.16,0,2.08,0,3c-1,0-2,0-3,0
		c-0.12-0.94,0.29-1.94-0.43-3c-6.79,0-13.68,0-20.57,0C4.07,103.59,4.07,102.25,4.07,100.92z"/>
	<path class="st0" d="M81.07,149.92c-1.14,0-2.29,0-3.48,0c-1.15,1.02-0.12,2.46-0.68,3.69c-0.6,0.7-1.48,0.13-2.28,0.33
		c-1.14-1.03-0.22-2.45-0.71-3.73c-1.13-0.5-2.36-0.34-3.86-0.08c0,2.27,0,4.53,0,6.79c0,1.33,0,2.67,0,4c-2.33,0-4.67,0-7,0
		s-4.67,0-7,0c0-1.33,0-2.67,0-4c1.27-0.18,2.61,0.34,4.04-0.35c-0.2-2.22,0.23-4.47-0.28-6.65c-2.45,0-4.6,0-6.76,0
		c0-0.83,0-1.65,0-2.51c-1.05-1.1-2.52-0.04-3.79-0.72c-0.54-1.16-0.04-2.49-0.21-3.77c2.33,0,4.67,0,7,0c0,1.28,0,2.55,0,4
		c8.55,0,16.77,0,25,0C81.07,147.92,81.07,148.92,81.07,149.92z M63.15,156.97c1.54-0.19,2.7,0.27,3.67-0.31c0-2.32,0-4.54,0-6.78
		c-1.36,0.17-2.53-0.29-3.67,0.39C63.15,152.36,63.15,154.47,63.15,156.97z"/>
	<path class="st0" d="M25.07,188.92c-2.33,0-4.67,0-7.07-0.07c-0.07-1.19-0.07-2.46-0.07-3.75c-1.37-0.21-2.6-0.4-3.75,0.14
		c0,1.2,0,2.3,0,3.54c1.37,0,2.63,0,3.82,0.07c0.07,0.9,0.07,1.74,0.07,2.57c0.69,1.03,1.9,0.1,2.85,0.81c0,0.67,0,1.45,0,2.47
		c-2.13,0-4.37,0-6.69,0c-0.09-0.81-0.18-1.6-0.29-2.58c-4.42,0-8.86,0-13.48,0c-0.72-1.69-0.31-3.34-0.37-4.92
		c-0.07-1.64-0.01-3.29-0.01-5.27c7.1,0,14.05,0,21,0c0,0.92,0,1.84,0,3c1.51,0,2.75,0,4,0C25.07,186.25,25.07,187.59,25.07,188.92z
		"/>
	<path class="st0" d="M4.07,121.92c0.83,0,1.66,0,2.52,0c1.1,1.06,0.02,2.54,0.75,3.84c1.02,0,2.13,0,3.4,0
		c0.97-0.94-0.19-2.44,0.64-3.71c0.69,0,1.47,0,2.34,0c0.91,1.03-0.07,2.49,0.55,3.75c1.18,0,2.29,0,3.43,0
		c0.85-1.11,0.05-2.53,0.46-3.72c0.99-0.11,1.78-0.19,2.55-0.28c0.66-0.92,0.23-1.94,0.36-2.88c1.33,0,2.67,0,4,0c1,0,2,0,3,0
		c0,1,0,2,0,3c-0.92,0-1.84,0-3,0c0,1.51,0,2.75,0,4c-1.27,0.17-2.6-0.33-3.83,0.24c-0.11,1.01-0.6,1.98,0.35,2.76
		c1.16,0,2.32,0,3.48,0c0,1.33,0,2.67,0,4c-1.33,0-2.67,0-4,0c-1,0-2,0-3,0c-1.33,0-2.67,0-4,0c-1,0-2,0-3,0c-1.33,0-2.67,0-4,0
		c-1,0-2,0-3,0c0-1.25,0-2.5,0-4c-1.5,0-2.75,0-4,0c0-1,0-2,0-3c1.25,0,2.5,0,4,0C4.07,124.42,4.07,123.17,4.07,121.92z"/>
	<path class="st0" d="M77.07,16.92c2.26,0,4.52,0,6.88,0c0,1.37,0,2.48,0,3.64c-0.67,0.91-1.87-0.11-2.77,0.73c0,1.96,0,4.06,0,6.03
		c-1.2,1.22-2.65,0.14-3.82,0.79c-0.58,0.87-0.18,1.87-0.3,2.81c-1,0-2,0-3,0c-1.25,0-2.5,0-4,0c0,1.5,0,2.75,0,4
		c-0.94-0.12-1.93,0.28-2.87-0.34c-0.54-1.12,0.46-2.56-0.72-3.78c-0.98,0-2.08,0-3.22,0c0-2.36,0-4.57,0-6.64
		c1.34-0.67,2.79,0.43,3.81-0.77c0-0.83,0-1.65,0-2.47c0.92,0,1.84,0,3,0c0-1.51,0-2.75,0-4c1.33,0,2.67,0,4,0
		c0.17,1.27-0.33,2.6,0.28,3.92c0.83,0,1.61,0,2.72,0C77.07,19.49,77.07,18.21,77.07,16.92z"/>
	<path class="st0" d="M28.07,167.92c0-2.16,0-4.32,0-6.54c-0.1-0.09-0.21-0.22-0.35-0.3c-0.13-0.08-0.29-0.16-0.43-0.16
		c-8.96-0.01-17.92-0.01-26.81-0.01c-0.73-1.22-0.28-2.39-0.43-3.75c11.58,0,23.13,0,35.02,0c0,3.52,0,7.14,0,10.75
		C32.74,167.92,30.41,167.92,28.07,167.92z"/>
	<path class="st0" d="M77.07,100.92c0,2.15,0,4.31,0,6.5c1.04,1.13,2.51,0.05,3.78,0.73c0.55,1.16,0.04,2.49,0.22,3.77
		c-1.26,0-2.52,0-4,0c0,2.51,0,4.76,0,7c-0.82,0-1.65,0-2.51,0c-1.11-1.05-0.05-2.51-0.66-3.67c-1.03-0.75-2.23-0.01-3.24-0.43
		c-1.2,1.16-0.15,2.62-0.77,3.8c-0.87,0.6-1.87,0.18-2.82,0.31c-0.17-1.27,0.33-2.6-0.24-3.81c-2.28-0.6-4.61,0.34-6.79-0.52
		c0.18-0.94-0.3-1.8,0.35-2.51c2.18-0.57,4.52,0.36,6.68-0.48c-0.13-1.28,0.3-2.44-0.29-3.48c-1.19-0.64-2.65,0.41-3.72-0.68
		c0.18-0.79-0.33-1.67,0.31-2.33c1.18-0.66,2.66,0.48,3.7-0.7c0-1.18,0-2.33,0-3.49c1,0,2,0,3,0c0.17,1.27-0.33,2.6,0.38,4.12
		c1.16-0.54,2.5,0.55,3.62-0.63c0-1.17,0-2.33,0-3.49C75.07,100.92,76.07,100.92,77.07,100.92z M74.22,111.83
		c-0.5-1.58,0.64-3.27-0.96-3.82c-0.89-0.3-2.26-0.59-3.19,0.41c0.15,1.13-0.33,2.3,0.36,3.41
		C71.53,111.83,72.64,111.83,74.22,111.83z"/>
	<path class="st0" d="M42.07,167.92c0-1.27,0-2.55,0-3.83c-1.09-0.11-1.87-0.2-2.82-0.3c0-3.21,0-6.42,0-9.77c2.17,0,4.27,0,6.27,0
		c1.12-1.22,0.17-2.66,0.81-4.1c2.21,0,4.48,0,6.75,0c0.17,1.27-0.33,2.6,0.21,3.75c0.93,0.62,2.12-0.27,2.8,0.77
		c0,0.83,0,1.65,0,2.48c-4.59,0-9.18,0-14.22,0c0.59,1.49-0.37,2.78,0.79,4.11c0.99,0,2.1,0,3.08,0c0.78,0.96-0.18,2.16,0.64,2.73
		c0.97,0,1.74,0,2.41,0c0.69-0.96-0.22-2.15,0.79-2.84c1.11,0.12,2.27-0.31,3.31,0.28c0.57,0.85-0.33,2.04,0.72,2.72
		c0.83,0,1.65,0,2.48,0c0,1.33,0,2.67,0,4C51.41,167.92,46.74,167.92,42.07,167.92z"/>
	<path class="st1" d="M46.07,20.92c1,0,2,0,3,0c0.13,0.94-0.3,1.95,0.35,2.88c1.22,0.06,2.5,0.49,3.65-0.34c0-0.89,0-1.72,0-2.54
		c0.93,0,1.86,0,3,0c0,2.52,0,4.76,0,7c-8,0-16,0-24,0c0-1.33,0-2.67,0-4c0-1,0-2,0-3c1,0,2,0,3,0c0.13,0.94-0.3,1.95,0.35,2.88
		c1.22,0.06,2.5,0.49,3.65-0.34c0-0.89,0-1.72,0-2.54c1,0,2,0,3,0c0.13,0.94-0.3,1.95,0.35,2.88c1.22,0.06,2.5,0.49,3.65-0.34
		C46.07,22.57,46.07,21.75,46.07,20.92z"/>
	<path class="st0" d="M46.07,13.92c0-1.33,0-2.67,0.07-4.07c0.87-0.07,1.79-0.07,3.22-0.07c-0.69-1.01,0.23-1.97-0.66-2.75
		c-0.82,0-1.58,0-2.49,0c0,1.02,0,1.95-0.07,2.82c-1.23,0.07-2.39,0.07-3.78,0.07c-0.59-1.51-0.22-3.15-0.28-4.74
		c-0.06-1.63-0.01-3.27-0.01-5.08c2.24,0,4.35,0,6.75,0c0.8,0.48-0.13,1.68,0.49,2.61c1.15,0.54,2.48,0.04,3.75,0.21
		c0,1.27,0,2.55,0,3.82c1.07,0.12,1.84,0.2,2.62,0.29c0.77,0.66,0.19,1.54,0.38,2.29c-0.63,1.15-1.79,0.29-2.66,0.74
		c-0.85,1.06-0.03,2.46-0.53,3.87C50.58,13.92,48.33,13.92,46.07,13.92z"/>
	<path class="st0" d="M67.07,118.92c0,1,0,2-0.07,3.07c-1.19,0.07-2.46,0.07-3.75,0.07c-0.21,1.37-0.4,2.6,0.14,3.75
		c1.2,0,2.3,0,3.54,0c0-1.37,0-2.63,0.07-3.82c0.88-0.07,1.69-0.07,2.55-0.07c1.07,1.03,0.19,2.42,0.62,3.62
		c1.05,0.95,2.47-0.06,3.89,0.71c0,0.8,0,1.74,0,2.67c-6,0.12-12.02-0.26-18,0.21c0,1.49,0,2.64,0,3.79c-1,0-2,0-3,0
		c0-2.33,0-4.67,0-7c2.28,0,4.57,0,6.75,0c0.65-2.52-0.25-4.86,0.56-7C62.76,118.92,64.91,118.92,67.07,118.92z"/>
	<path class="st0" d="M42.07,181.92c0,1,0,2,0,3c-5.67,0-11.33,0-17,0c0-1,0-2,0-3c0.93,0,1.86,0,3,0c0-2.52,0-4.76,0-7
		c2.33,0,4.67,0,7,0c0,0.92,0,1.84,0,3c1.51,0,2.75,0,4,0c0,1.25,0,2.49,0,4C40.21,181.92,41.14,181.92,42.07,181.92z"/>
	<path class="st1" d="M32.07,51.92c0-0.92,0-1.83,0-3c1.17,0,2.08,0,3,0c0.13,0.95-0.3,1.96,0.44,3c2.2,0,4.51,0.04,6.81-0.01
		c2.26-0.05,4.54,0.25,6.75-0.21c0-1.12,0-1.95,0-2.78c2.33,0,4.67,0,7,0c0,1,0,2,0,3c-0.92,0-1.84,0-3,0c0,1.51,0,2.75,0,4
		c-1.33,0-2.67,0-4,0c-1,0-2,0-3,0c-1.33,0-2.67,0-4,0c-1,0-2,0-3,0c-1.33,0-2.67,0-4,0c-1,0-2,0-3,0
		C32.07,54.59,32.07,53.25,32.07,51.92z"/>
	<path class="st0" d="M84.07,174.92c0,0.83,0,1.65,0,2.48c-0.68,1.05-1.86,0.15-2.8,0.77c-0.53,1.15-0.04,2.48-0.21,3.75
		c-1.33,0-2.67,0-4,0c-0.17-1.27,0.33-2.6-0.24-3.83c-1.01-0.11-1.98-0.6-2.76,0.35c0,1.16,0,2.32,0,3.48c-3.67,0-7.33,0-11,0
		c0-1.33,0-2.67,0-4c1.25,0,2.49,0,4,0c0-1.16,0-2.08,0-3c4.67,0,9.33,0,14,0C82.07,174.92,83.07,174.92,84.07,174.92z"/>
	<path class="st0" d="M18.07,174.92c0,0.83,0,1.65,0,2.48c-0.11,0.12-0.21,0.26-0.34,0.35c-0.12,0.08-0.28,0.16-0.42,0.17
		c-5.6,0.01-11.21,0.01-17.03,0.01c0-2.29,0-4.51,0-7c4.61,0,9.2,0,13.79,0c0,1.25,0,2.5,0,4
		C15.57,174.92,16.82,174.92,18.07,174.92z"/>
	<path class="st0" d="M81.07,62.92c0,0.83,0,1.66,0,2.7c-2.14,0.8-4.48-0.09-6.76,0.49c-0.57,1.21-0.06,2.54-0.24,3.81
		c-3.57,0-7.15,0-11.14,0c0.43-1.44-0.33-2.67,0.47-3.84c1.2-0.57,2.64,0.46,3.67-0.66c0-0.86,0-1.68,0-2.5c2.33,0,4.67,0,7,0
		c1,0,2,0,3,0C78.41,62.92,79.74,62.92,81.07,62.92z"/>
	<path class="st0" d="M56.07,27.92c0-2.24,0-4.48,0-7c-1.14,0-2.07,0-3,0c-1.33,0-2.67,0-4,0c0-1.27,0-2.54,0-4c3.86,0,7.43,0,11,0
		c0,4.57,0,9.13,0,14c-1.46,0-2.73,0-4,0C56.07,29.92,56.07,28.92,56.07,27.92z"/>
	<path class="st0" d="M81.07,2.92c0.82,0,1.64,0,2.72,0c0.63,1.65,0.17,3.44,0.26,5.16c0.09,1.79,0.02,3.59,0.02,5.54
		c-2.2,0.77-4.5-0.07-6.66,0.44c-0.62,0.93-0.22,1.92-0.34,2.86c-1,0-2,0-3,0c0-2.15,0-4.3,0-6.45c0.65-1.09,1.84-0.2,2.67-0.72
		c0.68-0.67,0.15-1.55,0.34-2.36c1.04-1.09,2.51-0.03,3.77-0.7C81.4,5.52,80.9,4.19,81.07,2.92z"/>
	<path class="st0" d="M81.07,167.92c0,1,0,2,0,3c-7,0-14,0-21,0c-1.33,0-2.67,0-4,0c0-1,0-2,0-3c1.33,0,2.67,0,4,0c1,0,2,0,3,0
		c1.33,0,2.67,0,4,0c2.33,0,4.67,0,7,0S78.74,167.92,81.07,167.92z"/>
	<path class="st1" d="M28.07,62.92c0-2.33,0-4.67,0-7c1.33,0,2.67,0,4,0c0,0.92,0,1.83,0,3c1.17,0,2.08,0,3,0c1.33,0,2.67,0,4,0
		c1,0,2,0,3,0c0,1.33,0,2.67,0,4c-3.33,0-6.67,0-10,0C30.74,62.92,29.41,62.92,28.07,62.92z"/>
	<path class="st2" d="M4.07,111.92c0-1.33,0-2.67,0-4c5.67,0,11.33,0,17,0c0,1.33,0,2.67,0,4c-1,0-2,0-3,0
		C13.41,111.92,8.74,111.92,4.07,111.92z"/>
	<path class="st0" d="M21.07,174.92c-1,0-2,0-3,0c0-1.25,0-2.5,0-4c-1.5,0-2.75,0-4,0c0-0.82,0-1.64,0-2.79
		c2.33-0.46,4.74-0.14,7.12-0.19c2.29-0.06,4.59-0.01,6.88-0.01c0,2.33,0,4.67,0,7c-1,0-2,0-3,0c-0.17-1.27,0.33-2.6-0.4-4.16
		c-1.14,0.62-2.48-0.48-3.6,0.65C21.07,172.6,21.07,173.76,21.07,174.92z"/>
	<path class="st0" d="M32.07,76.92c0.92,0,1.84,0,3,0c0-1.51,0-2.75,0-4c1.33,0,2.67,0,4,0c1,0,2,0,3,0c0,2.33,0,4.67,0,7
		c-3.33,0-6.67,0-10,0C32.07,78.92,32.07,77.92,32.07,76.92z"/>
	<path class="st0" d="M35.07,167.92c2.33,0,4.67,0,7,0c0,3.33,0,6.67,0,10c-1,0-2,0-3,0c0-0.92,0-1.84,0-3c-1.51,0-2.75,0-4,0
		C35.07,172.59,35.07,170.25,35.07,167.92z"/>
	<path class="st0" d="M46.22,188.92c0.67,0,1.5,0,2.36,0c1.11-1.04,0.08-2.49,0.72-3.78c1.14-0.4,2.36-0.33,3.68,0.02
		c0,3.16,0,6.25,0,9.55c-2.18,0-4.39,0-6.76,0C46.22,192.79,46.22,190.86,46.22,188.92z"/>
	<path class="st0" d="M63.07,184.92c0,3.27,0,6.54,0,9.9c-1.09,0-1.87,0-2.6,0c-0.75-0.74-0.22-1.62-0.4-2.4
		c-1.04-1.16-2.52-0.08-4-0.79c0-2.16,0-4.43,0-6.71C58.41,184.92,60.74,184.92,63.07,184.92z"/>
	<path class="st0" d="M77.07,86.92c2.16,0,4.32,0,6.75,0c0.57,1.68,0.16,3.49,0.24,5.24c0.08,1.8,0.02,3.61,0.02,5.31
		c-1.04,0.75-2.05,0.31-3,0.44c0-2.24,0-4.49,0-7c-1.47,0-2.73,0-4,0C77.07,89.59,77.07,88.25,77.07,86.92z"/>
	<path class="st0" d="M28.07,37.92c0-1,0-2,0-3c1.33,0,2.67,0,4,0c1,0,2,0,3,0c0.13,0.94-0.3,1.95,0.31,2.82
		c1.18,0.62,2.64-0.44,3.69,0.67c0,1.19,0,2.35,0,3.51c-2.33,0-4.67,0-7,0c0-1.25,0-2.5,0-4C30.57,37.92,29.32,37.92,28.07,37.92z"
		/>
	<path class="st0" d="M84.07,184.92c0,1.16,0,2.31,0,3.47c-0.67,1.06-1.86,0.16-2.69,0.71c-0.6,0.87-0.18,1.87-0.31,2.82
		c-2.25,0-4.5,0-6.59,0c-0.68-0.97-0.32-1.78-0.37-2.55c0.72-0.96,1.88-0.07,2.96-0.82c0-1.1,0-2.36,0-3.63c1.33,0,2.67,0,4,0
		C82.07,184.92,83.07,184.92,84.07,184.92z"/>
	<path class="st0" d="M74.07,51.92c0,1.16,0,2.31,0,3.47c0.67,1.06,1.86,0.16,2.69,0.72c0.6,0.86,0.18,1.87,0.31,2.81c-1,0-2,0-3,0
		c-1.33,0-2.67,0-4,0c0-0.92,0-1.83,0-3c-1.17,0-2.08,0-3,0c0-1.33,0-2.67,0-4C69.41,51.92,71.74,51.92,74.07,51.92z"/>
	<path class="st0" d="M53.07,177.92c0,1.27,0,2.54,0,4c-3.86,0-7.43,0-11,0c0-1.33,0-2.67,0-4
		C45.74,177.92,49.41,177.92,53.07,177.92z"/>
	<path class="st0" d="M74.07,69.92c3.25,0,6.49,0,10,0c0,2.48,0,4.74,0,7c-1,0-2,0-3,0c0-1.26,0-2.52,0-4c-2.51,0-4.76,0-7,0
		C74.07,71.92,74.07,70.92,74.07,69.92z"/>
	<path class="st2" d="M74.07,51.92c-2.33,0-4.67,0-7,0c0-1,0-2,0-3c2.33,0,4.67,0,7,0c1,0,2,0,3,0c1.33,0,2.67,0,4,0c0,1,0,2,0,3
		C78.74,51.92,76.41,51.92,74.07,51.92z"/>
	<path class="st0" d="M46.07,13.92c0,0.82,0,1.64,0,2.79c-2.33,0.46-4.74,0.14-7.12,0.19c-2.29,0.06-4.59,0.01-6.88,0.01
		c0-0.82,0-1.64,0-2.79c2.33-0.46,4.74-0.14,7.12-0.19C41.48,13.88,43.78,13.92,46.07,13.92z"/>
	<path class="st0" d="M28.09,192.04c4.57,0,9.15,0,13.85,0c0,0.9,0,1.67,0,2.67c-4.47,0-9,0-13.57,0
		C27.77,193.87,28.2,192.86,28.09,192.04z"/>
	<path class="st0" d="M63.07,177.92c-3.33,0-6.67,0-10,0c0.13-2.34-0.29-4.72,0.23-7c1.15,0,1.96,0,2.77,0c0,1.25,0,2.5,0,4
		c1.5,0,2.75,0,4,0c1,0,2,0,3,0C63.07,175.92,63.07,176.92,63.07,177.92z"/>
	<path class="st2" d="M28.07,93.92c0-1,0-2,0-3c1.33,0,2.67,0,4,0c0.13,0.94-0.3,1.95,0.31,2.81c0.84,0.55,2.02-0.35,2.69,0.72
		c0,1.16,0,2.31,0,3.47c-2.33,0-4.67,0-7,0C28.07,96.59,28.07,95.25,28.07,93.92z"/>
	<path class="st0" d="M81.07,37.92c0,1.33,0,2.67,0,4c-1.33,0-2.67,0-4,0c-1,0-2,0-3,0c0-2.33,0-4.67,0-7c1,0,2,0,3,0
		c0,0.92,0,1.84,0,3C78.57,37.92,79.82,37.92,81.07,37.92z"/>
	<path class="st0" d="M35.07,142.92c-1,0-2,0-3,0c0-0.92,0-1.84,0-3c-1.51,0-2.75,0-4,0c0-1.33,0-2.67,0-4c2.33,0,4.67,0,7,0
		c0,1.33,0,2.67,0,4C35.07,140.92,35.07,141.92,35.07,142.92z"/>
	<path class="st0" d="M74.07,79.92c0,1.33,0,2.67,0,4c-1.25,0-2.49,0-4,0c0,1.16,0,2.08,0,3c-1,0-2,0-3,0c0-2.33,0-4.67,0-7
		c1,0,2,0,3,0C71.41,79.92,72.74,79.92,74.07,79.92z"/>
	<path class="st0" d="M42.07,142.92c0,2.28,0,4.55,0,6.91c-1.09,0-1.87,0-2.61,0c-0.82-0.73-0.08-1.64-0.76-2.81
		c-0.68-0.71-2.15,0.35-3.41-0.33c-0.54-1.17-0.04-2.49-0.21-3.77c1.33,0,2.67,0,4,0C40.07,142.92,41.07,142.92,42.07,142.92z"/>
	<ellipse class="st2" cx="68.57" cy="183.42" rx="7.78" ry="2.12"/>
	<path class="st0" d="M67.07,2.92c-1.15,0-2.29,0-3.48,0c-1.21,1.01-0.01,2.49-1.1,4.17C62.3,7.31,61.41,6.73,60.38,7
		c-0.64-2.21-0.13-4.45-0.37-6.86c2.32,0,4.52,0,6.77,0C67.36,0.99,66.95,1.98,67.07,2.92z"/>
	<path class="st0" d="M32.07,86.92c0-0.81,0-1.63,0-2.7c1.62-0.69,3.41-0.18,5.11-0.28c1.62-0.1,3.26-0.02,4.89-0.02c0,1,0,2,0,3
		c-1,0-2,0-3,0c-1.33,0-2.67,0-4,0C34.07,86.92,33.07,86.92,32.07,86.92z"/>
	<path class="st0" d="M67.07,2.92c2.33,0,4.67,0,7,0c0,1.16,0,2.32,0,3.77c-2.18,0.51-4.44,0.04-6.64,0.31
		C66.74,5.53,67.25,4.19,67.07,2.92z"/>
	<path class="st2" d="M28.07,62.92c1.33,0,2.67,0,4,0c0,1,0,2,0,3c0,1.33,0,2.67,0,4c-1.33,0-2.67,0-4,0
		C28.07,67.59,28.07,65.25,28.07,62.92z"/>
	<path class="st2" d="M81.07,132.92c0,1,0,2,0,3c-1.33,0-2.67,0-4,0c0-1,0-2,0-3c0-1.33,0-2.67,0-4c1.33,0,2.67,0,4,0
		C81.07,130.25,81.07,131.59,81.07,132.92z"/>
	<path class="st1" d="M25.07,118.92c-1.33,0-2.67,0-4,0c-1,0-2,0-3,0c0-1.33,0-2.67,0-4c1,0,2,0,3,0c1.33,0,2.67,0,4,0
		C25.07,116.25,25.07,117.59,25.07,118.92z"/>
	<path class="st1" d="M4.07,142.92c-1.16,0-2.32,0-3.77,0c-0.51-2.18-0.04-4.44-0.31-6.64c1.46-0.69,2.8-0.19,4.07-0.36
		C4.07,138.25,4.07,140.59,4.07,142.92z"/>
	<path class="st2" d="M4.07,118.92c-1.16,0-2.32,0-3.77,0c-0.51-2.18-0.04-4.44-0.31-6.64c1.46-0.69,2.8-0.19,4.07-0.36c0,1,0,2,0,3
		C4.07,116.25,4.07,117.59,4.07,118.92z"/>
	<ellipse class="st0" cx="23.07" cy="178.42" rx="2.83" ry="4.95"/>
	<path class="st0" d="M81.07,48.92c-1.33,0-2.67,0-4,0c0-1.33,0-2.67,0-4c1.33,0,2.67,0,4,0c1,0,2,0,3,0c0,1.33,0,2.67,0,4
		C83.07,48.92,82.07,48.92,81.07,48.92z"/>
	<ellipse class="st0" cx="9.07" cy="139.42" rx="2.83" ry="4.95"/>
	<ellipse class="st0" cx="16.07" cy="139.42" rx="2.83" ry="4.95"/>
	<ellipse class="st0" cx="23.07" cy="139.42" rx="2.83" ry="4.95"/>
	<path class="st2" d="M81.07,76.92c1,0,2,0,3,0c0,1,0,2,0,3c-1,0-2,0-3,0c-1.33,0-2.67,0-4,0c0-1,0-2,0-3
		C78.41,76.92,79.74,76.92,81.07,76.92z"/>
	<path class="st1" d="M77.07,76.92c0,1,0,2,0,3c-1,0-2,0-3,0c-1.33,0-2.67,0-4,0c0-1,0-2,0-3c1.33,0,2.67,0,4,0
		C75.07,76.92,76.07,76.92,77.07,76.92z"/>
	<path class="st1" d="M42.07,142.92c-1,0-2,0-3,0c0-1,0-2,0-3c1,0,2,0,3,0c1.33,0,2.67,0,4,0c0,1,0,2,0,3
		C44.74,142.92,43.41,142.92,42.07,142.92z"/>
	<path class="st0" d="M81.07,160.92c0.83,0,1.66,0,2.74,0c0,2.21,0,4.43,0,6.74c-0.79,0.56-1.8,0.13-2.74,0.26
		C81.07,165.59,81.07,163.25,81.07,160.92z"/>
	<path class="st1" d="M63.07,181.92c0,1,0,2,0,3c-2.33,0-4.67,0-7,0c0-0.81,0-1.62,0-2.77C58.35,181.63,60.73,182.05,63.07,181.92z"
		/>
	<path class="st0" d="M67.07,16.92c0-2.28,0-4.56,0-6.91c1.11,0,1.89,0,3,0c0,2.35,0,4.63,0,6.91
		C69.07,16.92,68.07,16.92,67.07,16.92z"/>
	<path class="st0" d="M60.07,16.92c0-2.28,0-4.56,0-6.91c1.11,0,1.89,0,3,0c0,2.35,0,4.63,0,6.91
		C62.07,16.92,61.07,16.92,60.07,16.92z"/>
	<path class="st0" d="M81.07,2.92c-2.33,0-4.67,0-7,0c0-0.83,0-1.66,0-2.74c2.21,0,4.43,0,6.74,0C81.37,0.96,80.94,1.98,81.07,2.92z
		"/>
	<circle class="st1" cx="2.07" cy="130.92" r="2.83"/>
	<circle class="st1" cx="79.07" cy="32.92" r="2.83"/>
	<path class="st2" d="M28.07,37.92c1.25,0,2.5,0,4,0c0,1.5,0,2.75,0,4c-1.33,0-2.67,0-4,0C28.07,40.59,28.07,39.25,28.07,37.92z"/>
	<path class="st0" d="M77.07,160.92c0-1.16,0-2.32,0-3.49c1.12-1.19,2.46-0.09,3.62-0.63c0.71,1.52,0.21,2.85,0.38,4.12
		C79.74,160.92,78.41,160.92,77.07,160.92z"/>
	<path class="st1" d="M70.07,160.92c0-1.33,0-2.67,0-4c1.25,0,2.5,0,4,0c0,1.5,0,2.75,0,4C72.74,160.92,71.41,160.92,70.07,160.92z"
		/>
	<path class="st1" d="M28.07,20.92c0-1.25,0-2.5,0-4c1.5,0,2.75,0,4,0c0,1.33,0,2.67,0,4C30.74,20.92,29.41,20.92,28.07,20.92z"/>
	<path class="st0" d="M63.07,16.92c1.33,0,2.67,0,4,0c0,1.33,0,2.67,0,4c-1.25,0-2.5,0-4,0C63.07,19.42,63.07,18.17,63.07,16.92z"/>
	<circle class="st0" cx="44.07" cy="186.92" r="2.83"/>
	<path class="st1" d="M4.07,100.92c0,1.33,0,2.67,0,4c-1.33,0-2.67,0-4,0c0-1.25,0-2.5,0-4C1.57,100.92,2.82,100.92,4.07,100.92z"/>
	<circle class="st2" cx="30.07" cy="32.92" r="2.83"/>
	<path class="st0" d="M35.07,48.92c0-1.25,0-2.5,0-4c1.5,0,2.75,0,4,0c0,1.33,0,2.67,0,4C37.74,48.92,36.41,48.92,35.07,48.92z"/>
	<circle class="st0" cx="44.07" cy="81.92" r="2.83"/>
	<path class="st0" d="M32.07,55.92c-1.33,0-2.67,0-4,0c0-1.25,0-2.5,0-4c1.5,0,2.75,0,4,0C32.07,53.25,32.07,54.59,32.07,55.92z"/>
	<circle class="st0" cx="30.07" cy="25.92" r="2.83"/>
	<circle class="st2" cx="2.07" cy="123.92" r="2.83"/>
	<circle class="st2" cx="79.07" cy="60.92" r="2.83"/>
	<circle class="st2" cx="16.07" cy="116.92" r="2.83"/>
	<circle class="st2" cx="9.07" cy="116.92" r="2.83"/>
	<ellipse class="st1" cx="12.57" cy="116.92" rx="2.12" ry="2.83"/>
	<ellipse class="st1" cx="5.57" cy="116.92" rx="2.12" ry="2.83"/>
	<path class="st1" d="M81.07,62.92c0-1.33,0-2.67,0-4c0.83,0,1.65,0,2.49,0c1.18,1.12,0.09,2.46,0.58,3.52
		C83.02,63.22,82.02,62.79,81.07,62.92z"/>
	<ellipse class="st2" cx="30.07" cy="22.42" rx="2.83" ry="2.12"/>
	<path class="st0" d="M84.07,114.92c0,1.25,0,2.49,0,4c-1.16,0-2.08,0-3,0c0-1.33,0-2.67,0-4
		C82.07,114.92,83.07,114.92,84.07,114.92z"/>
	<path class="st1" d="M28.07,69.92c1.33,0,2.67,0,4,0c0,1,0,2,0,3c-1.25,0-2.49,0-4,0C28.07,71.76,28.07,70.84,28.07,69.92z"/>
	<path class="st0" d="M81.07,118.92c0,0.83,0,1.65,0,2.54c-1.15,0.83-2.42,0.4-3.65,0.34c-0.65-0.93-0.23-1.94-0.35-2.88
		C78.41,118.92,79.74,118.92,81.07,118.92z"/>
	<path class="st2" d="M39.07,20.92c0,0.83,0,1.65,0,2.54c-1.15,0.83-2.42,0.4-3.65,0.34c-0.65-0.93-0.23-1.94-0.35-2.88
		C36.41,20.92,37.74,20.92,39.07,20.92z"/>
	<path class="st0" d="M81.07,128.92c-1.33,0-2.67,0-4,0c0-0.93,0-1.86,0-3c1.51,0,2.75,0,4,0
		C81.07,126.92,81.07,127.92,81.07,128.92z"/>
	<path class="st2" d="M46.07,20.92c0,0.83,0,1.65,0,2.54c-1.15,0.83-2.42,0.4-3.65,0.34c-0.65-0.93-0.23-1.94-0.35-2.88
		C43.41,20.92,44.74,20.92,46.07,20.92z"/>
	<path class="st0" d="M84.07,51.92c0,1.29,0,2.57,0,3.92c-1.11,0-1.89,0-2.72,0c-0.61-1.31-0.11-2.64-0.28-3.92
		C82.07,51.92,83.07,51.92,84.07,51.92z"/>
	<ellipse class="st0" cx="75.57" cy="130.92" rx="2.12" ry="2.83"/>
	<path class="st1" d="M81.07,132.92c0-1.33,0-2.67,0-4c1,0,2,0,3,0c0,1.25,0,2.49,0,4C82.92,132.92,81.99,132.92,81.07,132.92z"/>
	<ellipse class="st1" cx="30.07" cy="29.42" rx="2.83" ry="2.12"/>
	<path class="st2" d="M84.07,174.92c-1,0-2,0-3,0c0-1.33,0-2.67,0-4c0.93,0,1.86,0,3,0C84.07,172.43,84.07,173.67,84.07,174.92z"/>
	<path class="st1" d="M32.07,76.92c0,1,0,2,0,3c-1.16,0-2.31,0-3.48,0c-0.95-0.78-0.46-1.75-0.35-2.76
		C29.47,76.59,30.8,77.09,32.07,76.92z"/>
	<path class="st2" d="M0.07,104.92c1.33,0,2.67,0,4,0c0,1,0,2,0,3c-1.25,0-2.49,0-4,0C0.07,106.76,0.07,105.84,0.07,104.92z"/>
	<path class="st0" d="M81.21,100.92c0.67,0,1.48,0,2.36,0c0.96,1.07,0.34,2.37,0.45,3.56c-0.86,0.75-1.77,0.49-2.81,0.18
		C81.21,103.44,81.21,102.18,81.21,100.92z"/>
	<path class="st0" d="M81.07,79.92c1,0,2,0,3,0c0,1.29,0,2.57,0,3.92c-1.11,0-1.89,0-2.72,0C80.74,82.52,81.24,81.19,81.07,79.92z"
		/>
	<path class="st2" d="M81.07,135.92c0.93,0,1.86,0,3,0c0,1.51,0,2.75,0,4c-1,0-2,0-3,0C81.07,138.59,81.07,137.25,81.07,135.92z"/>
	<path class="st1" d="M28.07,139.92c1.25,0,2.49,0,4,0c0,1.16,0,2.08,0,3c-1.33,0-2.67,0-4,0
		C28.07,141.92,28.07,140.92,28.07,139.92z"/>
	<ellipse class="st0" cx="79.07" cy="99.42" rx="2.83" ry="2.12"/>
	<path class="st0" d="M7.07,142.92c0,1.16,0,2.31,0,3.48c-0.78,0.95-1.75,0.46-2.76,0.35c-0.57-1.23-0.07-2.56-0.24-3.83
		C5.07,142.92,6.07,142.92,7.07,142.92z"/>
	<path class="st0" d="M14.07,142.92c0,1.29,0,2.57,0,3.92c-1.11,0-1.89,0-2.72,0c-0.61-1.31-0.11-2.64-0.28-3.92
		C12.07,142.92,13.07,142.92,14.07,142.92z"/>
	<path class="st0" d="M21.07,142.92c0,1.16,0,2.31,0,3.48c-0.78,0.95-1.75,0.46-2.76,0.35c-0.57-1.23-0.07-2.56-0.24-3.83
		C19.07,142.92,20.07,142.92,21.07,142.92z"/>
	<path class="st0" d="M28.07,146.92c-0.93,0-1.86,0-3,0c0-1.51,0-2.75,0-4c1,0,2,0,3,0C28.07,144.25,28.07,145.59,28.07,146.92z"/>
	<path class="st0" d="M28.07,41.92c1.33,0,2.67,0,4,0c0,0.83,0,1.65,0,2.54c-1.15,0.83-2.42,0.4-3.65,0.34
		C27.78,43.87,28.2,42.86,28.07,41.92z"/>
	<ellipse class="st0" cx="82.57" cy="144.92" rx="2.12" ry="2.83"/>
	<path class="st2" d="M28.09,147.06c1.25,0,2.51,0,3.87,0c0,0.9,0,1.67,0,2.5c-1.12,0.91-2.39-0.03-3.42,0.42
		C27.81,148.83,28.18,147.85,28.09,147.06z"/>
	<path class="st0" d="M84.07,149.92c0,1.16,0,2.31,0,3.48c-0.78,0.95-1.75,0.46-2.76,0.35c-0.57-1.23-0.07-2.56-0.24-3.83
		C82.07,149.92,83.07,149.92,84.07,149.92z"/>
	<path class="st2" d="M32.07,86.92c1,0,2,0,3,0c0,1.25,0,2.49,0,4c-1.16,0-2.08,0-3,0C32.07,89.59,32.07,88.25,32.07,86.92z"/>
	<path class="st2" d="M27.97,0c1.55,0,2.65,0,3.69,0c0.82,0.76,0.11,1.66,0.5,2.35c-1.21,1.19-2.55,0.12-3.53,0.64
		C27.73,2.07,28.25,1.2,27.97,0z"/>
	<path class="st2" d="M81.07,34.92c0-1.33,0-2.67,0-4c0.92,0,1.84,0,3,0c0,1.51,0,2.75,0,4C83.07,34.92,82.07,34.92,81.07,34.92z"/>
	<path class="st2" d="M3.98,91.25c0,0.77,0,1.55,0,2.32c-1.28,0.77-2.51,0.09-3.73,0.43C0.22,90.95,0.22,90.95,3.98,91.25z"/>
	<path class="st0" d="M74.07,160.92c1,0,2,0,3,0c0,0.92,0,1.83,0,3c-1.17,0-2.08,0-3,0C74.07,162.92,74.07,161.92,74.07,160.92z"/>
	<path class="st0" d="M81.07,34.92c1,0,2,0,3,0c0,0.92,0,1.83,0,3c-1.17,0-2.08,0-3,0C81.07,36.92,81.07,35.92,81.07,34.92z"/>
	<circle class="st1" cx="82.57" cy="148.42" r="2.12"/>
	<circle class="st0" cx="40.57" cy="43.42" r="2.12"/>
	<circle class="st1" cx="82.57" cy="141.42" r="2.12"/>
	<circle class="st2" cx="47.57" cy="141.42" r="2.12"/>
	<path class="st2" d="M84.07,44.92c-1,0-2,0-3,0c0-1,0-2,0-3c0.92,0,1.83,0,3,0C84.07,43.09,84.07,44,84.07,44.92z"/>
	<circle class="st1" cx="82.57" cy="50.42" r="2.12"/>
	<circle class="st1" cx="5.57" cy="134.42" r="2.12"/>
	<path class="st2" d="M84.07,128.92c-1,0-2,0-3,0c0-1,0-2,0-3c0.92,0,1.83,0,3,0C84.07,127.09,84.07,128,84.07,128.92z"/>
	<path class="st2" d="M84.07,114.92c-1,0-2,0-3,0c0-1,0-2,0-3c0.92,0,1.83,0,3,0C84.07,113.09,84.07,114,84.07,114.92z"/>
	<circle class="st2" cx="33.57" cy="71.42" r="2.12"/>
	<circle class="st1" cx="75.57" cy="183.42" r="2.12"/>
	<path class="st1" d="M84.07,184.92c-1,0-2,0-3,0c0-1,0-2,0-3c0.92,0,1.83,0,3,0C84.07,183.09,84.07,184,84.07,184.92z"/>
	<path class="st0" d="M74.07,83.92c0.92,0,1.83,0,3,0c0,1.17,0,2.08,0,3c-1,0-2,0-3,0C74.07,85.92,74.07,84.92,74.07,83.92z"/>
	<path class="st0" d="M53.21,2.78c0-0.8,0-1.73,0-2.75c0.91,0,1.67,0,2.49,0c0.89,0.78-0.03,1.74,0.66,2.75
		C54.93,2.78,54,2.78,53.21,2.78z"/>
	<circle class="st0" cx="26.57" cy="190.42" r="2.12"/>
	<path class="st0" d="M67.54,188.92c0.69,0,1.35,0,2.01,0c0.97,0.76,0.45,1.74,0.38,2.65c-0.69,0.7-1.56,0.17-2.36,0.36
		C66.76,190.93,66.79,189.93,67.54,188.92z"/>
	<path class="st0" d="M81.21,192.06c0.8,0,1.73,0,2.75,0c0,0.91,0,1.67,0,2.46c-0.8,0.7-1.7,0.43-2.75,0.14
		C81.21,193.78,81.21,192.86,81.21,192.06z"/>
	<path class="st2" d="M39.07,107.92c-2.24,0-4.48,0-7,0c0-1.14,0-2.07,0-3c1,0,2,0,3,0c1.33,0,2.67,0,4,0
		C39.07,105.92,39.07,106.92,39.07,107.92z"/>
	<path class="st2" d="M28.07,107.92c0,1.25,0,2.49,0,4c-1.16,0-2.08,0-3,0c0-1.33,0-2.67,0-4
		C26.07,107.92,27.07,107.92,28.07,107.92z"/>
	<path class="st2" d="M25.07,97.92c1,0,2,0,3,0c0,1,0,2,0,3c-0.92,0-1.83,0-3,0C25.07,99.75,25.07,98.84,25.07,97.92z"/>
	<path class="st1" d="M81.07,142.92c0,1.33,0,2.67,0,4c-8.23,0-16.45,0-25,0c0-1.45,0-2.72,0-4c1.33,0,2.67,0,4,0c1,0,2,0,3,0
		c1.33,0,2.67,0,4,0c1,0,2,0,3,0c1.33,0,2.67,0,4,0c1,0,2,0,3,0C78.41,142.92,79.74,142.92,81.07,142.92z"/>
	<path class="st2" d="M74.07,160.92c0,1,0,2,0,3c0,1.33,0,2.67,0,4c-2.33,0-4.67,0-7,0c0-1.25,0-2.5,0-4c-1.5,0-2.75,0-4,0
		c0-1,0-2,0-3c2.33,0,4.67,0,7,0C71.41,160.92,72.74,160.92,74.07,160.92z"/>
	<path class="st1" d="M63.07,160.92c0,1,0,2,0,3c-0.92,0-1.84,0-3,0c0,1.5,0,2.75,0,4c-1.33,0-2.67,0-4,0c0-1.33,0-2.67,0-4
		c0-1,0-2,0-3C58.41,160.92,60.74,160.92,63.07,160.92z"/>
	<path class="st1" d="M49.07,142.92c0-1,0-2,0-3c1.33,0,2.67,0,4,0c1,0,2,0,3,0c0,1,0,2,0,3C53.74,142.92,51.41,142.92,49.07,142.92
		z"/>
	<ellipse class="st2" cx="31.57" cy="120.42" rx="4.95" ry="2.12"/>
	<ellipse class="st2" cx="26.57" cy="116.92" rx="2.12" ry="2.83"/>
	<ellipse class="st2" cx="9.07" cy="134.42" rx="2.83" ry="2.12"/>
	<ellipse class="st2" cx="16.07" cy="134.42" rx="2.83" ry="2.12"/>
	<ellipse class="st2" cx="23.07" cy="134.42" rx="2.83" ry="2.12"/>
	<circle class="st1" cx="19.57" cy="134.42" r="2.12"/>
	<circle class="st1" cx="12.57" cy="134.42" r="2.12"/>
	<path class="st1" d="M74.07,34.92c-1.33,0-2.67,0-4,0c0-1.25,0-2.5,0-4c1.5,0,2.75,0,4,0C74.07,32.25,74.07,33.59,74.07,34.92z"/>
	<ellipse class="st2" cx="75.57" cy="32.92" rx="2.12" ry="2.83"/>
	<path class="st2" d="M49.07,20.92c1.33,0,2.67,0,4,0c0,0.83,0,1.65,0,2.54c-1.15,0.83-2.42,0.4-3.65,0.34
		C48.78,22.87,49.2,21.86,49.07,20.92z"/>
	<path class="st1" d="M74.07,132.92c1,0,2,0,3,0c0,1,0,2,0,3c-0.92,0-1.84,0-3,0c0,1.51,0,2.75,0,4c-1.33,0-2.67,0-4,0
		c-0.17-1.27,0.33-2.6-0.24-3.83c-1.01-0.11-1.98-0.6-2.76,0.35c0,1.16,0,2.32,0,3.48c-1.33,0-2.67,0-4,0
		c-0.17-1.27,0.33-2.6-0.28-3.92c-0.83,0-1.61,0-2.72,0c0,1.34,0,2.63,0,3.92c-1.33,0-2.67,0-4,0c0-1.25,0-2.49,0-4
		c-1.14,0-2.07,0-3,0c0-1,0-2,0-3c1,0,2,0,3,0C62.07,132.92,68.07,132.92,74.07,132.92z"/>
	<path class="st0" d="M53.07,41.92c1,0,2,0,3,0c0,0.92,0,1.84,0,3c1.51,0,2.75,0,4,0c1,0,2,0,3,0c0,1.25,0,2.5,0,4c1.5,0,2.75,0,4,0
		c0,1,0,2,0,3c-2.33,0-4.67,0-7,0c0-0.92,0-1.84,0-3c-1.51,0-2.75,0-4,0c-2.33,0-4.67,0-7,0c0-1.33,0-2.67,0-4c1.25,0,2.49,0,4,0
		C53.07,43.76,53.07,42.84,53.07,41.92z"/>
	<path class="st0" d="M49.07,55.92c1.33,0,2.67,0,4,0c1,0,2,0,3,0c1.33,0,2.67,0,4,0c1,0,2,0,3,0c0,1,0,2,0,3c-2.33,0-4.67,0-7,0
		s-4.67,0-7,0C49.07,57.92,49.07,56.92,49.07,55.92z"/>
	<path class="st2" d="M35.07,48.92c1.33,0,2.67,0,4,0c1,0,2,0,3,0c1.33,0,2.67,0,4,0c1,0,2,0,3,0c0,0.83,0,1.66,0,2.78
		c-2.21,0.46-4.5,0.15-6.75,0.21c-2.3,0.06-4.61,0.01-6.81,0.01C34.77,50.88,35.2,49.87,35.07,48.92z"/>
	<ellipse class="st0" cx="44.07" cy="57.42" rx="2.83" ry="2.12"/>
	<ellipse class="st0" cx="37.07" cy="57.42" rx="2.83" ry="2.12"/>
	<path class="st2" d="M56.07,55.92c-1,0-2,0-3,0c0-1.25,0-2.49,0-4c1.16,0,2.08,0,3,0C56.07,53.25,56.07,54.59,56.07,55.92z"/>
	<path class="st1" d="M81.07,170.92c0,1.33,0,2.67,0,4c-4.67,0-9.33,0-14,0c-1.33,0-2.67,0-4,0c-1,0-2,0-3,0c0-1.33,0-2.67,0-4
		C67.07,170.92,74.07,170.92,81.07,170.92z"/>
	<ellipse class="st2" cx="79.07" cy="183.42" rx="2.83" ry="2.12"/>
	<path class="st2" d="M70.07,58.92c1.33,0,2.67,0,4,0c0,1.33,0,2.67,0,4c-2.33,0-4.67,0-7,0c0-1.33,0-2.67,0-4
		C68.07,58.92,69.07,58.92,70.07,58.92z"/>
	<ellipse class="st1" cx="75.57" cy="60.92" rx="2.12" ry="2.83"/>
	<path class="st1" d="M63.07,163.92c1.25,0,2.5,0,4,0c0,1.5,0,2.75,0,4c-1.33,0-2.67,0-4,0C63.07,166.59,63.07,165.25,63.07,163.92z
		"/>
	<path class="st2" d="M60.07,170.92c0,1.33,0,2.67,0,4c-1.25,0-2.5,0-4,0c0-1.5,0-2.75,0-4C57.41,170.92,58.74,170.92,60.07,170.92z
		"/>
	<path class="st2" d="M63.07,163.92c0,1.33,0,2.67,0,4c-1,0-2,0-3,0c0-1.25,0-2.5,0-4C61.23,163.92,62.15,163.92,63.07,163.92z"/>
	<circle class="st2" cx="44.07" cy="60.92" r="2.83"/>
	<circle class="st1" cx="23.07" cy="109.92" r="2.83"/>
	<circle class="st0" cx="19.57" cy="113.42" r="2.12"/>
	<path class="st2" d="M46.07,72.92c-1.33,0-2.67,0-4,0c-1,0-2,0-3,0c0-1,0-2,0-3c1,0,2,0,3,0c1.33,0,2.67,0,4,0
		C46.07,70.92,46.07,71.92,46.07,72.92z"/>
	<ellipse class="st1" cx="37.07" cy="71.42" rx="2.83" ry="2.12"/>
	<path class="st1" d="M32.07,30.92c2.33,0,4.67,0,7,0c0,1.33,0,2.67,0,4c-1.33,0-2.67,0-4,0c-1,0-2,0-3,0
		C32.07,33.59,32.07,32.25,32.07,30.92z"/>
	<path class="st2" d="M63.07,55.92c-1,0-2,0-3,0c0-1.33,0-2.67,0-4c2.33,0,4.67,0,7,0c0,1.33,0,2.67,0,4
		C65.74,55.92,64.41,55.92,63.07,55.92z"/>
	<ellipse class="st0" cx="70.57" cy="46.92" rx="4.95" ry="2.83"/>
	<path class="st1" d="M32.07,90.92c0.92,0,1.84,0,3,0c0-1.51,0-2.75,0-4c1.33,0,2.67,0,4,0c0,2.28,0,4.56,0,6.63
		c1.13,0.73,2.32-0.15,3,0.89c0,1.16,0,2.32,0,3.48c-2.33,0-4.67,0-7,0c0-1.16,0-2.31,0-3.47c-0.67-1.06-1.86-0.16-2.69-0.72
		C31.78,92.87,32.2,91.86,32.07,90.92z"/>
	<path class="st2" d="M77.07,44.92c-1,0-2,0-3,0c-2.33,0-4.67,0-7,0c-1.33,0-2.67,0-4,0c-1,0-2,0-3,0c0-1,0-2,0-3c1,0,2,0,3,0
		c1.33,0,2.67,0,4,0c1,0,2,0,3,0c1.33,0,2.67,0,4,0c1,0,2,0,3,0C77.07,42.92,77.07,43.92,77.07,44.92z"/>
	<ellipse class="st1" cx="79.07" cy="43.42" rx="2.83" ry="2.12"/>
	<path class="st2" d="M35.07,135.92c-2.33,0-4.67,0-7,0c0-1,0-2,0-3c2.33,0,4.67,0,7,0s4.67,0,7,0c0,1,0,2,0,3c-1,0-2,0-3,0
		C37.74,135.92,36.41,135.92,35.07,135.92z"/>
	<circle class="st1" cx="37.07" cy="137.92" r="2.83"/>
	<path class="st2" d="M56.07,76.92c4.67,0,9.33,0,14,0c0,1,0,2,0,3c-1,0-2,0-3,0c-1.33,0-2.67,0-4,0c-1,0-2,0-3,0
		c-1.33,0-2.67,0-4,0C56.07,78.92,56.07,77.92,56.07,76.92z"/>
	<path class="st2" d="M42.07,97.92c0-1.16,0-2.32,0-3.48c-0.68-1.04-1.87-0.16-3-0.89c0-2.07,0-4.35,0-6.63c1,0,2,0,3,0
		c1.33,0,2.67,0,4,0c1,0,2,0,3,0c1.33,0,2.67,0,4,0c1,0,2,0,3,0c0,1.33,0,2.67,0,4c-0.92,0-1.83,0-3,0c0,1.17,0,2.08,0,3
		c-1.33,0-2.67,0-4.07-0.07c-0.07-0.87-0.07-1.79-0.07-2.67c-1.05-0.29-1.95-0.56-2.75,0.14c0,0.79,0,1.56,0,2.46
		c1.02,0,1.95,0,2.82,0.07c0.07,1.4,0.07,2.74,0.07,4.07C46.74,97.92,44.41,97.92,42.07,97.92z"/>
	<path class="st0" d="M32.07,65.92c0.92,0,1.84,0,3,0c0,1.51,0,2.75,0,4c-1,0-2,0-3,0C32.07,68.59,32.07,67.25,32.07,65.92z"/>
	<circle class="st0" cx="79.07" cy="137.92" r="2.83"/>
	<path class="st0" d="M74.07,72.92c0,1.33,0,2.67,0,4c-1.33,0-2.67,0-4,0c0-1.25,0-2.5,0-4C71.57,72.92,72.82,72.92,74.07,72.92z"/>
	<ellipse class="st0" cx="40.57" cy="137.92" rx="2.12" ry="2.83"/>
	<ellipse class="st2" cx="79.07" cy="141.42" rx="2.83" ry="2.12"/>
	<path class="st2" d="M56.07,111.92c0,0.92,0,1.83,0,3c-1.17,0-2.08,0-3,0c-1.33,0-2.67,0-4,0c-2.33,0-4.67,0-7,0c-1,0-2,0-3,0
		c-1.33,0-2.67,0-4,0c-1,0-2,0-3,0c0-0.81,0-1.62,0-2.77c2.28-0.51,4.66-0.1,7-0.23c1,0,2,0,3,0c1.33,0,2.67,0,4,0c1,0,2,0,3,0
		c1.33,0,2.67,0,4,0C54.07,111.92,55.07,111.92,56.07,111.92z"/>
	<path class="st0" d="M32.07,114.92c1,0,2,0,3,0c0,1.33,0,2.67,0,4c-2.33,0-4.67,0-7,0c0-1.33,0-2.67,0-4
		C29.41,114.92,30.74,114.92,32.07,114.92z"/>
	<ellipse class="st0" cx="40.57" cy="109.92" rx="2.12" ry="2.83"/>
	<path class="st1" d="M42.07,107.92c-1,0-2,0-3,0c0-1,0-2,0-3c2.33,0,4.67,0,7,0c1,0,2,0,3,0c0,1,0,2,0,3c-1,0-2,0-3,0
		C44.74,107.92,43.41,107.92,42.07,107.92z"/>
	<path class="st0" d="M46.07,104.92c-2.33,0-4.67,0-7,0c0-1.25,0-2.5,0-4c-1.5,0-2.75,0-4,0c0-1,0-2,0-3c2.33,0,4.67,0,7,0
		c0.13,0.94-0.3,1.95,0.31,2.82c1.18,0.62,2.64-0.44,3.69,0.67C46.07,102.61,46.07,103.76,46.07,104.92z"/>
	<circle class="st0" cx="75.57" cy="141.42" r="2.12"/>
	<circle class="st0" cx="68.57" cy="141.42" r="2.12"/>
	<circle class="st0" cx="61.57" cy="141.42" r="2.12"/>
	<path class="st0" d="M53.07,139.92c0-1.33,0-2.67,0-4c0.93,0,1.86,0,3,0c0,1.51,0,2.75,0,4C55.07,139.92,54.07,139.92,53.07,139.92
		z"/>
	<path class="st0" d="M42.07,132.92c-2.33,0-4.67,0-7,0c0-1.26,0-2.52,0-4c-2.51,0-4.76,0-7,0c-1,0-2,0-3,0c0-1,0-2,0-3
		c0.92,0,1.84,0,3,0c0-1.51,0-2.75,0-4c2.33,0,4.67,0,7,0s4.67,0,7,0c0,1.25,0,2.5,0,4c1.5,0,2.75,0,4,0c0,2.33,0,4.67,0,7
		C44.74,132.92,43.41,132.92,42.07,132.92z"/>
	<path class="st1" d="M42.07,121.92c-2.33,0-4.67,0-7,0c0-1,0-2,0-3c0-1.33,0-2.67,0-4c1.33,0,2.67,0,4,0c0,1.25,0,2.49,0,4
		c1.16,0,2.08,0,3,0C42.07,119.92,42.07,120.92,42.07,121.92z"/>
	<path class="st1" d="M28.07,128.92c2.24,0,4.49,0,7,0c0,1.48,0,2.74,0,4c-2.33,0-4.67,0-7,0
		C28.07,131.59,28.07,130.25,28.07,128.92z"/>
	<circle class="st1" cx="26.57" cy="134.42" r="2.12"/>
	<path class="st0" d="M46.07,41.92c-1.33,0-2.67,0-4,0c0-1.16,0-2.32,0-3.54c1.15-0.83,2.42-0.41,3.73-0.34
		C46.4,39.32,45.9,40.65,46.07,41.92z"/>
	<path class="st0" d="M49.07,41.92c0-1.16,0-2.32,0-3.54c1.15-0.83,2.42-0.41,3.73-0.34c0.6,1.27,0.09,2.6,0.27,3.88
		C51.74,41.92,50.41,41.92,49.07,41.92z"/>
	<circle class="st1" cx="51.07" cy="32.92" r="2.83"/>
	<circle class="st1" cx="44.07" cy="32.92" r="2.83"/>
	<path class="st1" d="M60.07,41.92c0,1,0,2,0,3c-1.25,0-2.49,0-4,0c0-1.16,0-2.08,0-3C57.41,41.92,58.74,41.92,60.07,41.92z"/>
	<ellipse class="st2" cx="40.57" cy="32.92" rx="2.12" ry="2.83"/>
	<ellipse class="st2" cx="47.57" cy="32.92" rx="2.12" ry="2.83"/>
	<path class="st0" d="M70.07,41.92c-1,0-2,0-3,0c0-1.16,0-2.31,0-3.48c0.78-0.95,1.75-0.46,2.76-0.35
		C70.4,39.32,69.9,40.65,70.07,41.92z"/>
	<path class="st0" d="M63.07,41.92c-1,0-2,0-3,0c0-1.29,0-2.57,0-3.92c1.11,0,1.89,0,2.72,0C63.4,39.32,62.9,40.65,63.07,41.92z"/>
	<path class="st2" d="M53.07,34.92c0-1.33,0-2.67,0-4c1,0,2,0,3,0c0,1.25,0,2.49,0,4C54.92,34.92,53.99,34.92,53.07,34.92z"/>
	<circle class="st0" cx="47.57" cy="43.42" r="2.12"/>
	<path class="st1" d="M53.07,118.92c0.82,0,1.65,0,2.48,0c0.95,0.78,0.46,1.75,0.36,2.68c-0.89,0.62-1.9,0.2-2.84,0.32
		c-2.33,0-4.67,0-7,0c0-1,0-2,0-3c1,0,2,0,3,0C50.41,118.92,51.74,118.92,53.07,118.92z"/>
	<ellipse class="st0" cx="49.57" cy="123.92" rx="4.95" ry="2.83"/>
	<path class="st0" d="M60.07,100.92c0,2.24,0,4.49,0,7c-1.48,0-2.74,0-4,0c0-1,0-2,0-3c0-1.25,0-2.5,0-4
		C57.57,100.92,58.82,100.92,60.07,100.92z"/>
	<ellipse class="st0" cx="63.57" cy="99.42" rx="4.95" ry="2.12"/>
	<circle class="st0" cx="51.07" cy="116.92" r="2.83"/>
	<ellipse class="st0" cx="54.57" cy="109.92" rx="2.12" ry="2.83"/>
	<ellipse class="st0" cx="72.07" cy="99.42" rx="2.83" ry="2.12"/>
	<ellipse class="st0" cx="75.57" cy="94.42" rx="2.12" ry="4.95"/>
	<ellipse class="st0" cx="68.57" cy="94.42" rx="2.12" ry="4.95"/>
	<path class="st0" d="M45.99,171c1.19,0,1.97,0,2.76,0c0.69,1.3,0.1,2.52,0.41,3.83c-1.19,0-1.97,0-2.76,0
		C45.71,173.54,46.3,172.31,45.99,171z"/>
	<ellipse class="st2" cx="51.07" cy="134.42" rx="2.83" ry="2.12"/>
	<path class="st2" d="M63.07,139.92c-1,0-2,0-3,0c0-1.29,0-2.57,0-3.92c1.11,0,1.89,0,2.72,0C63.4,137.32,62.9,138.65,63.07,139.92z
		"/>
	<path class="st2" d="M70.07,139.92c-1,0-2,0-3,0c0-1.16,0-2.31,0-3.48c0.78-0.95,1.75-0.46,2.76-0.35
		C70.4,137.32,69.9,138.65,70.07,139.92z"/>
	<path class="st2" d="M77.07,139.92c-1,0-2,0-3,0c0-1.25,0-2.49,0-4c1.16,0,2.08,0,3,0C77.07,137.25,77.07,138.59,77.07,139.92z"/>
	<path class="st1" d="M49.07,132.92c0,1,0,2,0,3c-2.33,0-4.67,0-7,0c0-1,0-2,0-3c1.33,0,2.67,0,4,0
		C47.07,132.92,48.07,132.92,49.07,132.92z"/>
	<path class="st1" d="M46.07,62.92c0-1.33,0-2.67,0-4c1,0,2,0,3,0c2.33,0,4.67,0,7,0c0,1.33,0,2.67,0,4c-1,0-2,0-3,0
		C50.74,62.92,48.41,62.92,46.07,62.92z"/>
	<ellipse class="st2" cx="59.57" cy="60.92" rx="4.95" ry="2.83"/>
	<circle class="st1" cx="58.07" cy="53.92" r="2.83"/>
	<circle class="st0" cx="44.07" cy="46.92" r="2.83"/>
	<path class="st0" d="M49.07,83.92c0-1.25,0-2.49,0-4c-1.16,0-2.08,0-3,0c0-0.83,0-1.65,0-2.48c0.68-1.05,1.86-0.15,2.8-0.77
		c0.53-1.15,0.04-2.48,0.21-3.75c1.33,0,2.67,0,4,0c1,0,2,0,3,0c0,1.33,0,2.67,0,4c0,1,0,2,0,3c0.17,1.27-0.33,2.6,0.4,4.16
		c1.14-0.62,2.48,0.48,3.6-0.65c0-1.2,0-2.35,0-3.51c1,0,2,0,3,0c0,2.24,0,4.49,0,7c1.48,0,2.74,0,4,0c0,1.33,0,2.67,0,4
		c-2.33,0-4.67,0-7,0c0-1.25,0-2.5,0-4c-1.5,0-2.75,0-4,0c-1,0-2,0-3,0c0-0.92,0-1.84,0-3C51.56,83.92,50.32,83.92,49.07,83.92z"/>
	<path class="st0" d="M53.07,62.92c1,0,2,0,3,0c0,0.81,0,1.62,0,2.48c1.02,1.13,2.44,0.14,3.63,0.64c0.93,1.13,0.04,2.39,0.58,3.88
		c-1.68,0-2.94,0-4.2,0c-1,0-2,0-3,0c-1.33,0-2.67,0-4,0c0.17-1.27-0.33-2.6,0.2-3.74c1.28-0.72,2.75,0.37,3.8-0.75
		C53.07,64.57,53.07,63.75,53.07,62.92z"/>
	<circle class="st1" cx="65.07" cy="60.92" r="2.83"/>
	<circle class="st2" cx="54.57" cy="71.42" r="2.12"/>
	<path class="st0" d="M42.07,62.92c1.33,0,2.67,0,4,0c0,0.92,0,1.84,0,3c-1.51,0-2.75,0-4,0C42.07,64.92,42.07,63.92,42.07,62.92z"
		/>
	<path class="st0" d="M42.07,69.92c-1,0-2,0-3,0c0-1.25,0-2.49,0-4c1.16,0,2.08,0,3,0C42.07,67.25,42.07,68.59,42.07,69.92z"/>
	<path class="st1" d="M53.07,69.92c0,1,0,2,0,3c-1.33,0-2.67,0-4,0c-1,0-2,0-3,0c0-1,0-2,0-3c1,0,2,0,3,0
		C50.41,69.92,51.74,69.92,53.07,69.92z"/>
	<circle class="st0" cx="72.07" cy="88.92" r="2.83"/>
	<circle class="st1" cx="51.07" cy="95.92" r="2.83"/>
	<path class="st1" d="M48.93,93.78c-0.8,0-1.73,0-2.75,0c0-0.91,0-1.67,0-2.46c0.8-0.7,1.7-0.43,2.75-0.14
		C48.93,92.06,48.93,92.98,48.93,93.78z"/>
	<path class="st1" d="M53.07,93.92c0-0.92,0-1.83,0-3c1.17,0,2.08,0,3,0c0,1,0,2,0,3C55.07,93.92,54.07,93.92,53.07,93.92z"/>
	<circle class="st0" cx="47.57" cy="85.42" r="2.12"/>
	<path class="st0" d="M42.07,114.92c0,1.33,0,2.67,0,4c-0.92,0-1.84,0-3,0c0-1.51,0-2.75,0-4
		C40.07,114.92,41.07,114.92,42.07,114.92z"/>
	<ellipse class="st0" cx="47.57" cy="109.92" rx="2.12" ry="2.83"/>
	<path class="st2" d="M53.07,107.92c-1.33,0-2.67,0-4,0c0-1,0-2,0-3c2.33,0,4.67,0,7,0c0,1,0,2,0,3
		C55.07,107.92,54.07,107.92,53.07,107.92z"/>
	<ellipse class="st2" cx="44.07" cy="120.42" rx="2.83" ry="2.12"/>
	<path class="st0" d="M60.07,90.92c0,2.33,0,4.67,0,7c-1.33,0-2.67,0-4,0c0-1.33,0-2.67,0-4c0-1,0-2,0-3
		C57.41,90.92,58.74,90.92,60.07,90.92z"/>
	<ellipse class="st2" cx="54.57" cy="95.92" rx="2.12" ry="2.83"/>
</g>
</svg>
