<?xml version="1.0" encoding="utf-8"?>
<!-- Generator: Adobe Illustrator 25.2.1, SVG Export Plug-In . SVG Version: 6.00 Build 0)  -->
<svg version="1.1" id="Layer_1" xmlns="http://www.w3.org/2000/svg" xmlns:xlink="http://www.w3.org/1999/xlink" x="0px" y="0px"
	 viewBox="0 0 84.14 194.97" style="enable-background:new 0 0 84.14 194.97;" xml:space="preserve">
<g>
	<path style="fill:none;" d="M70.45,105.04c1.16-0.54,2.5,0.55,3.62-0.63c0-1.17,0-2.33,0-3.49c-1.33,0-2.67,0-4,0
		C70.24,102.19,69.74,103.52,70.45,105.04z"/>
	<path style="fill:none;" d="M46.07,86.92c0-1,0-2,0-3c-1.33,0-2.67,0-4,0c0,1,0,2,0,3C43.41,86.92,44.74,86.92,46.07,86.92z"/>
	<path style="fill:none;" d="M48.7,7.03c-0.82,0-1.58,0-2.49,0c0,1.02,0,1.95-0.07,2.82c0.87-0.07,1.79-0.07,3.22-0.07
		C48.67,8.77,49.59,7.81,48.7,7.03z"/>
	<path style="fill:none;" d="M25.07,107.92c-0.12-0.94,0.29-1.94-0.43-3c-6.79,0-13.68,0-20.57,0c0,1,0,2,0,3c5.67,0,11.33,0,17,0
		C22.41,107.92,23.74,107.92,25.07,107.92z"/>
	<path style="fill:none;" d="M21.24,126.16c-0.11,1.01-0.6,1.98,0.35,2.76c1.16,0,2.32,0,3.48,0c0-1,0-2,0-3
		C23.8,126.09,22.47,125.59,21.24,126.16z"/>
	<path style="fill:none;" d="M28.07,93.92c-0.92,0-1.84,0-3,0c0,1.51,0,2.75,0,4c1,0,2,0,3,0C28.07,96.59,28.07,95.25,28.07,93.92z"
		/>
	<path style="fill:none;" d="M32.07,55.92c0,0.92,0,1.83,0,3c1.17,0,2.08,0,3,0c0-1,0-2,0-3C34.07,55.92,33.07,55.92,32.07,55.92z"
		/>
	<circle style="fill:none;" cx="40.57" cy="57.42" r="2.12"/>
	<path style="fill:none;" d="M46.07,77.44c0.68-1.05,1.86-0.15,2.79-0.77c0.53-1.15,0.04-2.48,0.21-3.75c-1,0-2,0-3,0
		c-1.33,0-2.67,0-4,0c0,2.33,0,4.67,0,7c1.33,0,2.67,0,4,0C46.07,79.09,46.07,78.27,46.07,77.44z"/>
	<path style="fill:none;" d="M77.07,76.92c1.33,0,2.67,0,4,0c0-1.26,0-2.52,0-4c-2.51,0-4.76,0-7,0c0,1.33,0,2.67,0,4
		C75.07,76.92,76.07,76.92,77.07,76.92z"/>
	<path style="fill:none;" d="M28.07,97.92c0,1,0,2,0,3c2.33,0,4.67,0,7,0c0-1,0-2,0-3C32.74,97.92,30.41,97.92,28.07,97.92z"/>
	<path style="fill:none;" d="M7.07,114.92c1.33,0,2.67,0,4,0c1,0,2,0,3,0c1.33,0,2.67,0,4,0c0-1,0-2,0-3c-4.67,0-9.33,0-14,0
		c0,1,0,2,0,3C5.07,114.92,6.07,114.92,7.07,114.92z"/>
	<path style="fill:none;" d="M28.07,135.92c-1,0-2,0-3,0c0,2.33,0,4.67,0,7c1,0,2,0,3,0c0-1,0-2,0-3
		C28.07,138.59,28.07,137.25,28.07,135.92z"/>
	<path style="fill:none;" d="M48.93,93.78c-0.8,0-1.73,0-2.75,0c1.02,0,1.95,0,2.82,0.07c-0.07-0.87-0.07-1.79-0.07-2.67
		C48.93,92.06,48.93,92.98,48.93,93.78z"/>
	<path style="fill:none;" d="M39.07,139.92c-1.33,0-2.67,0-4,0c0,1,0,2,0,3c1.33,0,2.67,0,4,0
		C39.07,141.92,39.07,140.92,39.07,139.92z"/>
	<path style="fill:none;" d="M32.07,114.92c0-0.81,0-1.62,0-2.77c2.28-0.51,4.66-0.1,7-0.23c0-1.33,0-2.67,0-4c-2.24,0-4.48,0-7,0
		c0-1.14,0-2.07,0-3c-1.25,0-2.49,0-4,0c0,1.16,0,2.08,0,3c0,1.25,0,2.49,0,4c-1.16,0-2.08,0-3,0c-1.33,0-2.67,0-4,0c0,1,0,2,0,3
		c1.33,0,2.67,0,4,0c1,0,2,0,3,0C29.41,114.92,30.74,114.92,32.07,114.92z"/>
	<path style="fill:none;" d="M42.64,161.03c0.99,0,2.1,0,3.08,0c0.78,0.96-0.18,2.16,0.64,2.73c0.97,0,1.74,0,2.41,0
		c0.69-0.96-0.22-2.15,0.79-2.84c1.11,0.12,2.27-0.31,3.31,0.28c0.57,0.85-0.33,2.04,0.72,2.72c0.83,0,1.65,0,2.48,0c0-1,0-2,0-3
		c0-1.33,0-2.67,0-4c-4.59,0-9.18,0-14.22,0C42.44,158.41,41.48,159.7,42.64,161.03z"/>
	<path style="fill:none;" d="M35.07,174.92c0-2.33,0-4.67,0-7c-2.33,0-4.67,0-7,0c0,2.33,0,4.67,0,7
		C30.41,174.92,32.74,174.92,35.07,174.92z"/>
	<path style="fill:none;" d="M35.07,174.92c0,0.92,0,1.84,0,3c1.51,0,2.75,0,4,0c0-0.92,0-1.84,0-3
		C37.56,174.92,36.32,174.92,35.07,174.92z"/>
	<path style="fill:none;" d="M53.28,153.67c0.93,0.62,2.12-0.27,2.8,0.77c0,0.83,0,1.65,0,2.48c1.27-0.18,2.61,0.34,4.04-0.35
		c-0.2-2.22,0.23-4.47-0.28-6.65c-2.45,0-4.6,0-6.76,0C53.24,151.19,52.75,152.52,53.28,153.67z"/>
	<path style="fill:none;" d="M28.07,128.92c-1,0-2,0-3,0c0,1.33,0,2.67,0,4c1,0,2,0,3,0C28.07,131.59,28.07,130.25,28.07,128.92z"/>
	<path style="fill:none;" d="M49.07,135.92c-2.33,0-4.67,0-7,0c0,1.33,0,2.67,0,4c1.33,0,2.67,0,4,0c1,0,2,0,3,0c1.33,0,2.67,0,4,0
		c0-1.33,0-2.67,0-4C51.74,135.92,50.41,135.92,49.07,135.92z"/>
	<path style="fill:none;" d="M18.07,135.92c0,2.33,0,4.67,0,7c1,0,2,0,3,0c0-2.33,0-4.67,0-7
		C20.07,135.92,19.07,135.92,18.07,135.92z"/>
	<path style="fill:none;" d="M28.07,121.92c-0.92,0-1.84,0-3,0c0,1.51,0,2.75,0,4c0.92,0,1.84,0,3,0
		C28.07,124.41,28.07,123.17,28.07,121.92z"/>
	<path style="fill:none;" d="M11.07,135.92c0,2.33,0,4.67,0,7c1,0,2,0,3,0c0-2.33,0-4.67,0-7
		C13.07,135.92,12.07,135.92,11.07,135.92z"/>
	<path style="fill:none;" d="M4.07,135.92c0,2.33,0,4.67,0,7c1,0,2,0,3,0c0-2.33,0-4.67,0-7C6.07,135.92,5.07,135.92,4.07,135.92z"
		/>
	<path style="fill:none;" d="M53.07,44.92c0-1.16,0-2.08,0-3c-1.33,0-2.67,0-4,0c0,1,0,2,0,3C50.32,44.92,51.56,44.92,53.07,44.92z"
		/>
	<path style="fill:none;" d="M46.07,41.92c-1.33,0-2.67,0-4,0c0,1,0,2,0,3c1.33,0,2.67,0,4,0C46.07,43.92,46.07,42.92,46.07,41.92z"
		/>
	<path style="fill:none;" d="M77.07,34.92c0,0.92,0,1.84,0,3c1.5,0,2.75,0,4,0c0-1,0-2,0-3C79.74,34.92,78.41,34.92,77.07,34.92z"/>
	<circle style="fill:none;" cx="47.57" cy="57.42" r="2.12"/>
	<path style="fill:none;" d="M39.07,100.92c-1.5,0-2.75,0-4,0c0,1.33,0,2.67,0,4c1.33,0,2.67,0,4,0
		C39.07,103.67,39.07,102.42,39.07,100.92z"/>
	<path style="fill:none;" d="M46.07,44.92c0,1.33,0,2.67,0,4c1,0,2,0,3,0c0-1.33,0-2.67,0-4C48.07,44.92,47.07,44.92,46.07,44.92z"
		/>
	<path style="fill:none;" d="M32.07,27.92c0,1,0,2,0,3c2.33,0,4.67,0,7,0c1,0,2,0,3,0c1.33,0,2.67,0,4,0c1,0,2,0,3,0
		c1.33,0,2.67,0,4,0c1,0,2,0,3,0c0-1,0-2,0-3C48.07,27.92,40.07,27.92,32.07,27.92z"/>
	<path style="fill:none;" d="M60.07,48.92c-1.51,0-2.75,0-4,0c0,1,0,2,0,3c1.33,0,2.67,0,4,0C60.07,51,60.07,50.08,60.07,48.92z"/>
	<path style="fill:none;" d="M42.07,65.92c0-1,0-2,0-3c-3.33,0-6.67,0-10,0c0,1,0,2,0,3c0.92,0,1.84,0,3,0c0,1.51,0,2.75,0,4
		c1.33,0,2.67,0,4,0c0-1.25,0-2.49,0-4C40.23,65.92,41.15,65.92,42.07,65.92z"/>
	<path style="fill:none;" d="M74.36,20.84c0.83,0,1.61,0,2.72,0c0-1.34,0-2.63,0-3.92c-1,0-2,0-3,0
		C74.24,18.19,73.74,19.52,74.36,20.84z"/>
	<path style="fill:none;" d="M49.07,79.92c-1.16,0-2.08,0-3,0c0,1.33,0,2.67,0,4c1,0,2,0,3,0C49.07,82.67,49.07,81.43,49.07,79.92z"
		/>
	<path style="fill:none;" d="M46.07,118.92c1,0,2,0,3,0c0-1.33,0-2.67,0-4c-2.33,0-4.67,0-7,0c0,1.33,0,2.67,0,4
		C43.41,118.92,44.74,118.92,46.07,118.92z"/>
	<path style="fill:none;" d="M42.07,125.92c1.5,0,2.75,0,4,0c0-1.33,0-2.67,0-4c-1.33,0-2.67,0-4,0
		C42.07,123.17,42.07,124.42,42.07,125.92z"/>
	<path style="fill:none;" d="M70.07,20.92c0-1.51,0-2.75,0-4c-1,0-2,0-3,0c0,1.33,0,2.67,0,4C67.99,20.92,68.92,20.92,70.07,20.92z"
		/>
	<path style="fill:none;" d="M53.07,111.92c0-1.33,0-2.67,0-4c-1.33,0-2.67,0-4,0c0,1.33,0,2.67,0,4
		C50.41,111.92,51.74,111.92,53.07,111.92z"/>
	<path style="fill:none;" d="M42.07,48.92c0-1.33,0-2.67,0-4c-1,0-2,0-3,0c0,1.33,0,2.67,0,4C40.07,48.92,41.07,48.92,42.07,48.92z"
		/>
	<path style="fill:none;" d="M53.07,93.92c-1.33,0-2.67,0-4.07-0.07c0.07,1.4,0.07,2.74,0.07,4.07c0-1.33,0-2.67,0-4
		C50.41,93.92,51.74,93.92,53.07,93.92z"/>
	<path style="fill:none;" d="M42.07,38.38c1.15-0.83,2.42-0.41,3.73-0.34c0.6,1.27,0.09,2.6,0.27,3.88c1,0,2,0,3,0
		c0-1.16,0-2.32,0-3.54c1.15-0.83,2.42-0.41,3.73-0.34c0.6,1.27,0.09,2.6,0.27,3.88c1,0,2,0,3,0c1.33,0,2.67,0,4,0
		c0-1.29,0-2.57,0-3.92c1.11,0,1.89,0,2.72,0c0.61,1.31,0.11,2.64,0.28,3.92c1.33,0,2.67,0,4,0c0-1.16,0-2.31,0-3.48
		c0.78-0.95,1.75-0.46,2.76-0.35c0.57,1.23,0.07,2.56,0.24,3.83c1.33,0,2.67,0,4,0c0-2.33,0-4.67,0-7c-1.33,0-2.67,0-4,0
		c-0.94-0.12-1.93,0.28-2.87-0.34c-0.54-1.12,0.46-2.56-0.72-3.78c-0.98,0-2.08,0-3.22,0c0-2.36,0-4.57,0-6.64
		c1.34-0.67,2.79,0.43,3.81-0.77c0-0.83,0-1.65,0-2.47c-1.25,0-2.5,0-4,0c0-1.5,0-2.75,0-4c-1,0-2,0-3,0c0,4.57,0,9.13,0,14
		c-1.46,0-2.73,0-4,0c0,1.25,0,2.49,0,4c-1.16,0-2.08,0-3,0c-1.33,0-2.67,0-4,0c-1,0-2,0-3,0c-1.33,0-2.67,0-4,0c-1,0-2,0-3,0
		c-1.33,0-2.67,0-4,0c0.13,0.94-0.3,1.95,0.31,2.82c1.18,0.62,2.64-0.44,3.69,0.67c0,1.19,0,2.35,0,3.51c1,0,2,0,3,0
		C42.07,40.76,42.07,39.6,42.07,38.38z"/>
	<path style="fill:none;" d="M70.07,90.92c0-1.33,0-2.67,0-4c-1,0-2,0-3,0c0,1.33,0,2.67,0,4C68.07,90.92,69.07,90.92,70.07,90.92z"
		/>
	<path style="fill:none;" d="M60.07,90.92c0,2.33,0,4.67,0,7c2.33,0,4.67,0,7,0c0-2.33,0-4.67,0-7
		C64.74,90.92,62.41,90.92,60.07,90.92z"/>
	<path style="fill:none;" d="M49.07,83.92c0,1,0,2,0,3c1.33,0,2.67,0,4,0c0-0.92,0-1.84,0-3C51.56,83.92,50.32,83.92,49.07,83.92z"
		/>
	<path style="fill:none;" d="M60.07,86.92c-1.5,0-2.75,0-4,0c0,1.33,0,2.67,0,4c1.33,0,2.67,0,4,0
		C60.07,89.67,60.07,88.42,60.07,86.92z"/>
	<path style="fill:none;" d="M56.47,84.08c1.14-0.62,2.48,0.48,3.6-0.65c0-1.2,0-2.35,0-3.51c-1.33,0-2.67,0-4,0
		C56.24,81.19,55.74,82.52,56.47,84.08z"/>
	<path style="fill:none;" d="M63.07,58.92c1.33,0,2.67,0,4,0c1,0,2,0,3,0c0-0.92,0-1.83,0-3c-1.17,0-2.08,0-3,0c-1.33,0-2.67,0-4,0
		C63.07,56.92,63.07,57.92,63.07,58.92z"/>
	<path style="fill:none;" d="M63.07,44.92c0,1.25,0,2.5,0,4c1.5,0,2.75,0,4,0c0-1.33,0-2.67,0-4
		C65.74,44.92,64.41,44.92,63.07,44.92z"/>
	<path style="fill:none;" d="M74.07,48.92c1,0,2,0,3,0c0-1.33,0-2.67,0-4c-1,0-2,0-3,0C74.07,46.25,74.07,47.59,74.07,48.92z"/>
	<path style="fill:none;" d="M42.07,107.92c0,1.33,0,2.67,0,4c1.33,0,2.67,0,4,0c0-1.33,0-2.67,0-4
		C44.74,107.92,43.41,107.92,42.07,107.92z"/>
	<path style="fill:none;" d="M63.07,86.92c1.48,0,2.74,0,4,0c0-2.33,0-4.67,0-7c-1.33,0-2.67,0-4,0
		C63.07,82.16,63.07,84.41,63.07,86.92z"/>
	<path style="fill:none;" d="M49.27,66.18c1.28-0.72,2.75,0.37,3.8-0.75c0-0.86,0-1.69,0-2.51c-2.33,0-4.67,0-7,0c0,0.92,0,1.84,0,3
		c-1.51,0-2.75,0-4,0c0,1.33,0,2.67,0,4c1.33,0,2.67,0,4,0c1,0,2,0,3,0C49.24,68.65,48.74,67.32,49.27,66.18z"/>
	<path style="fill:none;" d="M25.07,181.92c0.93,0,1.86,0,3,0c0-2.52,0-4.76,0-7c-1,0-2,0-3,0
		C25.07,177.25,25.07,179.59,25.07,181.92z"/>
	<path style="fill:none;" d="M63.4,66.08c1.2-0.57,2.64,0.46,3.67-0.66c0-0.86,0-1.68,0-2.5c-1.33,0-2.67,0-4,0c-2.33,0-4.67,0-7,0
		c0,0.81,0,1.62,0,2.48c1.02,1.13,2.44,0.14,3.63,0.64c0.93,1.13,0.04,2.39,0.58,3.88c-1.68,0-2.94,0-4.2,0c0,1,0,2,0,3
		c0,1.33,0,2.67,0,4c4.67,0,9.33,0,14,0c0-1.25,0-2.5,0-4c1.5,0,2.75,0,4,0c0-1,0-2,0-3c-3.57,0-7.15,0-11.14,0
		C63.35,68.48,62.6,67.24,63.4,66.08z"/>
	<path style="fill:none;" d="M56.07,129.13c0,1.49,0,2.64,0,3.79c6,0,12,0,18,0c0-1.33,0-2.67,0-4
		C68.07,129.04,62.05,128.66,56.07,129.13z"/>
	<path style="fill:none;" d="M46.07,132.92c1,0,2,0,3,0c1.33,0,2.67,0,4,0c0-2.33,0-4.67,0-7c-2.33,0-4.67,0-7,0
		C46.07,128.25,46.07,130.59,46.07,132.92z"/>
	<path style="fill:none;" d="M66.84,115.11c-2.28-0.6-4.61,0.34-6.79-0.52c0.18-0.94-0.3-1.8,0.35-2.51
		c2.18-0.57,4.52,0.36,6.68-0.48c-0.13-1.28,0.3-2.44-0.29-3.48c-1.19-0.64-2.65,0.41-3.72-0.68c0.18-0.79-0.33-1.67,0.31-2.33
		c1.18-0.66,2.66,0.48,3.7-0.7c0-1.18,0-2.33,0-3.49c-2.33,0-4.67,0-7,0c0,2.24,0,4.49,0,7c-1.48,0-2.74,0-4,0c0,1.33,0,2.67,0,4
		c0,0.92,0,1.83,0,3c-1.17,0-2.08,0-3,0c0,1.33,0,2.67,0,4c0.82,0,1.65,0,2.48,0c0.95,0.78,0.46,1.75,0.36,2.68
		c-0.89,0.62-1.9,0.2-2.84,0.32c0,1.33,0,2.67,0,4c2.28,0,4.57,0,6.75,0c0.65-2.52-0.25-4.86,0.56-7c2.38,0,4.54,0,6.69,0
		C66.9,117.65,67.4,116.32,66.84,115.11z"/>
	<path style="fill:none;" d="M63.15,150.28c0,2.09,0,4.19,0,6.7c1.54-0.19,2.7,0.27,3.67-0.31c0-2.32,0-4.54,0-6.78
		C65.46,150.06,64.29,149.6,63.15,150.28z"/>
	<path style="fill:none;" d="M63.39,125.81c1.2,0,2.3,0,3.54,0c0-1.37,0-2.63,0.07-3.82c-1.19,0.07-2.46,0.07-3.75,0.07
		C63.04,123.43,62.85,124.66,63.39,125.81z"/>
	<path style="fill:none;" d="M39.07,177.92c0,1.25,0,2.49,0,4c1.14,0,2.07,0,3,0c0-1.33,0-2.67,0-4
		C41.07,177.92,40.07,177.92,39.07,177.92z"/>
	<path style="fill:none;" d="M67.07,174.92c-1.33,0-2.67,0-4,0c0,1,0,2,0,3c1.25,0,2.49,0,4,0
		C67.07,176.76,67.07,175.84,67.07,174.92z"/>
	<path style="fill:none;" d="M76.83,178.09c-1.01-0.11-1.98-0.6-2.76,0.35c0,1.16,0,2.32,0,3.48c1,0,2,0,3,0
		C76.9,180.65,77.4,179.32,76.83,178.09z"/>
	<path style="fill:none;" d="M74.07,163.92c0,1.33,0,2.67,0,4c2.33,0,4.67,0,7,0c0-2.33,0-4.67,0-7c-1.33,0-2.67,0-4,0
		c0,0.92,0,1.83,0,3C75.91,163.92,74.99,163.92,74.07,163.92z"/>
	<path style="fill:none;" d="M67.07,142.92c0-1,0-2,0-3c-1.33,0-2.67,0-4,0c0,1,0,2,0,3C64.41,142.92,65.74,142.92,67.07,142.92z"/>
	<path style="fill:none;" d="M53.3,170.92c1.15,0,1.96,0,2.77,0c0-1,0-2,0-3c-4.67,0-9.33,0-14,0c0,3.33,0,6.67,0,10
		c3.67,0,7.33,0,11,0C53.2,175.58,52.79,173.2,53.3,170.92z M46.4,174.83c-0.69-1.3-0.1-2.52-0.41-3.83c1.19,0,1.97,0,2.76,0
		c0.69,1.3,0.1,2.52,0.41,3.83C47.97,174.83,47.19,174.83,46.4,174.83z"/>
	<path style="fill:none;" d="M77.07,90.92c0,2.33,0,4.67,0,7c1.33,0,2.67,0,4,0c0-2.24,0-4.49,0-7
		C79.6,90.92,78.34,90.92,77.07,90.92z"/>
	<path style="fill:none;" d="M70.07,90.92c0,2.33,0,4.67,0,7c1.33,0,2.67,0,4,0c0-2.33,0-4.67,0-7
		C72.74,90.92,71.41,90.92,70.07,90.92z"/>
	<circle style="fill:none;" cx="68.57" cy="99.42" r="2.12"/>
	<path style="fill:none;" d="M70.07,86.92c1.33,0,2.67,0,4,0c0-1,0-2,0-3c-1.25,0-2.49,0-4,0C70.07,85.08,70.07,86,70.07,86.92z"/>
	<path style="fill:none;" d="M73.26,108.01c-0.89-0.3-2.26-0.59-3.19,0.41c0.15,1.13-0.33,2.3,0.36,3.41c1.1,0,2.21,0,3.79,0
		C73.72,110.25,74.86,108.56,73.26,108.01z"/>
	<circle style="fill:none;" cx="75.57" cy="99.42" r="2.12"/>
	<path style="fill:none;" d="M77.07,118.92c1.33,0,2.67,0,4,0c0-1.33,0-2.67,0-4c0-1,0-2,0-3c-1.26,0-2.52,0-4,0
		C77.07,114.43,77.07,116.68,77.07,118.92z"/>
	<path style="fill:none;" d="M56.07,97.92c-1,0-2,0-3,0c-1.33,0-2.67,0-4,0c-2.33,0-4.67,0-7,0c0.13,0.94-0.3,1.95,0.31,2.82
		c1.18,0.62,2.64-0.44,3.69,0.67c0,1.19,0,2.35,0,3.51c1,0,2,0,3,0c2.33,0,4.67,0,7,0c0-1.25,0-2.5,0-4c1.5,0,2.75,0,4,0
		c0-1,0-2,0-3C58.74,97.92,57.41,97.92,56.07,97.92z"/>
	<path style="fill:none;" d="M74.07,90.92c1,0,2,0,3,0c0-1.33,0-2.67,0-4c-1,0-2,0-3,0C74.07,88.25,74.07,89.59,74.07,90.92z"/>
	<path style="fill:none;" d="M60.07,139.92c-1.33,0-2.67,0-4,0c0,1,0,2,0,3c1.33,0,2.67,0,4,0
		C60.07,141.92,60.07,140.92,60.07,139.92z"/>
	<path style="fill:none;" d="M21.07,181.92c0,0.92,0,1.84,0,3c1.51,0,2.75,0,4,0c0-1,0-2,0-3
		C23.74,181.92,22.41,181.92,21.07,181.92z"/>
	<ellipse style="fill:none;" cx="72.07" cy="141.42" rx="2.83" ry="2.12"/>
	<path style="fill:none;" d="M14.18,185.24c0,1.2,0,2.3,0,3.54c1.37,0,2.63,0,3.82,0.07c-0.07-1.19-0.07-2.46-0.07-3.75
		C16.56,184.89,15.33,184.69,14.18,185.24z"/>
	<circle style="fill:none;" cx="16.07" cy="172.92" r="2.83"/>
	<path style="fill:none;" d="M24.67,170.76c-1.14,0.62-2.48-0.48-3.6,0.65c0,1.2,0,2.35,0,3.51c1.33,0,2.67,0,4,0
		C24.9,173.65,25.4,172.32,24.67,170.76z"/>
	<path style="fill:#75658D;" d="M24.64,104.92c0.72,1.06,0.31,2.06,0.43,3c1,0,2,0,3,0c0-0.92,0-1.84,0-3c1.51,0,2.75,0,4,0
		c1,0,2,0,3,0c0-1.33,0-2.67,0-4c-2.33,0-4.67,0-7,0c-0.92,0-1.83,0-3,0c0-1.17,0-2.08,0-3c0-1.25,0-2.49,0-4c1.16,0,2.08,0,3,0
		c0-1,0-2,0-3c0-2.28,0-4.56,0-6.78c-9.53,0-18.73,0-27.86,0c0,1,0,1.78,0,2.87c7.01,0,13.9,0,20.76,0c0,4.75,0,9.19,0,13.91
		c-5.7,0-11.3,0-16.9,0c0,1.33,0,2.67,0,4C10.96,104.92,17.85,104.92,24.64,104.92z"/>
	<path style="fill:#75658D;" d="M56.07,146.92c0-1.45,0-2.72,0-4c-2.33,0-4.67,0-7,0c0.17,1.27-0.33,2.6,0.21,3.77
		c1.27,0.68,2.73-0.38,3.79,0.72c0,0.86,0,1.69,0,2.51c2.16,0,4.31,0,6.76,0c0.52,2.18,0.09,4.43,0.28,6.65
		c-1.43,0.68-2.77,0.17-4.04,0.35c0,1.33,0,2.67,0,4c2.33,0,4.67,0,7,0c2.33,0,4.67,0,7,0c0-1.33,0-2.67,0-4c0-2.26,0-4.51,0-6.79
		c1.5-0.26,2.73-0.42,3.86,0.08c0.48,1.28-0.43,2.7,0.71,3.73c0.79-0.2,1.68,0.37,2.28-0.33c0.56-1.23-0.47-2.67,0.68-3.69
		c1.19,0,2.34,0,3.48,0c0-1,0-2,0-3C72.85,146.92,64.62,146.92,56.07,146.92z M66.82,156.67c-0.96,0.58-2.13,0.12-3.67,0.31
		c0-2.51,0-4.61,0-6.7c1.14-0.68,2.3-0.22,3.67-0.39C66.82,152.13,66.82,154.35,66.82,156.67z"/>
	<path style="fill:#75658D;" d="M21.07,181.92c-6.95,0-13.9,0-21,0c0,1.98-0.05,3.63,0.01,5.27c0.06,1.59-0.35,3.24,0.37,4.92
		c4.62,0,9.06,0,13.48,0c0.11,0.98,0.2,1.77,0.29,2.58c2.32,0,4.55,0,6.69,0c0-1.01,0-1.79,0-2.47c-0.95-0.71-2.16,0.22-2.85-0.81
		c0-0.83,0-1.67-0.07-2.57c-1.19-0.07-2.46-0.07-3.82-0.07c0-1.24,0-2.34,0-3.54c1.15-0.54,2.38-0.35,3.75-0.14
		c0,1.29,0,2.56,0.07,3.75c2.4,0.07,4.74,0.07,7.07,0.07c0-1.33,0-2.67,0-4c-1.25,0-2.49,0-4,0
		C21.07,183.76,21.07,182.84,21.07,181.92z"/>
	<path style="fill:#75658D;" d="M11.07,132.92c1,0,2,0,3,0c1.33,0,2.67,0,4,0c1,0,2,0,3,0c1.33,0,2.67,0,4,0c0-1.33,0-2.67,0-4
		c-1.16,0-2.31,0-3.48,0c-0.95-0.78-0.46-1.75-0.35-2.76c1.23-0.57,2.56-0.07,3.83-0.24c0-1.25,0-2.49,0-4c1.16,0,2.08,0,3,0
		c0-1,0-2,0-3c-1,0-2,0-3,0c-1.33,0-2.67,0-4,0c-0.13,0.95,0.3,1.96-0.36,2.88c-0.77,0.08-1.55,0.17-2.55,0.28
		c-0.41,1.19,0.39,2.61-0.46,3.72c-1.14,0-2.25,0-3.43,0c-0.62-1.26,0.36-2.72-0.55-3.75c-0.87,0-1.65,0-2.34,0
		c-0.83,1.27,0.33,2.77-0.64,3.71c-1.27,0-2.38,0-3.4,0c-0.73-1.31,0.35-2.78-0.75-3.84c-0.86,0-1.69,0-2.52,0c0,1.25,0,2.5,0,4
		c-1.5,0-2.75,0-4,0c0,1,0,2,0,3c1.25,0,2.5,0,4,0c0,1.5,0,2.75,0,4c1,0,2,0,3,0C8.41,132.92,9.74,132.92,11.07,132.92z"/>
	<path style="fill:#75658D;" d="M67.07,20.92c0,0.82,0,1.63,0,2.47c-1.02,1.2-2.47,0.11-3.81,0.77c0,2.07,0,4.28,0,6.64
		c1.14,0,2.24,0,3.22,0c1.18,1.22,0.18,2.66,0.72,3.78c0.94,0.61,1.93,0.22,2.87,0.34c0-1.25,0-2.5,0-4c1.5,0,2.75,0,4,0
		c1,0,2,0,3,0c0.12-0.94-0.28-1.93,0.3-2.81c1.16-0.65,2.62,0.43,3.82-0.79c0-1.97,0-4.07,0-6.03c0.9-0.84,2.1,0.17,2.77-0.73
		c0-1.16,0-2.27,0-3.64c-2.36,0-4.62,0-6.88,0c0,1.29,0,2.57,0,3.92c-1.11,0-1.89,0-2.72,0c-0.61-1.31-0.11-2.64-0.28-3.92
		c-1.33,0-2.67,0-4,0c0,1.25,0,2.49,0,4C68.92,20.92,67.99,20.92,67.07,20.92z"/>
	<path style="fill:#75658D;" d="M35.07,157.17c-11.89,0-23.45,0-35.02,0c0.16,1.36-0.3,2.54,0.43,3.75c8.89,0,17.85,0,26.81,0.01
		c0.14,0,0.3,0.08,0.43,0.16c0.14,0.09,0.25,0.21,0.35,0.3c0,2.21,0,4.37,0,6.54c2.33,0,4.67,0,7,0
		C35.07,164.3,35.07,160.69,35.07,157.17z"/>
	<path style="fill:#75658D;" d="M74.07,104.41c-1.12,1.18-2.46,0.09-3.62,0.63c-0.71-1.52-0.21-2.85-0.38-4.12c-1,0-2,0-3,0
		c0,1.16,0,2.31,0,3.49c-1.04,1.18-2.51,0.04-3.7,0.7c-0.64,0.66-0.13,1.53-0.31,2.33c1.07,1.09,2.53,0.03,3.72,0.68
		c0.59,1.04,0.17,2.2,0.29,3.48c-2.16,0.85-4.5-0.09-6.68,0.48c-0.65,0.71-0.17,1.57-0.35,2.51c2.18,0.85,4.51-0.08,6.79,0.52
		c0.56,1.21,0.07,2.54,0.24,3.81c0.94-0.12,1.95,0.29,2.82-0.31c0.62-1.18-0.43-2.64,0.77-3.8c1.01,0.42,2.21-0.32,3.24,0.43
		c0.61,1.16-0.45,2.62,0.66,3.67c0.86,0,1.69,0,2.51,0c0-2.24,0-4.49,0-7c1.48,0,2.74,0,4,0c-0.17-1.27,0.33-2.61-0.22-3.77
		c-1.27-0.68-2.74,0.4-3.78-0.73c0-2.19,0-4.35,0-6.5c-1,0-2,0-3,0C74.07,102.08,74.07,103.24,74.07,104.41z M74.22,111.83
		c-1.58,0-2.69,0-3.79,0c-0.69-1.11-0.22-2.28-0.36-3.41c0.94-1,2.3-0.71,3.19-0.41C74.86,108.56,73.72,110.25,74.22,111.83z"/>
	<path style="fill:#75658D;" d="M56.07,163.92c-0.83,0-1.65,0-2.48,0c-1.05-0.68-0.15-1.86-0.72-2.72c-1.03-0.6-2.2-0.16-3.31-0.28
		c-1.02,0.7-0.11,1.88-0.79,2.84c-0.67,0-1.44,0-2.41,0c-0.82-0.58,0.14-1.78-0.64-2.73c-0.98,0-2.09,0-3.08,0
		c-1.16-1.34-0.2-2.62-0.79-4.11c5.04,0,9.63,0,14.22,0c0-0.83,0-1.65,0-2.48c-0.68-1.05-1.86-0.15-2.8-0.77
		c-0.53-1.15-0.04-2.48-0.21-3.75c-2.27,0-4.53,0-6.75,0c-0.64,1.44,0.31,2.88-0.81,4.1c-2,0-4.1,0-6.27,0c0,3.35,0,6.56,0,9.77
		c0.95,0.1,1.73,0.18,2.82,0.3c0,1.29,0,2.56,0,3.83c4.67,0,9.33,0,14,0C56.07,166.59,56.07,165.25,56.07,163.92z"/>
	<path style="fill:#EDA77E;" d="M32.07,27.92c8,0,16,0,24,0c0-2.24,0-4.48,0-7c-1.14,0-2.07,0-3,0c0,0.83,0,1.65,0,2.54
		c-1.15,0.83-2.42,0.4-3.65,0.34c-0.65-0.93-0.23-1.94-0.35-2.88c-1,0-2,0-3,0c0,0.83,0,1.65,0,2.54c-1.15,0.83-2.42,0.4-3.65,0.34
		c-0.65-0.93-0.23-1.94-0.35-2.88c-1,0-2,0-3,0c0,0.83,0,1.65,0,2.54c-1.15,0.83-2.42,0.4-3.65,0.34c-0.65-0.93-0.23-1.94-0.35-2.88
		c-1,0-2,0-3,0c0,1,0,2,0,3C32.07,25.25,32.07,26.59,32.07,27.92z"/>
	<path style="fill:#75658D;" d="M53.42,10.05c0.88-0.44,2.03,0.41,2.66-0.74c-0.19-0.75,0.38-1.63-0.38-2.29
		c-0.78-0.09-1.56-0.17-2.62-0.29c0-1.27,0-2.55,0-3.82c-1.27-0.17-2.61,0.33-3.75-0.21c-0.62-0.93,0.31-2.13-0.49-2.61
		c-2.4,0-4.52,0-6.75,0c0,1.81-0.05,3.45,0.01,5.08c0.06,1.59-0.32,3.23,0.28,4.74c1.39,0,2.55,0,3.78-0.07
		c0.07-0.87,0.07-1.8,0.07-2.82c0.9,0,1.67,0,2.49,0c0.89,0.78-0.03,1.74,0.66,2.75c-1.43,0-2.35,0-3.22,0.07
		c-0.07,1.4-0.07,2.74-0.07,4.07c2.25,0,4.51,0,6.82,0C53.39,12.51,52.57,11.11,53.42,10.05z"/>
	<path style="fill:#75658D;" d="M59.82,125.92c-2.18,0-4.47,0-6.75,0c0,2.33,0,4.67,0,7c1,0,2,0,3,0c0-1.15,0-2.3,0-3.79
		c5.98-0.46,12-0.09,18-0.21c0-0.93,0-1.86,0-2.67c-1.43-0.77-2.85,0.24-3.89-0.71c-0.43-1.2,0.44-2.59-0.62-3.62
		c-0.86,0-1.67,0-2.55,0.07c-0.07,1.19-0.07,2.46-0.07,3.82c-1.24,0-2.34,0-3.54,0c-0.54-1.15-0.35-2.38-0.14-3.75
		c1.29,0,2.56,0,3.75-0.07c0.07-1.07,0.07-2.07,0.07-3.07c-2.16,0-4.32,0-6.69,0C59.57,121.06,60.47,123.4,59.82,125.92z"/>
	<path style="fill:#75658D;" d="M39.07,177.92c-1.25,0-2.49,0-4,0c0-1.16,0-2.08,0-3c-2.33,0-4.67,0-7,0c0,2.24,0,4.48,0,7
		c-1.14,0-2.07,0-3,0c0,1,0,2,0,3c5.67,0,11.33,0,17,0c0-1,0-2,0-3c-0.93,0-1.86,0-3,0C39.07,180.41,39.07,179.17,39.07,177.92z"/>
	<path style="fill:#EDA77E;" d="M35.07,55.92c1.33,0,2.67,0,4,0c1,0,2,0,3,0c1.33,0,2.67,0,4,0c1,0,2,0,3,0c1.33,0,2.67,0,4,0
		c0-1.25,0-2.49,0-4c1.16,0,2.08,0,3,0c0-1,0-2,0-3c-2.33,0-4.67,0-7,0c0,0.83,0,1.66,0,2.78c-2.21,0.46-4.5,0.15-6.75,0.21
		c-2.3,0.06-4.61,0.01-6.81,0.01c-0.75-1.04-0.31-2.05-0.44-3c-0.92,0-1.83,0-3,0c0,1.17,0,2.08,0,3c0,1.33,0,2.67,0,4
		C33.07,55.92,34.07,55.92,35.07,55.92z"/>
	<path style="fill:#75658D;" d="M67.07,174.92c0,0.92,0,1.84,0,3c-1.51,0-2.75,0-4,0c0,1.33,0,2.67,0,4c3.67,0,7.33,0,11,0
		c0-1.16,0-2.31,0-3.48c0.78-0.95,1.75-0.46,2.76-0.35c0.57,1.23,0.07,2.56,0.24,3.83c1.33,0,2.67,0,4,0
		c0.17-1.27-0.33-2.6,0.21-3.75c0.93-0.62,2.12,0.27,2.8-0.77c0-0.83,0-1.65,0-2.48c-1,0-2,0-3,0
		C76.41,174.92,71.74,174.92,67.07,174.92z"/>
	<path style="fill:#75658D;" d="M14.07,170.92c-4.59,0-9.18,0-13.79,0c0,2.49,0,4.71,0,7c5.82,0,11.42,0,17.03-0.01
		c0.14,0,0.3-0.08,0.42-0.17c0.13-0.09,0.23-0.23,0.34-0.35c0-0.83,0-1.65,0-2.48c-1.25,0-2.5,0-4,0
		C14.07,173.42,14.07,172.17,14.07,170.92z"/>
	<path style="fill:#75658D;" d="M74.07,62.92c-2.33,0-4.67,0-7,0c0,0.82,0,1.64,0,2.5c-1.04,1.12-2.47,0.1-3.67,0.66
		c-0.8,1.17-0.04,2.4-0.47,3.84c4,0,7.57,0,11.14,0c0.17-1.27-0.33-2.61,0.24-3.81c2.29-0.58,4.62,0.31,6.76-0.49
		c0-1.04,0-1.87,0-2.7c-1.33,0-2.67,0-4,0C76.07,62.92,75.07,62.92,74.07,62.92z"/>
	<path style="fill:#75658D;" d="M56.07,20.92c0,2.52,0,4.76,0,7c0,1,0,2,0,3c1.27,0,2.54,0,4,0c0-4.87,0-9.43,0-14
		c-3.57,0-7.14,0-11,0c0,1.46,0,2.73,0,4c1.33,0,2.67,0,4,0C54,20.92,54.93,20.92,56.07,20.92z"/>
	<path style="fill:#75658D;" d="M77.41,14.06c2.16-0.5,4.47,0.33,6.66-0.44c0-1.94,0.07-3.74-0.02-5.54
		c-0.09-1.73,0.37-3.52-0.26-5.16c-1.08,0-1.9,0-2.72,0c-0.17,1.27,0.33,2.6-0.21,3.77c-1.27,0.68-2.73-0.38-3.77,0.7
		c-0.19,0.82,0.34,1.69-0.34,2.36c-0.83,0.52-2.02-0.37-2.67,0.72c0,2.15,0,4.3,0,6.45c1,0,2,0,3,0
		C77.19,15.98,76.79,14.98,77.41,14.06z"/>
	<path style="fill:#75658D;" d="M67.07,167.92c-1.33,0-2.67,0-4,0c-1,0-2,0-3,0c-1.33,0-2.67,0-4,0c0,1,0,2,0,3c1.33,0,2.67,0,4,0
		c7,0,14,0,21,0c0-1,0-2,0-3c-2.33,0-4.67,0-7,0S69.41,167.92,67.07,167.92z"/>
	<path style="fill:#EDA77E;" d="M42.07,62.92c0-1.33,0-2.67,0-4c-1,0-2,0-3,0c-1.33,0-2.67,0-4,0c-0.92,0-1.83,0-3,0
		c0-1.17,0-2.08,0-3c-1.33,0-2.67,0-4,0c0,2.33,0,4.67,0,7c1.33,0,2.67,0,4,0C35.41,62.92,38.74,62.92,42.07,62.92z"/>
	<path style="fill:#120B0B;" d="M21.07,111.92c0-1.33,0-2.67,0-4c-5.67,0-11.33,0-17,0c0,1.33,0,2.67,0,4c4.67,0,9.33,0,14,0
		C19.07,111.92,20.07,111.92,21.07,111.92z"/>
	<path style="fill:#75658D;" d="M24.67,170.76c0.73,1.56,0.23,2.89,0.4,4.16c1,0,2,0,3,0c0-2.33,0-4.67,0-7
		c-2.29,0-4.59-0.04-6.88,0.01c-2.38,0.06-4.79-0.26-7.12,0.19c0,1.16,0,1.97,0,2.79c1.25,0,2.5,0,4,0c0,1.5,0,2.75,0,4c1,0,2,0,3,0
		c0-1.16,0-2.32,0-3.51C22.19,170.28,23.53,171.38,24.67,170.76z"/>
	<path style="fill:#75658D;" d="M39.07,72.92c-1.33,0-2.67,0-4,0c0,1.25,0,2.49,0,4c-1.16,0-2.08,0-3,0c0,1,0,2,0,3
		c3.33,0,6.67,0,10,0c0-2.33,0-4.67,0-7C41.07,72.92,40.07,72.92,39.07,72.92z"/>
	<path style="fill:#75658D;" d="M39.07,174.92c0,1.16,0,2.08,0,3c1,0,2,0,3,0c0-3.33,0-6.67,0-10c-2.33,0-4.67,0-7,0
		c0,2.33,0,4.67,0,7C36.32,174.92,37.56,174.92,39.07,174.92z"/>
	<path style="fill:#75658D;" d="M49.29,185.14c-0.64,1.29,0.4,2.74-0.72,3.78c-0.86,0-1.68,0-2.36,0c0,1.94,0,3.87,0,5.78
		c2.37,0,4.58,0,6.76,0c0-3.3,0-6.39,0-9.55C51.65,184.81,50.43,184.74,49.29,185.14z"/>
	<path style="fill:#75658D;" d="M56.07,191.63c1.48,0.71,2.95-0.37,4,0.79c0.18,0.78-0.35,1.66,0.4,2.4c0.73,0,1.52,0,2.6,0
		c0-3.36,0-6.63,0-9.9c-2.33,0-4.67,0-7,0C56.07,187.2,56.07,189.48,56.07,191.63z"/>
	<path style="fill:#75658D;" d="M77.07,86.92c0,1.33,0,2.67,0,4c1.27,0,2.53,0,4,0c0,2.51,0,4.76,0,7c0.95-0.13,1.96,0.3,3-0.44
		c0-1.71,0.06-3.51-0.02-5.31c-0.08-1.75,0.34-3.56-0.24-5.24C81.39,86.92,79.23,86.92,77.07,86.92z"/>
	<path style="fill:#75658D;" d="M35.38,37.74c-0.61-0.86-0.18-1.87-0.31-2.82c-1,0-2,0-3,0c-1.33,0-2.67,0-4,0c0,1,0,2,0,3
		c1.25,0,2.5,0,4,0c0,1.5,0,2.75,0,4c2.33,0,4.67,0,7,0c0-1.16,0-2.31,0-3.51C38.02,37.3,36.56,38.36,35.38,37.74z"/>
	<path style="fill:#75658D;" d="M77.07,184.92c0,1.26,0,2.53,0,3.63c-1.08,0.75-2.24-0.13-2.96,0.82c0.05,0.77-0.31,1.58,0.37,2.55
		c2.09,0,4.34,0,6.59,0c0.13-0.94-0.3-1.95,0.31-2.82c0.84-0.55,2.02,0.35,2.69-0.71c0-1.16,0-2.31,0-3.47c-1,0-2,0-3,0
		C79.74,184.92,78.41,184.92,77.07,184.92z"/>
	<path style="fill:#75658D;" d="M67.07,55.92c0.92,0,1.83,0,3,0c0,1.17,0,2.08,0,3c1.33,0,2.67,0,4,0c1,0,2,0,3,0
		c-0.13-0.94,0.3-1.95-0.31-2.81c-0.84-0.55-2.02,0.35-2.69-0.72c0-1.16,0-2.31,0-3.47c-2.33,0-4.67,0-7,0
		C67.07,53.25,67.07,54.59,67.07,55.92z"/>
	<path style="fill:#75658D;" d="M42.07,181.92c3.57,0,7.14,0,11,0c0-1.46,0-2.73,0-4c-3.67,0-7.33,0-11,0
		C42.07,179.25,42.07,180.59,42.07,181.92z"/>
	<path style="fill:#75658D;" d="M81.07,72.92c0,1.48,0,2.74,0,4c1,0,2,0,3,0c0-2.26,0-4.52,0-7c-3.51,0-6.75,0-10,0c0,1,0,2,0,3
		C76.31,72.92,78.56,72.92,81.07,72.92z"/>
	<path style="fill:#120B0B;" d="M77.07,48.92c-1,0-2,0-3,0c-2.33,0-4.67,0-7,0c0,1,0,2,0,3c2.33,0,4.67,0,7,0s4.67,0,7,0
		c0-1,0-2,0-3C79.74,48.92,78.41,48.92,77.07,48.92z"/>
	<path style="fill:#75658D;" d="M38.95,16.91c2.38-0.06,4.79,0.26,7.12-0.19c0-1.16,0-1.97,0-2.79c-2.29,0-4.59-0.04-6.88,0.01
		c-2.38,0.06-4.79-0.26-7.12,0.19c0,1.16,0,1.97,0,2.79C34.37,16.92,36.66,16.96,38.95,16.91z"/>
	<path style="fill:#75658D;" d="M28.37,194.71c4.57,0,9.1,0,13.57,0c0-1,0-1.77,0-2.67c-4.71,0-9.29,0-13.85,0
		C28.2,192.86,27.77,193.87,28.37,194.71z"/>
	<path style="fill:#75658D;" d="M60.07,174.92c-1.25,0-2.5,0-4,0c0-1.5,0-2.75,0-4c-0.81,0-1.62,0-2.77,0
		c-0.51,2.28-0.1,4.66-0.23,7c3.33,0,6.67,0,10,0c0-1,0-2,0-3C62.07,174.92,61.07,174.92,60.07,174.92z"/>
	<path style="fill:#120B0B;" d="M28.07,97.92c2.33,0,4.67,0,7,0c0-1.16,0-2.31,0-3.47c-0.67-1.06-1.86-0.16-2.69-0.72
		c-0.6-0.86-0.18-1.87-0.31-2.81c-1.33,0-2.67,0-4,0c0,1,0,2,0,3C28.07,95.25,28.07,96.59,28.07,97.92z"/>
	<path style="fill:#75658D;" d="M77.07,34.92c-1,0-2,0-3,0c0,2.33,0,4.67,0,7c1,0,2,0,3,0c1.33,0,2.67,0,4,0c0-1.33,0-2.67,0-4
		c-1.25,0-2.5,0-4,0C77.07,36.76,77.07,35.84,77.07,34.92z"/>
	<path style="fill:#75658D;" d="M35.07,135.92c-2.33,0-4.67,0-7,0c0,1.33,0,2.67,0,4c1.25,0,2.49,0,4,0c0,1.16,0,2.08,0,3
		c1,0,2,0,3,0c0-1,0-2,0-3C35.07,138.59,35.07,137.25,35.07,135.92z"/>
	<path style="fill:#75658D;" d="M67.07,79.92c0,2.33,0,4.67,0,7c1,0,2,0,3,0c0-0.92,0-1.84,0-3c1.51,0,2.75,0,4,0c0-1.33,0-2.67,0-4
		c-1.33,0-2.67,0-4,0C69.07,79.92,68.07,79.92,67.07,79.92z"/>
	<path style="fill:#75658D;" d="M35.07,142.92c0.17,1.27-0.33,2.6,0.21,3.77c1.27,0.68,2.73-0.38,3.41,0.33
		c0.68,1.17-0.06,2.08,0.76,2.81c0.74,0,1.52,0,2.61,0c0-2.36,0-4.63,0-6.91c-1,0-2,0-3,0C37.74,142.92,36.41,142.92,35.07,142.92z"
		/>
	<ellipse style="fill:#120B0B;" cx="68.57" cy="183.42" rx="7.78" ry="2.12"/>
	<path style="fill:#75658D;" d="M60.38,7c1.03-0.27,1.92,0.31,2.11,0.08c1.08-1.68-0.11-3.15,1.1-4.17c1.18,0,2.33,0,3.48,0
		c-0.12-0.94,0.29-1.93-0.29-2.78c-2.24,0-4.45,0-6.77,0C60.25,2.55,59.74,4.79,60.38,7z"/>
	<path style="fill:#75658D;" d="M39.07,86.92c1,0,2,0,3,0c0-1,0-2,0-3c-1.63,0-3.26-0.08-4.89,0.02c-1.71,0.1-3.49-0.41-5.11,0.28
		c0,1.07,0,1.88,0,2.7c1,0,2,0,3,0C36.41,86.92,37.74,86.92,39.07,86.92z"/>
	<path style="fill:#75658D;" d="M67.43,6.99c2.2-0.27,4.46,0.2,6.64-0.31c0-1.45,0-2.61,0-3.77c-2.33,0-4.67,0-7,0
		C67.25,4.19,66.74,5.53,67.43,6.99z"/>
	<path style="fill:#120B0B;" d="M32.07,65.92c0-1,0-2,0-3c-1.33,0-2.67,0-4,0c0,2.33,0,4.67,0,7c1.33,0,2.67,0,4,0
		C32.07,68.59,32.07,67.25,32.07,65.92z"/>
	<path style="fill:#120B0B;" d="M77.07,135.92c1.33,0,2.67,0,4,0c0-1,0-2,0-3c0-1.33,0-2.67,0-4c-1.33,0-2.67,0-4,0
		c0,1.33,0,2.67,0,4C77.07,133.92,77.07,134.92,77.07,135.92z"/>
	<path style="fill:#EDA77E;" d="M25.07,114.92c-1.33,0-2.67,0-4,0c-1,0-2,0-3,0c0,1.33,0,2.67,0,4c1,0,2,0,3,0c1.33,0,2.67,0,4,0
		C25.07,117.59,25.07,116.25,25.07,114.92z"/>
	<path style="fill:#EDA77E;" d="M0,136.28c0.27,2.2-0.2,4.46,0.31,6.64c1.45,0,2.61,0,3.77,0c0-2.33,0-4.67,0-7
		C2.8,136.09,1.46,135.59,0,136.28z"/>
	<path style="fill:#120B0B;" d="M4.07,111.92c-1.27,0.17-2.61-0.33-4.07,0.36c0.27,2.2-0.2,4.46,0.31,6.64c1.45,0,2.61,0,3.77,0
		c0-1.33,0-2.67,0-4C4.07,113.92,4.07,112.92,4.07,111.92z"/>
	<path style="fill:#75658D;" d="M25.07,174.92c-1.33,0-2.67,0-4,0c0,2.33,0,4.67,0,7c1.33,0,2.67,0,4,0
		C25.07,179.59,25.07,177.25,25.07,174.92z"/>
	<path style="fill:#75658D;" d="M77.07,44.92c0,1.33,0,2.67,0,4c1.33,0,2.67,0,4,0c1,0,2,0,3,0c0-1.33,0-2.67,0-4c-1,0-2,0-3,0
		C79.74,44.92,78.41,44.92,77.07,44.92z"/>
	<path style="fill:#75658D;" d="M7.07,135.92c0,2.33,0,4.67,0,7c1.33,0,2.67,0,4,0c0-2.33,0-4.67,0-7
		C9.74,135.92,8.41,135.92,7.07,135.92z"/>
	<path style="fill:#75658D;" d="M14.07,135.92c0,2.33,0,4.67,0,7c1.33,0,2.67,0,4,0c0-2.33,0-4.67,0-7
		C16.74,135.92,15.41,135.92,14.07,135.92z"/>
	<path style="fill:#75658D;" d="M21.07,135.92c0,2.33,0,4.67,0,7c1.33,0,2.67,0,4,0c0-2.33,0-4.67,0-7
		C23.74,135.92,22.41,135.92,21.07,135.92z"/>
	<path style="fill:#120B0B;" d="M77.07,76.92c0,1,0,2,0,3c1.33,0,2.67,0,4,0c1,0,2,0,3,0c0-1,0-2,0-3c-1,0-2,0-3,0
		C79.74,76.92,78.41,76.92,77.07,76.92z"/>
	<path style="fill:#EDA77E;" d="M74.07,76.92c-1.33,0-2.67,0-4,0c0,1,0,2,0,3c1.33,0,2.67,0,4,0c1,0,2,0,3,0c0-1,0-2,0-3
		C76.07,76.92,75.07,76.92,74.07,76.92z"/>
	<path style="fill:#EDA77E;" d="M42.07,139.92c-1,0-2,0-3,0c0,1,0,2,0,3c1,0,2,0,3,0c1.33,0,2.67,0,4,0c0-1,0-2,0-3
		C44.74,139.92,43.41,139.92,42.07,139.92z"/>
	<path style="fill:#75658D;" d="M83.81,167.66c0-2.32,0-4.54,0-6.74c-1.09,0-1.91,0-2.74,0c0,2.33,0,4.67,0,7
		C82.02,167.79,83.03,168.22,83.81,167.66z"/>
	<path style="fill:#EDA77E;" d="M56.07,182.15c0,1.15,0,1.96,0,2.77c2.33,0,4.67,0,7,0c0-1,0-2,0-3
		C60.73,182.05,58.35,181.63,56.07,182.15z"/>
	<path style="fill:#75658D;" d="M70.07,10.01c-1.11,0-1.89,0-3,0c0,2.35,0,4.63,0,6.91c1,0,2,0,3,0
		C70.07,14.64,70.07,12.36,70.07,10.01z"/>
	<path style="fill:#75658D;" d="M63.07,10.01c-1.11,0-1.89,0-3,0c0,2.35,0,4.63,0,6.91c1,0,2,0,3,0
		C63.07,14.64,63.07,12.36,63.07,10.01z"/>
	<path style="fill:#75658D;" d="M80.82,0.18c-2.32,0-4.54,0-6.74,0c0,1.09,0,1.91,0,2.74c2.33,0,4.67,0,7,0
		C80.94,1.98,81.37,0.96,80.82,0.18z"/>
	<circle style="fill:#EDA77E;" cx="2.07" cy="130.92" r="2.83"/>
	<path style="fill:#EDA77E;" d="M81.07,34.92c0-1.33,0-2.67,0-4c-1.33,0-2.67,0-4,0c0,1.33,0,2.67,0,4
		C78.41,34.92,79.74,34.92,81.07,34.92z"/>
	<path style="fill:#120B0B;" d="M28.07,37.92c0,1.33,0,2.67,0,4c1.33,0,2.67,0,4,0c0-1.25,0-2.5,0-4
		C30.57,37.92,29.32,37.92,28.07,37.92z"/>
	<path style="fill:#75658D;" d="M80.69,156.8c-1.16,0.54-2.5-0.56-3.62,0.63c0,1.17,0,2.33,0,3.49c1.33,0,2.67,0,4,0
		C80.9,159.65,81.4,158.32,80.69,156.8z"/>
	<path style="fill:#EDA77E;" d="M74.07,160.92c0-1.25,0-2.5,0-4c-1.5,0-2.75,0-4,0c0,1.33,0,2.67,0,4
		C71.41,160.92,72.74,160.92,74.07,160.92z"/>
	<path style="fill:#EDA77E;" d="M32.07,16.92c-1.25,0-2.5,0-4,0c0,1.5,0,2.75,0,4c1.33,0,2.67,0,4,0
		C32.07,19.59,32.07,18.25,32.07,16.92z"/>
	<path style="fill:#75658D;" d="M67.07,20.92c0-1.33,0-2.67,0-4c-1.33,0-2.67,0-4,0c0,1.25,0,2.5,0,4
		C64.57,20.92,65.82,20.92,67.07,20.92z"/>
	<circle style="fill:#75658D;" cx="44.07" cy="186.92" r="2.83"/>
	<path style="fill:#EDA77E;" d="M4.07,100.92c-1.25,0-2.5,0-4,0c0,1.5,0,2.75,0,4c1.33,0,2.67,0,4,0
		C4.07,103.59,4.07,102.25,4.07,100.92z"/>
	<path style="fill:#120B0B;" d="M32.07,30.92c-1.33,0-2.67,0-4,0c0,1.33,0,2.67,0,4c1.33,0,2.67,0,4,0
		C32.07,33.59,32.07,32.25,32.07,30.92z"/>
	<path style="fill:#75658D;" d="M39.07,44.92c-1.25,0-2.5,0-4,0c0,1.5,0,2.75,0,4c1.33,0,2.67,0,4,0
		C39.07,47.59,39.07,46.25,39.07,44.92z"/>
	<path style="fill:#75658D;" d="M46.07,79.92c-1.33,0-2.67,0-4,0c0,1.33,0,2.67,0,4c1.33,0,2.67,0,4,0
		C46.07,82.59,46.07,81.25,46.07,79.92z"/>
	<path style="fill:#75658D;" d="M32.07,51.92c-1.25,0-2.5,0-4,0c0,1.5,0,2.75,0,4c1.33,0,2.67,0,4,0
		C32.07,54.59,32.07,53.25,32.07,51.92z"/>
	<path style="fill:#75658D;" d="M32.07,23.92c-1.33,0-2.67,0-4,0c0,1.33,0,2.67,0,4c1.33,0,2.67,0,4,0
		C32.07,26.59,32.07,25.25,32.07,23.92z"/>
	<circle style="fill:#120B0B;" cx="2.07" cy="123.92" r="2.83"/>
	<path style="fill:#120B0B;" d="M81.07,62.92c0-1.33,0-2.67,0-4c-1.33,0-2.67,0-4,0c0,1.33,0,2.67,0,4
		C78.41,62.92,79.74,62.92,81.07,62.92z"/>
	<path style="fill:#120B0B;" d="M14.07,114.92c0,1.33,0,2.67,0,4c1.33,0,2.67,0,4,0c0-1.33,0-2.67,0-4
		C16.74,114.92,15.41,114.92,14.07,114.92z"/>
	<path style="fill:#120B0B;" d="M7.07,114.92c0,1.33,0,2.67,0,4c1.33,0,2.67,0,4,0c0-1.33,0-2.67,0-4
		C9.74,114.92,8.41,114.92,7.07,114.92z"/>
	<path style="fill:#EDA77E;" d="M11.07,114.92c0,1.33,0,2.67,0,4c1,0,2,0,3,0c0-1.33,0-2.67,0-4
		C13.07,114.92,12.07,114.92,11.07,114.92z"/>
	<path style="fill:#EDA77E;" d="M4.07,114.92c0,1.33,0,2.67,0,4c1,0,2,0,3,0c0-1.33,0-2.67,0-4C6.07,114.92,5.07,114.92,4.07,114.92
		z"/>
	<path style="fill:#EDA77E;" d="M84.14,62.44c-0.49-1.06,0.6-2.4-0.58-3.52c-0.84,0-1.66,0-2.49,0c0,1.33,0,2.67,0,4
		C82.02,62.79,83.02,63.22,84.14,62.44z"/>
	<path style="fill:#120B0B;" d="M32.07,20.92c-1.33,0-2.67,0-4,0c0,1,0,2,0,3c1.33,0,2.67,0,4,0
		C32.07,22.92,32.07,21.92,32.07,20.92z"/>
	<path style="fill:#75658D;" d="M81.07,118.92c0.92,0,1.84,0,3,0c0-1.51,0-2.75,0-4c-1,0-2,0-3,0
		C81.07,116.25,81.07,117.59,81.07,118.92z"/>
	<path style="fill:#EDA77E;" d="M28.07,69.92c0,0.92,0,1.84,0,3c1.51,0,2.75,0,4,0c0-1,0-2,0-3C30.74,69.92,29.41,69.92,28.07,69.92
		z"/>
	<path style="fill:#75658D;" d="M77.43,121.8c1.22,0.06,2.5,0.49,3.65-0.34c0-0.89,0-1.72,0-2.54c-1.33,0-2.67,0-4,0
		C77.2,119.86,76.78,120.87,77.43,121.8z"/>
	<path style="fill:#120B0B;" d="M35.43,23.8c1.22,0.06,2.5,0.49,3.65-0.34c0-0.89,0-1.72,0-2.54c-1.33,0-2.67,0-4,0
		C35.2,21.86,34.78,22.87,35.43,23.8z"/>
	<path style="fill:#75658D;" d="M81.07,125.92c-1.25,0-2.49,0-4,0c0,1.14,0,2.07,0,3c1.33,0,2.67,0,4,0
		C81.07,127.92,81.07,126.92,81.07,125.92z"/>
	<path style="fill:#120B0B;" d="M42.43,23.8c1.22,0.06,2.5,0.49,3.65-0.34c0-0.89,0-1.72,0-2.54c-1.33,0-2.67,0-4,0
		C42.2,21.86,41.78,22.87,42.43,23.8z"/>
	<path style="fill:#75658D;" d="M81.36,55.84c0.83,0,1.61,0,2.72,0c0-1.34,0-2.63,0-3.92c-1,0-2,0-3,0
		C81.24,53.19,80.74,54.52,81.36,55.84z"/>
	<path style="fill:#75658D;" d="M77.07,132.92c0-1.33,0-2.67,0-4c-1,0-2,0-3,0c0,1.33,0,2.67,0,4
		C75.07,132.92,76.07,132.92,77.07,132.92z"/>
	<path style="fill:#EDA77E;" d="M81.07,132.92c0.92,0,1.84,0,3,0c0-1.51,0-2.75,0-4c-1,0-2,0-3,0
		C81.07,130.25,81.07,131.59,81.07,132.92z"/>
	<path style="fill:#EDA77E;" d="M32.07,27.92c-1.33,0-2.67,0-4,0c0,1,0,2,0,3c1.33,0,2.67,0,4,0
		C32.07,29.92,32.07,28.92,32.07,27.92z"/>
	<path style="fill:#120B0B;" d="M84.07,174.92c0-1.25,0-2.49,0-4c-1.14,0-2.07,0-3,0c0,1.33,0,2.67,0,4
		C82.07,174.92,83.07,174.92,84.07,174.92z"/>
	<path style="fill:#EDA77E;" d="M28.24,77.16c-0.11,1.01-0.6,1.98,0.35,2.76c1.16,0,2.32,0,3.48,0c0-1,0-2,0-3
		C30.8,77.09,29.47,76.59,28.24,77.16z"/>
	<path style="fill:#120B0B;" d="M0.07,104.92c0,0.92,0,1.84,0,3c1.51,0,2.75,0,4,0c0-1,0-2,0-3C2.74,104.92,1.41,104.92,0.07,104.92
		z"/>
	<path style="fill:#75658D;" d="M83.57,100.92c-0.88,0-1.69,0-2.36,0c0,1.26,0,2.52,0,3.74c1.04,0.31,1.95,0.57,2.81-0.18
		C83.91,103.29,84.53,101.99,83.57,100.92z"/>
	<path style="fill:#75658D;" d="M81.36,83.84c0.83,0,1.61,0,2.72,0c0-1.34,0-2.63,0-3.92c-1,0-2,0-3,0
		C81.24,81.19,80.74,82.52,81.36,83.84z"/>
	<path style="fill:#120B0B;" d="M84.07,139.92c0-1.25,0-2.49,0-4c-1.14,0-2.07,0-3,0c0,1.33,0,2.67,0,4
		C82.07,139.92,83.07,139.92,84.07,139.92z"/>
	<path style="fill:#EDA77E;" d="M28.07,139.92c0,1,0,2,0,3c1.33,0,2.67,0,4,0c0-0.92,0-1.84,0-3
		C30.56,139.92,29.32,139.92,28.07,139.92z"/>
	<ellipse style="fill:#75658D;" cx="79.07" cy="99.42" rx="2.83" ry="2.12"/>
	<path style="fill:#75658D;" d="M4.32,146.75c1.01,0.11,1.98,0.6,2.76-0.35c0-1.16,0-2.32,0-3.48c-1,0-2,0-3,0
		C4.24,144.19,3.74,145.52,4.32,146.75z"/>
	<path style="fill:#75658D;" d="M11.36,146.84c0.83,0,1.61,0,2.72,0c0-1.34,0-2.63,0-3.92c-1,0-2,0-3,0
		C11.24,144.19,10.74,145.52,11.36,146.84z"/>
	<path style="fill:#75658D;" d="M18.32,146.75c1.01,0.11,1.98,0.6,2.76-0.35c0-1.16,0-2.32,0-3.48c-1,0-2,0-3,0
		C18.24,144.19,17.74,145.52,18.32,146.75z"/>
	<path style="fill:#75658D;" d="M25.07,146.92c1.14,0,2.07,0,3,0c0-1.33,0-2.67,0-4c-1,0-2,0-3,0
		C25.07,144.17,25.07,145.41,25.07,146.92z"/>
	<path style="fill:#75658D;" d="M28.43,44.8c1.22,0.06,2.5,0.49,3.65-0.34c0-0.89,0-1.72,0-2.54c-1.33,0-2.67,0-4,0
		C28.2,42.86,27.78,43.87,28.43,44.8z"/>
	<path style="fill:#75658D;" d="M81.07,146.92c1,0,2,0,3,0c0-1.33,0-2.67,0-4c-1,0-2,0-3,0C81.07,144.25,81.07,145.59,81.07,146.92z
		"/>
	<path style="fill:#120B0B;" d="M28.53,149.98c1.03-0.45,2.3,0.49,3.42-0.42c0-0.83,0-1.6,0-2.5c-1.36,0-2.62,0-3.87,0
		C28.18,147.85,27.81,148.83,28.53,149.98z"/>
	<path style="fill:#75658D;" d="M81.32,153.75c1.01,0.11,1.98,0.6,2.76-0.35c0-1.16,0-2.32,0-3.48c-1,0-2,0-3,0
		C81.24,151.19,80.74,152.52,81.32,153.75z"/>
	<path style="fill:#120B0B;" d="M35.07,86.92c-1,0-2,0-3,0c0,1.33,0,2.67,0,4c0.92,0,1.84,0,3,0
		C35.07,89.41,35.07,88.17,35.07,86.92z"/>
	<path style="fill:#120B0B;" d="M28.63,2.99c0.98-0.52,2.32,0.55,3.53-0.64c-0.39-0.69,0.32-1.59-0.5-2.35c-1.04,0-2.15,0-3.69,0
		C28.25,1.2,27.73,2.07,28.63,2.99z"/>
	<path style="fill:#120B0B;" d="M84.07,34.92c0-1.25,0-2.49,0-4c-1.16,0-2.08,0-3,0c0,1.33,0,2.67,0,4
		C82.07,34.92,83.07,34.92,84.07,34.92z"/>
	<path style="fill:#120B0B;" d="M3.98,93.57c0-0.77,0-1.55,0-2.32c-3.76-0.29-3.76-0.29-3.73,2.75C1.47,93.65,2.7,94.33,3.98,93.57z
		"/>
	<path style="fill:#75658D;" d="M77.07,163.92c0-1.17,0-2.08,0-3c-1,0-2,0-3,0c0,1,0,2,0,3C74.99,163.92,75.91,163.92,77.07,163.92z
		"/>
	<path style="fill:#75658D;" d="M81.07,37.92c0.92,0,1.83,0,3,0c0-1.17,0-2.08,0-3c-1,0-2,0-3,0
		C81.07,35.92,81.07,36.92,81.07,37.92z"/>
	<circle style="fill:#EDA77E;" cx="82.57" cy="148.42" r="2.12"/>
	<circle style="fill:#75658D;" cx="40.57" cy="43.42" r="2.12"/>
	<circle style="fill:#EDA77E;" cx="82.57" cy="141.42" r="2.12"/>
	<circle style="fill:#120B0B;" cx="47.57" cy="141.42" r="2.12"/>
	<path style="fill:#120B0B;" d="M84.07,44.92c0-0.92,0-1.83,0-3c-1.17,0-2.08,0-3,0c0,1,0,2,0,3
		C82.07,44.92,83.07,44.92,84.07,44.92z"/>
	<circle style="fill:#EDA77E;" cx="82.57" cy="50.42" r="2.12"/>
	<circle style="fill:#EDA77E;" cx="5.57" cy="134.42" r="2.12"/>
	<path style="fill:#120B0B;" d="M84.07,128.92c0-0.92,0-1.83,0-3c-1.17,0-2.08,0-3,0c0,1,0,2,0,3
		C82.07,128.92,83.07,128.92,84.07,128.92z"/>
	<path style="fill:#120B0B;" d="M84.07,114.92c0-0.92,0-1.83,0-3c-1.17,0-2.08,0-3,0c0,1,0,2,0,3
		C82.07,114.92,83.07,114.92,84.07,114.92z"/>
	<circle style="fill:#120B0B;" cx="33.57" cy="71.42" r="2.12"/>
	<circle style="fill:#EDA77E;" cx="75.57" cy="183.42" r="2.12"/>
	<path style="fill:#EDA77E;" d="M84.07,184.92c0-0.92,0-1.83,0-3c-1.17,0-2.08,0-3,0c0,1,0,2,0,3
		C82.07,184.92,83.07,184.92,84.07,184.92z"/>
	<path style="fill:#75658D;" d="M77.07,86.92c0-0.92,0-1.83,0-3c-1.17,0-2.08,0-3,0c0,1,0,2,0,3
		C75.07,86.92,76.07,86.92,77.07,86.92z"/>
	<path style="fill:#75658D;" d="M55.7,0.03c-0.82,0-1.58,0-2.49,0c0,1.02,0,1.95,0,2.75c0.79,0,1.71,0,3.15,0
		C55.67,1.77,56.59,0.81,55.7,0.03z"/>
	<circle style="fill:#75658D;" cx="26.57" cy="190.42" r="2.12"/>
	<path style="fill:#75658D;" d="M69.55,188.92c-0.66,0-1.32,0-2.01,0c-0.74,1.01-0.78,2.01,0.03,3.01c0.8-0.19,1.66,0.34,2.36-0.36
		C69.99,190.66,70.51,189.68,69.55,188.92z"/>
	<path style="fill:#75658D;" d="M81.21,194.67c1.05,0.29,1.95,0.56,2.75-0.14c0-0.79,0-1.56,0-2.46c-1.02,0-1.95,0-2.75,0
		C81.21,192.86,81.21,193.78,81.21,194.67z"/>
	<path style="fill:#120B0B;" d="M39.07,107.92c0-1,0-2,0-3c-1.33,0-2.67,0-4,0c-1,0-2,0-3,0c0,0.93,0,1.86,0,3
		C34.6,107.92,36.83,107.92,39.07,107.92z"/>
	<path style="fill:#120B0B;" d="M28.07,111.92c0-1.51,0-2.75,0-4c-1,0-2,0-3,0c0,1.33,0,2.67,0,4
		C25.99,111.92,26.92,111.92,28.07,111.92z"/>
	<path style="fill:#120B0B;" d="M25.07,97.92c0,0.92,0,1.83,0,3c1.17,0,2.08,0,3,0c0-1,0-2,0-3C27.07,97.92,26.07,97.92,25.07,97.92
		z"/>
	<path style="fill:#EDA77E;" d="M74.07,142.92c-1.33,0-2.67,0-4,0c-1,0-2,0-3,0c-1.33,0-2.67,0-4,0c-1,0-2,0-3,0c-1.33,0-2.67,0-4,0
		c0,1.28,0,2.55,0,4c8.55,0,16.77,0,25,0c0-1.33,0-2.67,0-4c-1.33,0-2.67,0-4,0C76.07,142.92,75.07,142.92,74.07,142.92z"/>
	<path style="fill:#120B0B;" d="M63.07,160.92c0,1,0,2,0,3c1.25,0,2.5,0,4,0c0,1.5,0,2.75,0,4c2.33,0,4.67,0,7,0c0-1.33,0-2.67,0-4
		c0-1,0-2,0-3c-1.33,0-2.67,0-4,0C67.74,160.92,65.41,160.92,63.07,160.92z"/>
	<path style="fill:#EDA77E;" d="M56.07,167.92c1.33,0,2.67,0,4,0c0-1.25,0-2.5,0-4c1.16,0,2.08,0,3,0c0-1,0-2,0-3
		c-2.33,0-4.67,0-7,0c0,1,0,2,0,3C56.07,165.25,56.07,166.59,56.07,167.92z"/>
	<path style="fill:#EDA77E;" d="M56.07,139.92c-1,0-2,0-3,0c-1.33,0-2.67,0-4,0c0,1,0,2,0,3c2.33,0,4.67,0,7,0
		C56.07,141.92,56.07,140.92,56.07,139.92z"/>
	<path style="fill:#120B0B;" d="M35.07,118.92c-2.33,0-4.67,0-7,0c0,1,0,2,0,3c2.33,0,4.67,0,7,0
		C35.07,120.92,35.07,119.92,35.07,118.92z"/>
	<path style="fill:#120B0B;" d="M25.07,114.92c0,1.33,0,2.67,0,4c1,0,2,0,3,0c0-1.33,0-2.67,0-4
		C27.07,114.92,26.07,114.92,25.07,114.92z"/>
	<path style="fill:#120B0B;" d="M7.07,132.92c0,1,0,2,0,3c1.33,0,2.67,0,4,0c0-1,0-2,0-3C9.74,132.92,8.41,132.92,7.07,132.92z"/>
	<path style="fill:#120B0B;" d="M14.07,132.92c0,1,0,2,0,3c1.33,0,2.67,0,4,0c0-1,0-2,0-3C16.74,132.92,15.41,132.92,14.07,132.92z"
		/>
	<path style="fill:#120B0B;" d="M21.07,132.92c0,1,0,2,0,3c1.33,0,2.67,0,4,0c0-1,0-2,0-3C23.74,132.92,22.41,132.92,21.07,132.92z"
		/>
	<circle style="fill:#EDA77E;" cx="19.57" cy="134.42" r="2.12"/>
	<circle style="fill:#EDA77E;" cx="12.57" cy="134.42" r="2.12"/>
	<path style="fill:#EDA77E;" d="M70.07,30.92c0,1.5,0,2.75,0,4c1.33,0,2.67,0,4,0c0-1.33,0-2.67,0-4
		C72.82,30.92,71.57,30.92,70.07,30.92z"/>
	<path style="fill:#120B0B;" d="M74.07,34.92c1,0,2,0,3,0c0-1.33,0-2.67,0-4c-1,0-2,0-3,0C74.07,32.25,74.07,33.59,74.07,34.92z"/>
	<path style="fill:#120B0B;" d="M49.43,23.8c1.22,0.06,2.5,0.49,3.65-0.34c0-0.89,0-1.72,0-2.54c-1.33,0-2.67,0-4,0
		C49.2,21.86,48.78,22.87,49.43,23.8z"/>
	<path style="fill:#EDA77E;" d="M56.07,135.92c0,1.51,0,2.75,0,4c1.33,0,2.67,0,4,0c0-1.29,0-2.57,0-3.92c1.11,0,1.89,0,2.72,0
		c0.61,1.31,0.11,2.64,0.28,3.92c1.33,0,2.67,0,4,0c0-1.16,0-2.31,0-3.48c0.78-0.95,1.75-0.46,2.76-0.35
		c0.57,1.23,0.07,2.56,0.24,3.83c1.33,0,2.67,0,4,0c0-1.25,0-2.49,0-4c1.16,0,2.08,0,3,0c0-1,0-2,0-3c-1,0-2,0-3,0c-6,0-12,0-18,0
		c-1,0-2,0-3,0c0,1,0,2,0,3C54,135.92,54.93,135.92,56.07,135.92z"/>
	<path style="fill:#75658D;" d="M60.07,51.92c2.33,0,4.67,0,7,0c0-1,0-2,0-3c-1.25,0-2.5,0-4,0c0-1.5,0-2.75,0-4c-1,0-2,0-3,0
		c-1.25,0-2.49,0-4,0c0-1.16,0-2.08,0-3c-1,0-2,0-3,0c0,0.92,0,1.84,0,3c-1.51,0-2.75,0-4,0c0,1.33,0,2.67,0,4c2.33,0,4.67,0,7,0
		c1.25,0,2.49,0,4,0C60.07,50.08,60.07,51,60.07,51.92z"/>
	<path style="fill:#75658D;" d="M56.07,58.92c2.33,0,4.67,0,7,0c0-1,0-2,0-3c-1,0-2,0-3,0c-1.33,0-2.67,0-4,0c-1,0-2,0-3,0
		c-1.33,0-2.67,0-4,0c0,1,0,2,0,3C51.41,58.92,53.74,58.92,56.07,58.92z"/>
	<path style="fill:#120B0B;" d="M35.51,51.92c2.2,0,4.51,0.04,6.81-0.01c2.26-0.05,4.54,0.25,6.75-0.21c0-1.12,0-1.95,0-2.78
		c-1,0-2,0-3,0c-1.33,0-2.67,0-4,0c-1,0-2,0-3,0c-1.33,0-2.67,0-4,0C35.2,49.87,34.77,50.88,35.51,51.92z"/>
	<path style="fill:#75658D;" d="M46.07,55.92c-1.33,0-2.67,0-4,0c0,1,0,2,0,3c1.33,0,2.67,0,4,0
		C46.07,57.92,46.07,56.92,46.07,55.92z"/>
	<path style="fill:#75658D;" d="M35.07,55.92c0,1,0,2,0,3c1.33,0,2.67,0,4,0c0-1,0-2,0-3C37.74,55.92,36.41,55.92,35.07,55.92z"/>
	<path style="fill:#120B0B;" d="M56.07,51.92c-0.92,0-1.84,0-3,0c0,1.51,0,2.75,0,4c1,0,2,0,3,0
		C56.07,54.59,56.07,53.25,56.07,51.92z"/>
	<path style="fill:#EDA77E;" d="M60.07,174.92c1,0,2,0,3,0c1.33,0,2.67,0,4,0c4.67,0,9.33,0,14,0c0-1.33,0-2.67,0-4c-7,0-14,0-21,0
		C60.07,172.25,60.07,173.59,60.07,174.92z"/>
	<ellipse style="fill:#120B0B;" cx="79.07" cy="183.42" rx="2.83" ry="2.12"/>
	<path style="fill:#120B0B;" d="M67.07,62.92c2.33,0,4.67,0,7,0c0-1.33,0-2.67,0-4c-1.33,0-2.67,0-4,0c-1,0-2,0-3,0
		C67.07,60.25,67.07,61.59,67.07,62.92z"/>
	<path style="fill:#EDA77E;" d="M74.07,62.92c1,0,2,0,3,0c0-1.33,0-2.67,0-4c-1,0-2,0-3,0C74.07,60.25,74.07,61.59,74.07,62.92z"/>
	<path style="fill:#EDA77E;" d="M67.07,167.92c0-1.25,0-2.5,0-4c-1.5,0-2.75,0-4,0c0,1.33,0,2.67,0,4
		C64.41,167.92,65.74,167.92,67.07,167.92z"/>
	<path style="fill:#120B0B;" d="M60.07,174.92c0-1.33,0-2.67,0-4c-1.33,0-2.67,0-4,0c0,1.25,0,2.5,0,4
		C57.57,174.92,58.82,174.92,60.07,174.92z"/>
	<path style="fill:#120B0B;" d="M60.07,167.92c1,0,2,0,3,0c0-1.33,0-2.67,0-4c-0.92,0-1.84,0-3,0
		C60.07,165.42,60.07,166.67,60.07,167.92z"/>
	<path style="fill:#120B0B;" d="M46.07,58.92c-1.33,0-2.67,0-4,0c0,1.33,0,2.67,0,4c1.33,0,2.67,0,4,0
		C46.07,61.59,46.07,60.25,46.07,58.92z"/>
	<path style="fill:#EDA77E;" d="M25.07,107.92c-1.33,0-2.67,0-4,0c0,1.33,0,2.67,0,4c1.33,0,2.67,0,4,0
		C25.07,110.59,25.07,109.25,25.07,107.92z"/>
	<circle style="fill:#75658D;" cx="19.57" cy="113.42" r="2.12"/>
	<path style="fill:#120B0B;" d="M42.07,69.92c-1,0-2,0-3,0c0,1,0,2,0,3c1,0,2,0,3,0c1.33,0,2.67,0,4,0c0-1,0-2,0-3
		C44.74,69.92,43.41,69.92,42.07,69.92z"/>
	<path style="fill:#EDA77E;" d="M39.07,69.92c-1.33,0-2.67,0-4,0c0,1,0,2,0,3c1.33,0,2.67,0,4,0
		C39.07,71.92,39.07,70.92,39.07,69.92z"/>
	<path style="fill:#EDA77E;" d="M32.07,30.92c0,1.33,0,2.67,0,4c1,0,2,0,3,0c1.33,0,2.67,0,4,0c0-1.33,0-2.67,0-4
		C36.74,30.92,34.41,30.92,32.07,30.92z"/>
	<path style="fill:#120B0B;" d="M60.07,55.92c1,0,2,0,3,0c1.33,0,2.67,0,4,0c0-1.33,0-2.67,0-4c-2.33,0-4.67,0-7,0
		C60.07,53.25,60.07,54.59,60.07,55.92z"/>
	<path style="fill:#75658D;" d="M67.07,44.92c0,1.33,0,2.67,0,4c2.33,0,4.67,0,7,0c0-1.33,0-2.67,0-4
		C71.74,44.92,69.41,44.92,67.07,44.92z"/>
	<path style="fill:#EDA77E;" d="M32.38,93.73c0.84,0.55,2.02-0.35,2.69,0.72c0,1.16,0,2.31,0,3.47c2.33,0,4.67,0,7,0
		c0-1.16,0-2.32,0-3.48c-0.68-1.04-1.87-0.16-3-0.89c0-2.07,0-4.35,0-6.63c-1.33,0-2.67,0-4,0c0,1.25,0,2.49,0,4c-1.16,0-2.08,0-3,0
		C32.2,91.86,31.78,92.87,32.38,93.73z"/>
	<path style="fill:#120B0B;" d="M63.07,44.92c1.33,0,2.67,0,4,0c2.33,0,4.67,0,7,0c1,0,2,0,3,0c0-1,0-2,0-3c-1,0-2,0-3,0
		c-1.33,0-2.67,0-4,0c-1,0-2,0-3,0c-1.33,0-2.67,0-4,0c-1,0-2,0-3,0c0,1,0,2,0,3C61.07,44.92,62.07,44.92,63.07,44.92z"/>
	<ellipse style="fill:#EDA77E;" cx="79.07" cy="43.42" rx="2.83" ry="2.12"/>
	<path style="fill:#120B0B;" d="M42.07,135.92c0-1,0-2,0-3c-2.33,0-4.67,0-7,0c-2.33,0-4.67,0-7,0c0,1,0,2,0,3c2.33,0,4.67,0,7,0
		c1.33,0,2.67,0,4,0C40.07,135.92,41.07,135.92,42.07,135.92z"/>
	<path style="fill:#EDA77E;" d="M35.07,135.92c0,1.33,0,2.67,0,4c1.33,0,2.67,0,4,0c0-1.33,0-2.67,0-4
		C37.74,135.92,36.41,135.92,35.07,135.92z"/>
	<path style="fill:#120B0B;" d="M60.07,79.92c1,0,2,0,3,0c1.33,0,2.67,0,4,0c1,0,2,0,3,0c0-1,0-2,0-3c-4.67,0-9.33,0-14,0
		c0,1,0,2,0,3C57.41,79.92,58.74,79.92,60.07,79.92z"/>
	<path style="fill:#120B0B;" d="M49,93.85c-0.87-0.07-1.8-0.07-2.82-0.07c0-0.91,0-1.67,0-2.46c0.8-0.7,1.7-0.43,2.75-0.14
		C48.93,92.06,48.93,92.98,49,93.85c1.4,0.07,2.74,0.07,4.07,0.07c0-0.92,0-1.83,0-3c1.17,0,2.08,0,3,0c0-1.33,0-2.67,0-4
		c-1,0-2,0-3,0c-1.33,0-2.67,0-4,0c-1,0-2,0-3,0c-1.33,0-2.67,0-4,0c-1,0-2,0-3,0c0,2.28,0,4.56,0,6.63c1.13,0.73,2.32-0.15,3,0.89
		c0,1.16,0,2.32,0,3.48c2.33,0,4.67,0,7,0C49.07,96.59,49.07,95.25,49,93.85z"/>
	<path style="fill:#75658D;" d="M32.07,65.92c0,1.33,0,2.67,0,4c1,0,2,0,3,0c0-1.25,0-2.49,0-4C33.92,65.92,32.99,65.92,32.07,65.92
		z"/>
	<path style="fill:#75658D;" d="M77.07,139.92c1.33,0,2.67,0,4,0c0-1.33,0-2.67,0-4c-1.33,0-2.67,0-4,0
		C77.07,137.25,77.07,138.59,77.07,139.92z"/>
	<path style="fill:#75658D;" d="M74.07,72.92c-1.25,0-2.5,0-4,0c0,1.5,0,2.75,0,4c1.33,0,2.67,0,4,0
		C74.07,75.59,74.07,74.25,74.07,72.92z"/>
	<path style="fill:#75658D;" d="M39.07,135.92c0,1.33,0,2.67,0,4c1,0,2,0,3,0c0-1.33,0-2.67,0-4
		C41.07,135.92,40.07,135.92,39.07,135.92z"/>
	<ellipse style="fill:#120B0B;" cx="79.07" cy="141.42" rx="2.83" ry="2.12"/>
	<path style="fill:#120B0B;" d="M49.07,111.92c-1,0-2,0-3,0c-1.33,0-2.67,0-4,0c-1,0-2,0-3,0c-2.34,0.13-4.72-0.29-7,0.23
		c0,1.15,0,1.96,0,2.77c1,0,2,0,3,0c1.33,0,2.67,0,4,0c1,0,2,0,3,0c2.33,0,4.67,0,7,0c1.33,0,2.67,0,4,0c0.92,0,1.83,0,3,0
		c0-1.17,0-2.08,0-3c-1,0-2,0-3,0C51.74,111.92,50.41,111.92,49.07,111.92z"/>
	<path style="fill:#75658D;" d="M35.07,114.92c-1,0-2,0-3,0c-1.33,0-2.67,0-4,0c0,1.33,0,2.67,0,4c2.33,0,4.67,0,7,0
		C35.07,117.59,35.07,116.25,35.07,114.92z"/>
	<path style="fill:#75658D;" d="M39.07,107.92c0,1.33,0,2.67,0,4c1,0,2,0,3,0c0-1.33,0-2.67,0-4
		C41.07,107.92,40.07,107.92,39.07,107.92z"/>
	<path style="fill:#EDA77E;" d="M39.07,107.92c1,0,2,0,3,0c1.33,0,2.67,0,4,0c1,0,2,0,3,0c0-1,0-2,0-3c-1,0-2,0-3,0
		c-2.33,0-4.67,0-7,0C39.07,105.92,39.07,106.92,39.07,107.92z"/>
	<path style="fill:#75658D;" d="M39.07,104.92c2.33,0,4.67,0,7,0c0-1.16,0-2.31,0-3.51c-1.05-1.12-2.51-0.05-3.69-0.67
		c-0.61-0.86-0.18-1.87-0.31-2.82c-2.33,0-4.67,0-7,0c0,1,0,2,0,3c1.25,0,2.5,0,4,0C39.07,102.42,39.07,103.67,39.07,104.92z"/>
	<circle style="fill:#75658D;" cx="75.57" cy="141.42" r="2.12"/>
	<circle style="fill:#75658D;" cx="68.57" cy="141.42" r="2.12"/>
	<circle style="fill:#75658D;" cx="61.57" cy="141.42" r="2.12"/>
	<path style="fill:#75658D;" d="M53.07,135.92c0,1.33,0,2.67,0,4c1,0,2,0,3,0c0-1.25,0-2.49,0-4
		C54.93,135.92,54,135.92,53.07,135.92z"/>
	<path style="fill:#75658D;" d="M35.07,128.92c0,1.48,0,2.74,0,4c2.33,0,4.67,0,7,0c1.33,0,2.67,0,4,0c0-2.33,0-4.67,0-7
		c-1.25,0-2.5,0-4,0c0-1.5,0-2.75,0-4c-2.33,0-4.67,0-7,0c-2.33,0-4.67,0-7,0c0,1.25,0,2.49,0,4c-1.16,0-2.08,0-3,0c0,1,0,2,0,3
		c1,0,2,0,3,0C30.31,128.92,32.56,128.92,35.07,128.92z"/>
	<path style="fill:#EDA77E;" d="M35.07,121.92c2.33,0,4.67,0,7,0c0-1,0-2,0-3c-0.92,0-1.84,0-3,0c0-1.51,0-2.75,0-4
		c-1.33,0-2.67,0-4,0c0,1.33,0,2.67,0,4C35.07,119.92,35.07,120.92,35.07,121.92z"/>
	<path style="fill:#EDA77E;" d="M28.07,128.92c0,1.33,0,2.67,0,4c2.33,0,4.67,0,7,0c0-1.26,0-2.52,0-4
		C32.56,128.92,30.31,128.92,28.07,128.92z"/>
	<circle style="fill:#EDA77E;" cx="26.57" cy="134.42" r="2.12"/>
	<path style="fill:#75658D;" d="M45.81,38.04c-1.31-0.07-2.59-0.49-3.73,0.34c0,1.22,0,2.38,0,3.54c1.33,0,2.67,0,4,0
		C45.9,40.65,46.4,39.32,45.81,38.04z"/>
	<path style="fill:#75658D;" d="M52.81,38.04c-1.31-0.07-2.59-0.49-3.73,0.34c0,1.22,0,2.38,0,3.54c1.33,0,2.67,0,4,0
		C52.9,40.65,53.4,39.32,52.81,38.04z"/>
	<path style="fill:#EDA77E;" d="M49.07,30.92c0,1.33,0,2.67,0,4c1.33,0,2.67,0,4,0c0-1.33,0-2.67,0-4
		C51.74,30.92,50.41,30.92,49.07,30.92z"/>
	<path style="fill:#EDA77E;" d="M42.07,30.92c0,1.33,0,2.67,0,4c1.33,0,2.67,0,4,0c0-1.33,0-2.67,0-4
		C44.74,30.92,43.41,30.92,42.07,30.92z"/>
	<path style="fill:#EDA77E;" d="M60.07,44.92c0-1,0-2,0-3c-1.33,0-2.67,0-4,0c0,0.92,0,1.84,0,3
		C57.58,44.92,58.83,44.92,60.07,44.92z"/>
	<path style="fill:#120B0B;" d="M39.07,30.92c0,1.33,0,2.67,0,4c1,0,2,0,3,0c0-1.33,0-2.67,0-4C41.07,30.92,40.07,30.92,39.07,30.92
		z"/>
	<path style="fill:#120B0B;" d="M46.07,30.92c0,1.33,0,2.67,0,4c1,0,2,0,3,0c0-1.33,0-2.67,0-4C48.07,30.92,47.07,30.92,46.07,30.92
		z"/>
	<path style="fill:#75658D;" d="M69.83,38.09c-1.01-0.11-1.98-0.6-2.76,0.35c0,1.16,0,2.32,0,3.48c1,0,2,0,3,0
		C69.9,40.65,70.4,39.32,69.83,38.09z"/>
	<path style="fill:#75658D;" d="M62.79,38c-0.83,0-1.61,0-2.72,0c0,1.34,0,2.63,0,3.92c1,0,2,0,3,0C62.9,40.65,63.4,39.32,62.79,38z
		"/>
	<path style="fill:#120B0B;" d="M53.07,34.92c0.92,0,1.84,0,3,0c0-1.51,0-2.75,0-4c-1,0-2,0-3,0
		C53.07,32.25,53.07,33.59,53.07,34.92z"/>
	<circle style="fill:#75658D;" cx="47.57" cy="43.42" r="2.12"/>
	<path style="fill:#EDA77E;" d="M46.07,118.92c0,1,0,2,0,3c2.33,0,4.67,0,7,0c0.94-0.12,1.95,0.29,2.84-0.32
		c0.1-0.93,0.59-1.9-0.36-2.68c-0.83,0-1.66,0-2.48,0c-1.33,0-2.67,0-4,0C48.07,118.92,47.07,118.92,46.07,118.92z"/>
	<path style="fill:#75658D;" d="M46.07,125.92c2.33,0,4.67,0,7,0c0-1.33,0-2.67,0-4c-2.33,0-4.67,0-7,0
		C46.07,123.25,46.07,124.59,46.07,125.92z"/>
	<path style="fill:#75658D;" d="M56.07,104.92c0,1,0,2,0,3c1.26,0,2.52,0,4,0c0-2.51,0-4.76,0-7c-1.25,0-2.5,0-4,0
		C56.07,102.42,56.07,103.67,56.07,104.92z"/>
	<path style="fill:#75658D;" d="M60.07,97.92c0,1,0,2,0,3c2.33,0,4.67,0,7,0c0-1,0-2,0-3C64.74,97.92,62.41,97.92,60.07,97.92z"/>
	<path style="fill:#75658D;" d="M49.07,118.92c1.33,0,2.67,0,4,0c0-1.33,0-2.67,0-4c-1.33,0-2.67,0-4,0
		C49.07,116.25,49.07,117.59,49.07,118.92z"/>
	<path style="fill:#75658D;" d="M53.07,111.92c1,0,2,0,3,0c0-1.33,0-2.67,0-4c-1,0-2,0-3,0C53.07,109.25,53.07,110.59,53.07,111.92z
		"/>
	<ellipse style="fill:#75658D;" cx="72.07" cy="99.42" rx="2.83" ry="2.12"/>
	<path style="fill:#75658D;" d="M74.07,97.92c1,0,2,0,3,0c0-2.33,0-4.67,0-7c-1,0-2,0-3,0C74.07,93.25,74.07,95.59,74.07,97.92z"/>
	<path style="fill:#75658D;" d="M67.07,97.92c1,0,2,0,3,0c0-2.33,0-4.67,0-7c-1,0-2,0-3,0C67.07,93.25,67.07,95.59,67.07,97.92z"/>
	<path style="fill:#75658D;" d="M48.75,171c-0.79,0-1.57,0-2.76,0c0.31,1.31-0.28,2.53,0.41,3.83c0.79,0,1.57,0,2.76,0
		C48.84,173.53,49.44,172.3,48.75,171z"/>
	<path style="fill:#120B0B;" d="M49.07,135.92c1.33,0,2.67,0,4,0c0-1,0-2,0-3c-1.33,0-2.67,0-4,0
		C49.07,133.92,49.07,134.92,49.07,135.92z"/>
	<path style="fill:#120B0B;" d="M62.79,136c-0.83,0-1.61,0-2.72,0c0,1.34,0,2.63,0,3.92c1,0,2,0,3,0
		C62.9,138.65,63.4,137.32,62.79,136z"/>
	<path style="fill:#120B0B;" d="M69.83,136.09c-1.01-0.11-1.98-0.6-2.76,0.35c0,1.16,0,2.32,0,3.48c1,0,2,0,3,0
		C69.9,138.65,70.4,137.32,69.83,136.09z"/>
	<path style="fill:#120B0B;" d="M74.07,139.92c1,0,2,0,3,0c0-1.33,0-2.67,0-4c-0.92,0-1.84,0-3,0
		C74.07,137.43,74.07,138.67,74.07,139.92z"/>
	<path style="fill:#EDA77E;" d="M42.07,135.92c2.33,0,4.67,0,7,0c0-1,0-2,0-3c-1,0-2,0-3,0c-1.33,0-2.67,0-4,0
		C42.07,133.92,42.07,134.92,42.07,135.92z"/>
	<path style="fill:#EDA77E;" d="M49.07,58.92c-1,0-2,0-3,0c0,1.33,0,2.67,0,4c2.33,0,4.67,0,7,0c1,0,2,0,3,0c0-1.33,0-2.67,0-4
		C53.74,58.92,51.41,58.92,49.07,58.92z"/>
	<path style="fill:#120B0B;" d="M56.07,58.92c0,1.33,0,2.67,0,4c2.33,0,4.67,0,7,0c0-1.33,0-2.67,0-4
		C60.74,58.92,58.41,58.92,56.07,58.92z"/>
	<path style="fill:#EDA77E;" d="M60.07,55.92c0-1.33,0-2.67,0-4c-1.33,0-2.67,0-4,0c0,1.33,0,2.67,0,4
		C57.41,55.92,58.74,55.92,60.07,55.92z"/>
	<path style="fill:#75658D;" d="M42.07,44.92c0,1.33,0,2.67,0,4c1.33,0,2.67,0,4,0c0-1.33,0-2.67,0-4
		C44.74,44.92,43.41,44.92,42.07,44.92z"/>
	<path style="fill:#75658D;" d="M49.07,83.92c1.25,0,2.49,0,4,0c0,1.16,0,2.08,0,3c1,0,2,0,3,0c1.25,0,2.5,0,4,0c0,1.5,0,2.75,0,4
		c2.33,0,4.67,0,7,0c0-1.33,0-2.67,0-4c-1.26,0-2.52,0-4,0c0-2.51,0-4.76,0-7c-1,0-2,0-3,0c0,1.16,0,2.32,0,3.51
		c-1.12,1.13-2.46,0.02-3.6,0.65c-0.73-1.56-0.23-2.89-0.4-4.16c0-1,0-2,0-3c0-1.33,0-2.67,0-4c-1,0-2,0-3,0c-1.33,0-2.67,0-4,0
		c-0.17,1.27,0.33,2.6-0.21,3.75c-0.93,0.62-2.12-0.27-2.79,0.77c0,0.83,0,1.65,0,2.48c0.92,0,1.84,0,3,0
		C49.07,81.43,49.07,82.67,49.07,83.92z"/>
	<path style="fill:#75658D;" d="M53.07,65.43c-1.05,1.12-2.52,0.03-3.8,0.75c-0.53,1.14-0.03,2.47-0.2,3.74c1.33,0,2.67,0,4,0
		c1,0,2,0,3,0c1.26,0,2.52,0,4.2,0c-0.54-1.49,0.35-2.75-0.58-3.88c-1.19-0.5-2.61,0.49-3.63-0.64c0-0.86,0-1.67,0-2.48
		c-1,0-2,0-3,0C53.07,63.75,53.07,64.57,53.07,65.43z"/>
	<path style="fill:#EDA77E;" d="M63.07,58.92c0,1.33,0,2.67,0,4c1.33,0,2.67,0,4,0c0-1.33,0-2.67,0-4
		C65.74,58.92,64.41,58.92,63.07,58.92z"/>
	<circle style="fill:#120B0B;" cx="54.57" cy="71.42" r="2.12"/>
	<path style="fill:#75658D;" d="M46.07,65.92c0-1.16,0-2.08,0-3c-1.33,0-2.67,0-4,0c0,1,0,2,0,3
		C43.32,65.92,44.56,65.92,46.07,65.92z"/>
	<path style="fill:#75658D;" d="M42.07,65.92c-0.92,0-1.84,0-3,0c0,1.51,0,2.75,0,4c1,0,2,0,3,0
		C42.07,68.59,42.07,67.25,42.07,65.92z"/>
	<path style="fill:#EDA77E;" d="M53.07,69.92c-1.33,0-2.67,0-4,0c-1,0-2,0-3,0c0,1,0,2,0,3c1,0,2,0,3,0c1.33,0,2.67,0,4,0
		C53.07,71.92,53.07,70.92,53.07,69.92z"/>
	<path style="fill:#75658D;" d="M74.07,90.92c0-1.33,0-2.67,0-4c-1.33,0-2.67,0-4,0c0,1.33,0,2.67,0,4
		C71.41,90.92,72.74,90.92,74.07,90.92z"/>
	<path style="fill:#EDA77E;" d="M49.07,93.92c0,1.33,0,2.67,0,4c1.33,0,2.67,0,4,0c0-1.33,0-2.67,0-4
		C51.74,93.92,50.41,93.92,49.07,93.92z"/>
	<path style="fill:#EDA77E;" d="M48.93,91.17c-1.05-0.29-1.95-0.56-2.75,0.14c0,0.79,0,1.56,0,2.46c1.02,0,1.95,0,2.75,0
		C48.93,92.98,48.93,92.06,48.93,91.17z"/>
	<path style="fill:#EDA77E;" d="M56.07,90.92c-0.92,0-1.83,0-3,0c0,1.17,0,2.08,0,3c1,0,2,0,3,0
		C56.07,92.92,56.07,91.92,56.07,90.92z"/>
	<circle style="fill:#75658D;" cx="47.57" cy="85.42" r="2.12"/>
	<path style="fill:#75658D;" d="M42.07,118.92c0-1.33,0-2.67,0-4c-1,0-2,0-3,0c0,1.25,0,2.49,0,4
		C40.23,118.92,41.15,118.92,42.07,118.92z"/>
	<path style="fill:#75658D;" d="M46.07,111.92c1,0,2,0,3,0c0-1.33,0-2.67,0-4c-1,0-2,0-3,0C46.07,109.25,46.07,110.59,46.07,111.92z
		"/>
	<path style="fill:#120B0B;" d="M49.07,104.92c0,1,0,2,0,3c1.33,0,2.67,0,4,0c1,0,2,0,3,0c0-1,0-2,0-3
		C53.74,104.92,51.41,104.92,49.07,104.92z"/>
	<path style="fill:#120B0B;" d="M42.07,121.92c1.33,0,2.67,0,4,0c0-1,0-2,0-3c-1.33,0-2.67,0-4,0
		C42.07,119.92,42.07,120.92,42.07,121.92z"/>
	<path style="fill:#75658D;" d="M56.07,90.92c0,1,0,2,0,3c0,1.33,0,2.67,0,4c1.33,0,2.67,0,4,0c0-2.33,0-4.67,0-7
		C58.74,90.92,57.41,90.92,56.07,90.92z"/>
	<path style="fill:#120B0B;" d="M53.07,93.92c0,1.33,0,2.67,0,4c1,0,2,0,3,0c0-1.33,0-2.67,0-4C55.07,93.92,54.07,93.92,53.07,93.92
		z"/>
</g>
</svg>
